<svg width="472" height="177" viewBox="0 0 472 177" fill="none" xmlns="http://www.w3.org/2000/svg">
<path d="M468.999 4.77996C448.808 8.96757 427.928 13.2978 411.461 26.283C405.614 30.8933 400.173 36.0891 394.912 41.1141C385.735 49.877 377.068 58.1543 366.439 63.5909C351.352 71.3077 332.932 69.8071 319.085 66.752L317.321 74.8849C327.017 76.9702 336.205 77.7974 344.632 77.3436C351.142 76.993 357.201 75.8739 362.746 74.0034C365.948 72.9233 368.979 71.5922 371.825 70.0146C382.898 63.8758 391.622 54.9664 400.06 46.3503C404.844 41.4645 409.363 36.8494 414.287 32.6923C427.329 21.6808 445.42 17.2941 462.917 13.0522C465.918 12.3247 468.966 11.5837 472 10.8074V4.15625C471.007 4.36329 470.008 4.5708 468.999 4.77996Z" fill="#2B384C"/>
<path d="M321.731 71.2314C321.731 71.2314 362.635 89.7994 392.962 48.8652C392.962 48.8652 367.845 82.6086 321.731 71.2314Z" fill="#121823"/>
<path d="M366.439 63.5915C377.068 58.1551 385.735 49.8778 394.911 41.1146C400.173 36.0899 405.614 30.8941 411.461 26.2835C427.928 13.2984 448.807 8.9679 468.999 4.78053C470.007 4.57137 471.007 4.36386 472 4.15659V2.73996C470.415 3.15686 468.828 3.56765 467.241 3.97868L456.578 6.60607C449.488 8.38766 442.434 10.2607 435.578 12.6651C428.726 15.0624 422.068 18.0014 415.903 21.7848C414.366 22.7363 412.861 23.7365 411.389 24.7846C409.908 25.8302 408.458 26.9272 407.019 28.0364C404.127 30.2436 401.315 32.5589 398.464 34.8411C401.002 32.2332 403.639 29.7186 406.365 27.2856C407.738 26.0793 409.131 24.8944 410.564 23.7457L411.65 22.8926C412.014 22.6099 412.391 22.3443 412.761 22.0694L413.318 21.6602C413.505 21.5251 413.696 21.3961 413.885 21.2638L415.024 20.4755C421.15 16.3349 427.94 13.2039 434.906 10.7662C441.884 8.32798 449.049 6.55226 456.237 5.07711C458.035 4.70932 459.832 4.34319 461.635 4.0083L467.041 3.01516C468.693 2.7174 470.346 2.41941 472 2.12824V0C468.261 0.991498 464.414 1.92566 460.432 2.89107C441.75 7.42085 422.431 12.1048 407.495 24.7158C402.192 29.1934 397.286 34.2038 392.541 39.0492C384.265 47.4996 376.449 55.4814 366.716 60.8774C351.751 69.1746 332.801 67.5154 319.538 64.6629L319.085 66.7526C332.932 69.8077 351.352 71.3082 366.439 63.5915Z" fill="#5A7296"/>
<path d="M467.041 3.01485L461.635 4.00799C459.832 4.34288 458.035 4.70925 456.237 5.0768C449.049 6.55195 441.884 8.32767 434.906 10.7659C427.94 13.2036 421.15 16.3344 415.024 20.4752L413.885 21.2634C413.696 21.3958 413.505 21.525 413.318 21.6599L412.761 22.069C412.391 22.344 412.014 22.6096 411.65 22.8923L410.564 23.7454C409.131 24.8941 407.738 26.079 406.365 27.2853C403.639 29.7183 401.002 32.2329 398.464 34.8408C401.315 32.5586 404.127 30.2431 407.019 28.0361C408.458 26.9269 409.908 25.8299 411.389 24.7843C412.861 23.736 414.366 22.736 415.903 21.7845C422.068 18.0013 428.726 15.0623 435.578 12.6647C442.434 10.2604 449.488 8.38735 456.578 6.60576L467.241 3.97837C468.828 3.56734 470.415 3.15655 472 2.73965V2.12793C470.346 2.4191 468.693 2.71733 467.041 3.01485Z" fill="#7F9DC1"/>
<path d="M318.059 51.752C321.096 57.0589 322.429 63.2032 321.482 69.4847C319.07 85.4845 302.788 96.3132 285.114 93.6713L253.831 88.9953C250.657 88.5208 248.197 85.2208 246.733 80.1947C307.117 90.5038 316.798 64.3249 318.059 51.752Z" fill="#EEA920"/>
<path d="M262.565 31.0552L293.848 35.7311C304.583 37.3358 313.361 43.5414 318.059 51.7519C316.798 64.3248 307.116 90.5037 246.732 80.1949C245.082 74.5309 244.695 66.6751 245.973 58.1979C248.385 42.1981 255.813 30.0458 262.565 31.0552Z" fill="#FEBD17"/>
<path d="M270.407 61.8483C272.819 45.8489 269.3 32.0609 262.548 31.0519C255.796 30.043 248.368 42.1951 245.957 58.1945C243.546 74.194 247.065 87.982 253.817 88.9909C260.568 89.9999 267.996 77.8477 270.407 61.8483Z" fill="#D79128"/>
<path d="M261.826 32.8589C266.951 33.625 269.714 44.116 268.559 57.1362L286.762 59.8571C288.959 60.1856 290.613 62.2278 290.405 64.5704C290.177 67.1374 287.956 68.9674 285.587 68.6132L267.238 65.8707C264.499 78.6267 258.774 87.8209 253.656 87.056C247.969 86.2059 245.188 73.3844 247.444 58.4184C249.7 43.4521 256.139 32.0089 261.826 32.8589Z" fill="#1E1E1E"/>
<path d="M268.981 58.2255L286.013 60.7716C287.798 61.0383 289.154 62.6122 289.002 64.403C288.836 66.365 287.047 67.7495 285.123 67.4618L267.975 64.8986C267.501 64.8276 267.175 64.3877 267.246 63.9158L267.994 58.9517C268.065 58.4798 268.507 58.1546 268.981 58.2255Z" fill="#C2B59B"/>
<path d="M268.086 61.1709L268.381 59.2137C268.447 58.7797 268.869 58.4831 269.325 58.5512L285.697 60.9984C287.369 61.2484 288.654 62.6399 288.592 64.2358L268.086 61.1709Z" fill="white"/>
<path d="M274.972 33.9139C279.288 34.559 283.604 35.2041 287.92 35.8494C289.781 36.1277 291.642 36.4057 293.503 36.6839C296.75 37.1692 300.637 38.607 300.867 38.6928C302.972 39.611 304.985 40.7284 306.929 41.9573C308.703 43.0783 310.405 44.3297 311.951 45.7482C312.324 46.045 312.638 46.3395 312.869 46.6259C312.869 46.6259 292.268 56.2462 272.569 53.4139C272.647 48.4881 272.179 43.8794 271.172 39.9331C270.462 37.1509 269.221 34.7576 268.052 32.8794C270.264 33.2101 272.759 33.583 274.972 33.9139Z" fill="#FFDE17"/>
<path d="M251.578 77.2509C256.073 78.1441 261.773 68.6052 264.31 55.9453C265.695 49.0346 265.851 42.6227 264.976 38.0788C263.999 36.3003 262.766 35.1997 261.321 34.9837C256.217 34.2207 250.396 44.7713 248.319 58.5489C247.589 63.3915 247.419 67.9882 247.727 71.947C247.74 72.114 247.769 72.2795 247.817 72.4402C248.62 75.1647 249.895 76.9164 251.578 77.2509Z" fill="#455878"/>
<path d="M264.976 38.0791C265.851 42.623 265.695 49.0349 264.31 55.9456C261.773 68.6055 256.073 78.1442 251.578 77.2512C249.845 76.9066 248.546 75.0604 247.747 72.1973C248.345 79.3681 250.528 84.3881 253.8 84.8774C258.904 85.6402 264.726 75.0898 266.803 61.3122C268.291 51.4355 267.452 42.5823 264.976 38.0791Z" fill="#2B384C"/>
<path d="M260.242 47.965C260.812 44.6219 260.241 41.7372 258.966 41.5218C257.692 41.3064 256.196 43.8419 255.627 47.185C255.057 50.5282 255.628 53.4129 256.903 53.6283C258.178 53.8436 259.673 51.3081 260.242 47.965Z" fill="#FEBD17"/>
<path d="M259.638 47.8589C259.161 50.6612 257.959 52.795 256.954 52.6251C255.949 52.4552 255.522 50.0462 255.999 47.2439C256.476 44.4417 257.678 42.3078 258.683 42.4777C259.688 42.6474 260.116 45.0567 259.638 47.8589Z" fill="#0F0F10"/>
<path d="M256.951 70.3092C257.521 66.9661 256.949 64.0814 255.675 63.866C254.4 63.6506 252.905 66.1861 252.335 69.5293C251.766 72.8724 252.337 75.7571 253.612 75.9725C254.886 76.1879 256.381 73.6523 256.951 70.3092Z" fill="#FEBD17"/>
<path d="M256.347 70.2032C255.87 73.0054 254.668 75.1393 253.663 74.9694C252.658 74.7995 252.231 72.3904 252.708 69.5882C253.186 66.7862 254.387 64.6521 255.392 64.822C256.397 64.9919 256.825 67.401 256.347 70.2032Z" fill="#0F0F10"/>
<path d="M247.581 38.0788L231.249 17.9916L239.415 13.521L247.581 38.0788Z" fill="#FEBD17"/>
<path d="M238.844 37.2182L223.655 34.478L225.592 29.3071L238.844 37.2182Z" fill="#FEBD17"/>
<path d="M220.803 101.05L236.909 121.317L228.694 125.697L220.803 101.05Z" fill="#FEBD17"/>
<path d="M229.53 102.008L244.687 104.916L242.692 110.065L229.53 102.008Z" fill="#FEBD17"/>
<path d="M25.3499 163.133C35.9789 157.696 44.6465 149.419 53.8226 140.656C59.0842 135.631 64.525 130.435 70.3719 125.825C86.839 112.84 107.719 108.509 127.911 104.322C131.893 103.496 135.749 102.693 139.508 101.842L138.158 97.4834C132.182 99.3193 125.946 100.831 119.343 102.432C100.661 106.962 81.3426 111.646 66.4064 124.257C61.1032 128.735 56.1968 133.745 51.4518 138.59C43.1767 147.041 35.3603 155.022 25.6272 160.418C17.7217 164.801 8.70391 166.405 0 166.523V168.772C8.60668 168.691 17.4369 167.18 25.3499 163.133ZM65.2766 126.827C66.6494 125.621 68.0425 124.436 69.4748 123.287L70.5614 122.434C70.925 122.151 71.3019 121.886 71.672 121.611L72.2297 121.202C72.4166 121.066 72.6077 120.937 72.7965 120.805L73.9348 120.017C80.0615 115.876 86.8515 112.745 93.817 110.308C100.795 107.869 107.96 106.094 115.148 104.618C116.947 104.251 118.743 103.885 120.546 103.55L125.952 102.557C129.555 101.907 133.158 101.252 136.785 100.685C133.256 101.687 129.705 102.6 126.153 103.52L115.489 106.148C108.399 107.929 101.346 109.803 94.4894 112.207C87.6371 114.604 80.9791 117.543 74.8139 121.326C73.2777 122.278 71.7723 123.278 70.3001 124.326C68.8195 125.372 67.3695 126.469 65.9299 127.578C63.0384 129.785 60.2258 132.101 57.3754 134.383C59.9133 131.775 62.5499 129.26 65.2766 126.827Z" fill="#5A7296"/>
<path d="M139.509 101.843C135.75 102.694 131.894 103.497 127.911 104.323C107.719 108.51 86.8395 112.841 70.3721 125.826C64.5254 130.436 59.0845 135.632 53.8228 140.657C44.6465 149.42 35.9791 157.697 25.3502 163.134C17.4371 167.181 8.60692 168.692 0.000480141 168.774V173.113C33.3274 172.772 51.427 149.001 51.864 148.42C51.8671 148.416 51.8702 148.412 51.8733 148.407C51.8733 148.407 51.8695 148.412 51.864 148.42C34.877 171.339 14.5747 175.596 0.000244141 174.906V176.999C1.19488 176.985 2.37676 176.949 3.54284 176.886C10.0531 176.536 16.1122 175.416 21.6568 173.546C24.8588 172.466 27.89 171.135 30.7359 169.557C41.8088 163.418 50.5335 154.509 58.971 145.893C63.7556 141.007 68.2748 136.392 73.1984 132.235C86.2403 121.223 104.332 116.837 121.828 112.595C128.291 111.028 134.975 109.407 141.254 107.478L139.509 101.843Z" fill="#2B384C"/>
<path d="M70.3001 124.327C71.7723 123.278 73.2777 122.278 74.8139 121.327C80.9791 117.543 87.6372 114.604 94.4894 112.207C101.346 109.803 108.399 107.929 115.489 106.148L126.153 103.52C129.705 102.601 133.256 101.687 136.785 100.685C133.158 101.253 129.555 101.908 125.952 102.557L120.546 103.55C118.743 103.885 116.947 104.251 115.148 104.619C107.96 106.094 100.795 107.869 93.817 110.308C86.8515 112.745 80.0616 115.876 73.9348 120.017L72.7965 120.805C72.6077 120.938 72.4166 121.067 72.2297 121.202L71.672 121.611C71.302 121.886 70.9251 122.151 70.5614 122.434L69.4748 123.287C68.0426 124.436 66.6495 125.621 65.2766 126.827C62.5499 129.26 59.9133 131.775 57.3754 134.383C60.2258 132.101 63.0384 129.785 65.9299 127.578C67.3695 126.469 68.8195 125.372 70.3001 124.327Z" fill="#7F9DC1"/>
<path d="M51.8638 148.419C51.8692 148.412 51.873 148.407 51.873 148.407C51.8699 148.411 51.8668 148.415 51.8638 148.419Z" fill="#121823"/>
<path d="M51.8638 148.419C51.4267 149 33.3272 172.771 0.000244141 173.112V174.906C14.5747 175.595 34.877 171.339 51.8638 148.419Z" fill="#121823"/>
<path d="M139.95 84.5776C137.465 90.1621 136.76 96.4086 138.337 102.564C142.354 118.24 159.648 127.382 176.965 122.982L207.616 115.195C210.727 114.404 212.84 110.875 213.789 105.727C154.755 122.036 142.476 96.9602 139.95 84.5776Z" fill="#EEA920"/>
<path d="M193.071 58.4238L162.42 66.2113C151.902 68.8836 143.795 75.9378 139.951 84.5772C142.476 96.9597 154.755 122.035 213.79 105.727C214.86 99.9267 214.451 92.0718 212.323 83.7657C208.306 68.089 199.687 56.7431 193.071 58.4238Z" fill="#FEBD17"/>
<path d="M207.619 115.209C214.235 113.529 216.342 99.4572 212.326 83.7798C208.31 68.1023 199.691 56.7557 193.075 58.4364C186.459 60.117 184.351 74.1886 188.368 89.866C192.384 105.543 201.003 116.89 207.619 115.209Z" fill="#D79128"/>
<path d="M193.989 60.1434C188.968 61.4193 187.279 72.134 189.744 84.9722L171.908 89.5036C169.755 90.0507 168.316 92.2483 168.76 94.558C169.246 97.089 171.641 98.6873 173.963 98.0974L191.941 93.5298C195.955 105.946 202.58 114.52 207.595 113.246C213.167 111.83 214.638 98.7952 210.881 84.1314C207.124 69.4676 199.561 58.7277 193.989 60.1434Z" fill="#1E1E1E"/>
<path d="M189.434 86.0993L172.745 90.3395C170.997 90.7837 169.807 92.4856 170.139 94.2519C170.503 96.1875 172.423 97.3853 174.308 96.9064L191.11 92.6377C191.574 92.5197 191.854 92.0492 191.736 91.587L190.49 86.7232C190.371 86.2605 189.899 85.9813 189.434 86.0993Z" fill="#C2B59B"/>
<path d="M190.622 88.94L190.13 87.0223C190.021 86.5972 189.571 86.3443 189.125 86.4578L173.083 90.5336C171.445 90.9498 170.307 92.4632 170.53 94.0448L190.622 88.94Z" fill="white"/>
<path d="M207.311 76.2123C207.024 75.4939 206.729 74.7957 206.425 74.1189L190.678 67.8862C190.282 69.5369 190.055 71.4814 190.007 73.6437L199.196 78.2741L207.311 76.2123Z" fill="#455878"/>
<path d="M194.706 62.2002C192.789 62.6871 191.428 64.7583 190.677 67.8862L206.425 74.1189C202.886 66.2226 198.311 61.2844 194.706 62.2002Z" fill="#2B384C"/>
<path d="M207.071 110.461C208.005 110.224 208.806 109.611 209.469 108.683L196.725 101.362C200.021 107.582 203.918 111.262 207.071 110.461Z" fill="#455878"/>
<path d="M194.52 96.5806C195.211 98.2978 195.951 99.901 196.726 101.363L209.47 108.684C210.111 107.787 210.624 106.597 211.001 105.167C211.004 105.158 211.006 105.148 211.009 105.139L194.52 96.5806Z" fill="#2B384C"/>
<path d="M210.172 85.3488L190.084 77.2861C190.297 80.7638 190.901 84.6188 191.923 88.6093C192.217 89.757 192.537 90.8776 192.878 91.968C193.339 93.4436 193.839 94.8619 194.372 96.2118C194.42 96.3359 194.47 96.4578 194.52 96.5807L204.904 101.97L211.723 100.238C211.735 100.01 211.745 99.778 211.754 99.5444C211.902 95.4558 211.394 90.5415 210.172 85.3488Z" fill="#455878"/>
<path d="M211.008 105.139C211.38 103.721 211.62 102.07 211.723 100.238L204.904 101.97L211.008 105.139Z" fill="#1E1E1E"/>
<path d="M207.311 76.2124L199.196 78.2741L209.354 82.2187C208.748 80.1025 208.061 78.0889 207.311 76.2124Z" fill="#1E1E1E"/>
<path d="M209.354 82.219L199.196 78.2744L190.007 73.644C189.982 74.7998 190.007 76.0179 190.084 77.286L210.172 85.3486C210.07 84.9185 209.965 84.4871 209.854 84.0535C209.738 83.6025 209.618 83.1558 209.495 82.7132C209.449 82.5473 209.401 82.3835 209.354 82.219Z" fill="#2B384C"/>
<path d="M220.207 65.4424L197.395 71.2384C197.172 71.2953 197.003 71.4852 196.962 71.735C196.791 72.7707 196.568 75.5966 198.588 78.0616C198.742 78.2503 198.981 78.3281 199.196 78.2734L222.01 72.4771C223.742 72.0372 224.742 70.1057 224.244 68.1631C223.747 66.2205 221.939 65.0025 220.207 65.4424Z" fill="#C2B59B"/>
<path d="M220.358 66.352L202.128 70.9838L198.643 71.869L197.771 72.0906C197.692 72.5976 197.791 73.9651 197.946 74.8459L223.435 68.3698C222.866 66.9351 221.855 65.9715 220.358 66.352Z" fill="white"/>
<path d="M226.257 89.0518L203.444 94.8478C203.221 94.9047 203.052 95.0945 203.011 95.3443C202.84 96.38 202.617 99.206 204.637 101.671C204.791 101.86 205.03 101.937 205.245 101.883L228.059 96.0865C229.791 95.6466 230.791 93.715 230.293 91.7725C229.796 89.8299 227.988 88.6118 226.257 89.0518Z" fill="#C2B59B"/>
<path d="M226.407 89.9604L208.177 94.5922L204.693 95.4772L203.821 95.6988C203.741 96.2057 203.84 97.5732 203.995 98.454L229.484 91.9779C228.915 90.5434 227.905 89.5799 226.407 89.9604Z" fill="white"/>
<path d="M181.016 62.51C176.787 63.5844 172.558 64.6589 168.329 65.7333C166.506 66.1965 164.683 66.6597 162.86 67.1229C159.678 67.9311 155.956 69.7512 155.736 69.8596C153.734 70.9841 151.844 72.2976 150.034 73.7151C148.383 75.0081 146.816 76.4238 145.421 77.9902C145.08 78.3227 144.797 78.6475 144.597 78.9553C144.597 78.9553 166.066 86.462 185.378 81.6699C184.803 76.7768 184.802 72.1448 185.405 68.1177C185.83 65.2786 186.824 62.7729 187.797 60.7871C185.629 61.338 183.184 61.9591 181.016 62.51Z" fill="#FFDE17"/>
</svg>
