<svg width="285" height="254" viewBox="0 0 285 254" fill="none" xmlns="http://www.w3.org/2000/svg">
<g clip-path="url(#clip0_475_18728)">
<path d="M267.154 134.845C270.862 134.845 273.869 128.383 273.869 120.41C273.869 112.438 270.862 105.975 267.154 105.975C263.445 105.975 260.438 112.438 260.438 120.41C260.438 128.383 263.445 134.845 267.154 134.845Z" fill="#F3F8FF"/>
<path d="M7.53704 195.433C10.2911 195.433 12.5238 189.977 12.5238 183.248C12.5238 176.518 10.2911 171.063 7.53704 171.063C4.78294 171.063 2.55029 176.518 2.55029 183.248C2.55029 189.977 4.78294 195.433 7.53704 195.433Z" fill="#F3F8FF"/>
<path d="M39.6452 36.9531C39.6452 36.9531 43.5305 60.8025 56.1198 88.6318C37.5648 91.7392 29.6258 95.8723 19.5146 102.669C16.2258 82.6312 20.8148 51.6944 20.8148 51.6944L39.6452 36.9531Z" fill="#A6CAF4"/>
<path d="M3.71289 91.8915C3.71289 91.8915 8.92909 88.2636 19.5298 102.668C18.5202 80.6557 20.4476 66.2359 22.4514 57.8014C13.7323 69.4505 4.1565 84.2683 3.71289 91.8915ZM56.1197 88.6463C56.1197 88.6463 67.118 77.7626 74.9959 71.8079C46.8039 32.9111 46.8039 32.9111 46.8039 32.9111L39.6603 36.9524C39.645 36.9524 42.2149 65.8991 56.1197 88.6463Z" fill="#8CB8ED"/>
<path d="M52.6323 27.1407C52.6323 27.1407 73.8337 37.8866 96.2435 58.3071C104.565 41.0859 110.745 34.5343 120.061 26.6508C102.255 17.5887 71.9369 13.0576 71.9369 13.0576L52.6323 27.1407Z" fill="#A6CAF4"/>
<path d="M114.568 8.05175C114.568 8.05175 109.643 12.0777 120.06 26.6352C99.7306 19.2416 85.6575 16.8996 77.1831 16.4097C90.629 11.2817 107.302 6.26075 114.568 8.05175ZM96.2429 58.3068C96.2429 58.3068 82.8429 65.8841 74.9651 71.8388C46.7578 32.942 46.7578 32.942 46.7578 32.942L52.6318 27.1404C52.6318 27.1404 78.9881 38.0854 96.2429 58.3068Z" fill="#8CB8ED"/>
<path d="M26.199 56.1792C26.199 56.1792 11.2999 72.9104 3.59033 92.2134C7.56749 58.3222 12.799 53.8218 18.5047 44.928C24.5775 35.4067 26.1837 32.1768 26.1837 32.1768C26.1837 32.1768 21.9924 44.5147 26.199 56.1792Z" fill="#CDDFF9"/>
<path d="M38.8037 23.4206C38.8037 23.4206 36.4786 20.4663 37.2587 19.8693C38.0388 19.2876 40.1651 22.3797 40.1651 22.3797L38.8037 23.4206Z" fill="#6983CC"/>
<path d="M95.5548 98.75L94.1781 99.791L46.6357 34.2283L48.0125 33.2026L95.5548 98.75Z" fill="#6983CC"/>
<path d="M118.454 119.461C114.416 122.523 108.45 121.314 105.146 116.767L93.3062 100.449C92.6026 99.4849 92.7403 98.1684 93.5969 97.5255C94.4535 96.8672 95.7231 97.1275 96.4268 98.0919L108.266 114.41C110.163 117.012 113.59 117.716 115.915 115.956C118.24 114.196 118.592 110.644 116.695 108.042L113.559 103.725C112.856 102.761 112.993 101.444 113.85 100.801C114.706 100.143 115.976 100.403 116.68 101.368L119.816 105.684C123.104 110.216 122.492 116.4 118.454 119.461Z" fill="#FCFCFC"/>
<path d="M54.8805 44.7291C54.804 44.7444 54.7276 44.7444 54.6511 44.7138L42.1077 40.6266C41.863 40.5501 41.7406 40.2899 41.8171 40.0449C41.8936 39.8 42.1536 39.6776 42.3983 39.7541L54.9264 43.8412C55.1712 43.9178 55.2935 44.178 55.2171 44.4229C55.1712 44.576 55.0335 44.6985 54.8805 44.7291Z" fill="#CDDFF9"/>
<path d="M55.4923 45.2799L32.4248 49.4435C32.18 49.4895 31.9353 49.3211 31.8894 49.0762C31.8435 48.8312 32.0118 48.5863 32.2565 48.5404L55.3241 44.3767C55.5688 44.3308 55.8136 44.4992 55.8594 44.7441C55.9053 44.989 55.7371 45.2339 55.4923 45.2799Z" fill="#CDDFF9"/>
<path d="M22.0077 63.1902C21.8088 63.2361 21.61 63.1443 21.5182 62.9606C21.3958 62.731 21.4876 62.4554 21.7018 62.333L55.2017 44.423C55.4311 44.3006 55.7065 44.3924 55.8289 44.6067C55.9512 44.8363 55.8595 45.1119 55.6453 45.2343L22.1454 63.1443C22.0842 63.1596 22.0536 63.1749 22.0077 63.1902Z" fill="#CDDFF9"/>
<path d="M43.148 56.3472C42.9951 56.3779 42.8268 56.3319 42.7197 56.2095C42.5515 56.0258 42.5668 55.7349 42.7503 55.5666L55.0948 44.4991C55.2784 44.3307 55.569 44.346 55.7373 44.5297C55.9056 44.7134 55.8903 45.0043 55.7067 45.1727L43.3622 56.2401C43.301 56.3013 43.2245 56.3319 43.148 56.3472Z" fill="#CDDFF9"/>
<path d="M55.1721 44.4998C55.1415 44.4998 55.1109 44.5151 55.0802 44.5151C54.82 44.5151 54.621 44.3161 54.621 44.0559L54.4526 30.6311C54.4526 30.3709 54.6516 30.1719 54.9119 30.1719C55.1721 30.1719 55.3711 30.3709 55.3711 30.6311L55.5395 44.0559C55.5395 44.2702 55.3864 44.4692 55.1721 44.4998Z" fill="#CDDFF9"/>
<path d="M55.4921 45.2805C55.4003 45.2958 55.2933 45.2958 55.2015 45.2345C54.972 45.1274 54.8802 44.8518 55.0026 44.6222L65.6339 23.314C65.741 23.0844 66.0163 22.9925 66.2458 23.115C66.4752 23.2221 66.567 23.4977 66.4446 23.7273L55.8134 45.0355C55.7522 45.158 55.6298 45.2498 55.4921 45.2805Z" fill="#CDDFF9"/>
<path d="M55.5077 45.28C55.3701 45.3106 55.2171 45.2647 55.0947 45.1575C54.9112 44.9739 54.9112 44.683 55.0794 44.5146L81.6193 17.0221C81.8029 16.8384 82.0935 16.8384 82.2618 17.0068C82.4454 17.1905 82.4454 17.4813 82.2771 17.6497L55.7372 45.1422C55.676 45.2188 55.5842 45.2647 55.5077 45.28Z" fill="#CDDFF9"/>
<path d="M55.4925 45.2796C55.309 45.3102 55.1254 45.2336 55.0183 45.0806C54.8807 44.8663 54.9419 44.5754 55.156 44.453L69.122 35.6204C69.3361 35.4827 69.6268 35.5439 69.7491 35.7582C69.8868 35.9725 69.8256 36.2634 69.6115 36.3858L55.6455 45.2183C55.5996 45.249 55.5537 45.2643 55.4925 45.2796Z" fill="#CDDFF9"/>
<path d="M46.8956 15.6139C40.7463 20.9563 38.9413 22.1349 38.9413 22.1349C38.9413 22.1349 37.3045 23.5432 30.5128 27.9978C21.8548 33.5238 22.176 44.5454 26.1991 56.1792C32.8532 48.5866 48.9454 35.9118 48.9454 35.9118C48.9454 35.9118 65.5118 23.88 74.5522 19.5939C64.8387 12.2768 54.6052 8.75605 46.8956 15.6139Z" fill="#A6CAF4"/>
<path d="M74.552 19.5941C74.552 19.5941 94.5602 9.91964 114.905 8.00618C82.0016 2.00558 76.25 5.81719 66.2612 8.80218C55.5687 11.9556 52.0811 12.5832 52.0811 12.5832C52.0811 12.5832 64.8539 12.0933 74.552 19.5941ZM59.8518 48.2959L57.3431 50.1941C57.2973 50.2247 57.2361 50.2094 57.2055 50.1635L53.6566 45.265C53.626 45.2191 53.626 45.1579 53.6719 45.1273L56.1806 43.2291C56.2265 43.1985 56.2877 43.2138 56.3183 43.2597L59.8671 48.1582C59.8977 48.1888 59.8977 48.2653 59.8518 48.2959Z" fill="#CDDFF9"/>
<path d="M213.554 193.016C213.554 193.016 234.939 198.802 251.887 183.005C268.836 167.207 271.59 154.93 260.301 156.063C249.012 157.196 222.365 180.372 213.554 193.016Z" fill="#6BA336"/>
<path d="M235.383 182.882C238.977 180.54 242.343 177.953 245.234 175.549L255.85 173.789C256.018 173.758 256.125 173.575 256.094 173.391C256.064 173.192 255.911 173.054 255.743 173.085L246.305 174.646C253.678 168.339 258.97 162.446 259.031 162.385C259.154 162.247 259.154 162.033 259.031 161.879C258.909 161.726 258.725 161.726 258.603 161.864C258.557 161.925 253.219 167.865 245.8 174.187C245.708 174.263 245.616 174.34 245.524 174.416L249.547 164.543C249.624 164.375 249.547 164.145 249.41 164.068C249.257 163.977 249.073 164.038 249.012 164.222L244.484 175.274C242.021 177.31 239.222 179.468 236.239 181.489L241.868 172.166C241.96 172.013 241.93 171.784 241.792 171.661C241.654 171.539 241.471 171.569 241.364 171.738L234.97 182.331C230.09 185.499 224.797 188.178 219.81 189.204C219.642 189.234 219.55 189.418 219.581 189.617C219.612 189.801 219.749 189.923 219.902 189.908C219.918 189.908 219.933 189.908 219.933 189.908C222.594 189.357 225.333 188.346 228.055 187.061H228.071L248.262 182.453C248.431 182.422 248.523 182.223 248.492 182.04C248.461 181.841 248.293 181.718 248.125 181.749L230.641 185.729C232.201 184.872 233.746 183.953 235.26 182.973C235.306 182.943 235.337 182.928 235.383 182.882Z" fill="#417F73"/>
<path d="M215.114 196.003C215.114 196.003 245.096 181.001 252.377 147.875C259.658 114.765 253.004 99.2584 240.553 111.55C228.101 123.842 215.313 174.174 215.114 196.003Z" fill="#A4C931"/>
<path opacity="0.49" d="M232.736 163.993C235.107 158.023 236.989 152.007 238.457 146.664L249.593 134.388C249.761 134.204 249.746 133.898 249.563 133.729C249.364 133.561 249.073 133.561 248.905 133.76L239.008 144.674C242.648 130.851 244.132 119.508 244.148 119.386C244.178 119.126 243.995 118.896 243.75 118.85C243.49 118.82 243.26 118.988 243.23 119.248C243.214 119.355 241.715 130.806 238.044 144.674C237.998 144.843 237.952 145.011 237.906 145.195L234.694 130.943C234.633 130.698 234.388 130.53 234.128 130.576C233.868 130.637 233.715 130.882 233.776 131.127L237.386 147.108C236.117 151.655 234.556 156.66 232.644 161.696L231.772 146.45C231.757 146.19 231.543 145.991 231.283 146.006C231.023 146.021 230.824 146.236 230.839 146.496L231.834 163.809C228.621 171.907 224.522 179.897 219.443 185.883C219.275 186.082 219.306 186.372 219.504 186.541C219.688 186.694 219.948 186.694 220.132 186.525C220.147 186.51 220.162 186.495 220.177 186.479C222.885 183.295 225.317 179.545 227.474 175.519L227.489 175.504L247.666 150.859C247.834 150.66 247.803 150.369 247.589 150.2C247.39 150.032 247.1 150.063 246.932 150.262L229.463 171.6C230.625 169.182 231.711 166.687 232.706 164.192C232.706 164.13 232.736 164.069 232.736 163.993Z" fill="#348273"/>
<path d="M41.9088 244.188C41.9088 244.188 25.9389 249.194 12.6613 237.774C-0.616286 226.355 -3.06377 217.17 5.50243 217.691C14.0686 218.211 34.8722 234.912 41.9088 244.188Z" fill="#6BA336"/>
<path d="M25.1279 237.192C22.3439 235.539 19.7128 233.671 17.4795 231.941L9.41811 230.931C9.29574 230.916 9.20396 230.778 9.21925 230.64C9.23455 230.502 9.35692 230.38 9.4793 230.395L16.6535 231.298C10.8866 226.767 6.72588 222.466 6.67999 222.42C6.58821 222.328 6.57291 222.16 6.66469 222.037C6.75647 221.93 6.89414 221.915 6.98592 222.007C7.03181 222.053 11.2231 226.385 17.0206 230.931C17.0971 230.992 17.1583 231.038 17.2348 231.099L13.9001 223.767C13.8389 223.645 13.8848 223.476 13.9918 223.4C14.0989 223.323 14.2366 223.369 14.2978 223.507L18.0455 231.727C19.9576 233.197 22.145 234.743 24.4548 236.166L19.927 229.293C19.8505 229.171 19.8658 229.002 19.9729 228.91C20.08 228.819 20.2176 228.834 20.2941 228.956L25.4338 236.763C29.2121 239.013 33.2811 240.866 37.09 241.493C37.2124 241.509 37.3041 241.646 37.2735 241.799C37.2582 241.937 37.1512 242.029 37.0441 242.029C37.0288 242.029 37.0288 242.029 37.0135 242.029C34.9943 241.692 32.8834 241.019 30.803 240.116C30.803 240.116 30.803 240.116 30.7877 240.116L15.3992 237.253C15.2768 237.222 15.2003 237.085 15.2156 236.947C15.2309 236.794 15.3533 236.702 15.4756 236.717L28.7991 239.197C27.5907 238.6 26.3975 237.942 25.235 237.253C25.1891 237.238 25.1585 237.222 25.1279 237.192Z" fill="#417F73"/>
<path d="M40.8224 246.484C40.8224 246.484 17.7396 236.06 11.2384 211.261C4.7373 186.463 9.31104 174.569 19.0704 183.478C28.8297 192.387 40.0117 230.013 40.8224 246.484Z" fill="#A4C931"/>
<path opacity="0.49" d="M26.5505 222.849C24.5925 218.409 22.9864 213.924 21.7167 209.944L12.9364 201.02C12.7987 200.882 12.7987 200.653 12.9517 200.515C13.1046 200.377 13.3188 200.377 13.4565 200.515L21.2578 208.46C18.0914 198.142 16.6229 189.6 16.6229 189.524C16.5923 189.325 16.7147 189.141 16.9135 189.111C17.1124 189.08 17.296 189.202 17.3266 189.401C17.3418 189.493 18.8103 198.081 22.0074 208.444C22.0533 208.567 22.0838 208.704 22.1297 208.827L24.1336 197.974C24.1642 197.775 24.3478 197.652 24.5466 197.683C24.7455 197.714 24.8679 197.897 24.8373 198.096L22.5886 210.266C23.6747 213.664 25.0208 217.399 26.6117 221.134L26.8106 209.592C26.8106 209.393 26.9788 209.24 27.1777 209.24C27.3765 209.24 27.5295 209.393 27.5295 209.592L27.3001 222.696C29.977 228.712 33.2964 234.62 37.3194 238.983C37.4571 239.121 37.4418 239.35 37.2888 239.488C37.1512 239.611 36.9523 239.611 36.8146 239.503C36.7994 239.488 36.7994 239.488 36.7841 239.473C34.6425 237.146 32.6998 234.391 30.9407 231.421C30.9407 231.421 30.9407 231.421 30.9254 231.406L14.925 213.389C14.8026 213.251 14.8179 213.021 14.9556 212.883C15.1085 212.746 15.3227 212.761 15.4603 212.914L29.2886 228.513C28.3402 226.722 27.453 224.869 26.627 223.017C26.5811 222.956 26.5658 222.91 26.5505 222.849Z" fill="#348273"/>
<path d="M103.861 246.836H35.7287C32.3329 246.836 29.5947 244.081 29.5947 240.698V124.651C29.5947 121.252 32.3481 118.512 35.7287 118.512H103.861C107.256 118.512 109.995 121.268 109.995 124.651V240.698C110.01 244.081 107.256 246.836 103.861 246.836Z" fill="#8CB8ED"/>
<path d="M107.883 246.836H39.7361C36.3402 246.836 33.6021 244.081 33.6021 240.698V124.651C33.6021 121.252 36.3555 118.512 39.7361 118.512H107.883C111.279 118.512 114.017 121.268 114.017 124.651V240.698C114.017 244.081 111.264 246.836 107.883 246.836Z" fill="#A6CAF4"/>
<path d="M103.524 142.193H44.2338C42.9489 142.193 41.9087 141.153 41.9087 139.867V128.769C41.9087 127.483 42.9489 126.442 44.2338 126.442H103.524C104.809 126.442 105.849 127.483 105.849 128.769V139.867C105.849 141.153 104.809 142.193 103.524 142.193Z" fill="#6796DB"/>
<path d="M52.1575 161.113H43.5454C42.6429 161.113 41.9087 160.379 41.9087 159.475V150.857C41.9087 149.954 42.6429 149.219 43.5454 149.219H52.1575C53.06 149.219 53.7943 149.954 53.7943 150.857V159.475C53.8096 160.379 53.0753 161.113 52.1575 161.113ZM69.4888 161.113H60.8767C59.9742 161.113 59.2399 160.379 59.2399 159.475V150.857C59.2399 149.954 59.9742 149.219 60.8767 149.219H69.4888C70.3913 149.219 71.1255 149.954 71.1255 150.857V159.475C71.1408 160.379 70.4066 161.113 69.4888 161.113ZM86.8353 161.113H78.2232C77.3207 161.113 76.5865 160.379 76.5865 159.475V150.857C76.5865 149.954 77.3207 149.219 78.2232 149.219H86.8353C87.7378 149.219 88.4721 149.954 88.4721 150.857V159.475C88.4721 160.379 87.7378 161.113 86.8353 161.113ZM104.167 161.113H95.5545C94.652 161.113 93.9177 160.379 93.9177 159.475V150.857C93.9177 149.954 94.652 149.219 95.5545 149.219H104.167C105.069 149.219 105.803 149.954 105.803 150.857V159.475C105.803 160.379 105.069 161.113 104.167 161.113ZM52.1575 178.013H43.5454C42.6429 178.013 41.9087 177.278 41.9087 176.375V167.757C41.9087 166.854 42.6429 166.119 43.5454 166.119H52.1575C53.06 166.119 53.7943 166.854 53.7943 167.757V176.375C53.8096 177.278 53.0753 178.013 52.1575 178.013ZM69.4888 178.013H60.8767C59.9742 178.013 59.2399 177.278 59.2399 176.375V167.757C59.2399 166.854 59.9742 166.119 60.8767 166.119H69.4888C70.3913 166.119 71.1255 166.854 71.1255 167.757V176.375C71.1408 177.278 70.4066 178.013 69.4888 178.013ZM86.8353 178.013H78.2232C77.3207 178.013 76.5865 177.278 76.5865 176.375V167.757C76.5865 166.854 77.3207 166.119 78.2232 166.119H86.8353C87.7378 166.119 88.4721 166.854 88.4721 167.757V176.375C88.4721 177.278 87.7378 178.013 86.8353 178.013ZM104.167 178.013H95.5545C94.652 178.013 93.9177 177.278 93.9177 176.375V167.757C93.9177 166.854 94.652 166.119 95.5545 166.119H104.167C105.069 166.119 105.803 166.854 105.803 167.757V176.375C105.803 177.278 105.069 178.013 104.167 178.013ZM52.1575 194.928H43.5454C42.6429 194.928 41.9087 194.193 41.9087 193.29V184.672C41.9087 183.769 42.6429 183.034 43.5454 183.034H52.1575C53.06 183.034 53.7943 183.769 53.7943 184.672V193.29C53.8096 194.193 53.0753 194.928 52.1575 194.928ZM69.4888 194.928H60.8767C59.9742 194.928 59.2399 194.193 59.2399 193.29V184.672C59.2399 183.769 59.9742 183.034 60.8767 183.034H69.4888C70.3913 183.034 71.1255 183.769 71.1255 184.672V193.29C71.1408 194.193 70.4066 194.928 69.4888 194.928ZM86.8353 194.928H78.2232C77.3207 194.928 76.5865 194.193 76.5865 193.29V184.672C76.5865 183.769 77.3207 183.034 78.2232 183.034H86.8353C87.7378 183.034 88.4721 183.769 88.4721 184.672V193.29C88.4721 194.193 87.7378 194.928 86.8353 194.928ZM104.167 194.928H95.5545C94.652 194.928 93.9177 194.193 93.9177 193.29V184.672C93.9177 183.769 94.652 183.034 95.5545 183.034H104.167C105.069 183.034 105.803 183.769 105.803 184.672V193.29C105.803 194.193 105.069 194.928 104.167 194.928Z" fill="#8CB8ED"/>
<path d="M176.306 13.6238C175.388 10.8684 172.849 9.01621 170.019 9.01621H164.834C164.834 9.01621 163.487 0 154.784 0C146.08 0 144.734 9.01621 144.734 9.01621H139.548C136.703 9.01621 134.179 10.8684 133.261 13.6238L130.859 20.7878H178.708L176.306 13.6238ZM154.784 11.2511C152.917 11.2511 151.403 9.70506 151.403 7.77629C151.403 5.86283 152.917 4.31676 154.784 4.31676C156.65 4.31676 158.164 5.86283 158.164 7.77629C158.164 9.68975 156.65 11.2511 154.784 11.2511Z" fill="#F49E14"/>
<path d="M218.433 246.836H94.2233C89.1142 246.836 84.9688 242.688 84.9688 237.575V29.9877C84.9688 24.8749 89.1142 20.7266 94.2233 20.7266H218.433C223.542 20.7266 227.688 24.8749 227.688 29.9877V237.575C227.688 242.688 223.542 246.836 218.433 246.836Z" fill="#496BCE"/>
<path d="M173.644 13.6238C172.727 10.8684 170.187 9.01621 167.358 9.01621H162.172C162.172 9.01621 160.826 0 152.122 0C143.418 0 142.072 9.01621 142.072 9.01621H136.886C134.041 9.01621 131.517 10.8684 130.599 13.6238L128.198 20.7878H176.046L173.644 13.6238ZM152.122 11.2511C150.256 11.2511 148.741 9.70506 148.741 7.77629C148.741 5.86283 150.256 4.31676 152.122 4.31676C153.988 4.31676 155.503 5.86283 155.503 7.77629C155.503 9.68975 153.988 11.2511 152.122 11.2511Z" fill="#FFB400"/>
<path d="M223.802 29.9877V237.575C223.802 242.688 219.657 246.836 214.548 246.836H90.338C89.4661 246.836 88.6401 246.714 87.8447 246.499C83.944 245.412 81.0835 241.83 81.0835 237.575V29.9877C81.0835 24.8749 85.2289 20.7266 90.338 20.7266H214.548C219.657 20.7266 223.802 24.8596 223.802 29.9877Z" fill="#6983CC"/>
<path d="M216.475 33.5551V233.994C216.475 236.565 214.44 238.662 211.917 238.662H92.9535C90.4448 238.662 88.395 236.581 88.395 233.994V33.5551C88.395 33.4632 88.395 33.3561 88.395 33.2642C88.548 30.815 90.5213 28.8862 92.9382 28.8862H211.917C214.333 28.8862 216.322 30.815 216.46 33.2642C216.475 33.3561 216.475 33.4632 216.475 33.5551Z" fill="#FAFCFF"/>
<path d="M216.475 33.2642H88.4102C88.5631 30.815 90.5364 28.8862 92.9533 28.8862H211.916C214.349 28.8862 216.322 30.8303 216.475 33.2642Z" fill="#CDDFF9"/>
<path d="M180.375 33.2636H124.511C123.088 33.2636 121.926 32.1156 121.926 30.6767V18.8438C121.926 17.4202 123.073 16.2568 124.511 16.2568H180.375C181.797 16.2568 182.96 17.4049 182.96 18.8438V30.6767C182.945 32.1156 181.797 33.2636 180.375 33.2636Z" fill="#F49E14"/>
<path d="M103.157 81.4221C108.189 98.3524 121.176 102.792 124.327 103.634C124.557 103.695 124.786 103.725 125.031 103.725C125.26 103.725 125.505 103.695 125.735 103.634C128.886 102.792 141.873 98.3524 146.905 81.4221C150.791 68.3494 151.234 61.6905 151.173 58.8892C151.143 57.8942 150.638 56.9758 149.827 56.4553L126.53 41.5303C126.071 41.2395 125.566 41.0864 125.046 41.0864C124.526 41.0864 124.021 41.2242 123.562 41.5303L100.265 56.4553C99.4548 56.9758 98.95 57.8942 98.9194 58.8892C98.8276 61.6905 99.2865 68.3494 103.157 81.4221Z" fill="#6983CC"/>
<path d="M125.031 44.1475V72.4666H146.171C148.007 64.7056 148.175 60.5879 148.129 58.9653C148.129 58.9194 148.114 58.8734 148.098 58.8581L125.23 44.2087C125.168 44.1628 125.107 44.1475 125.031 44.1475Z" fill="#8AB52D"/>
<path d="M103.891 72.4666H125.031V44.1475C124.955 44.1475 124.893 44.1628 124.832 44.2087L101.964 58.8581C101.948 58.8734 101.933 58.904 101.933 58.9653C101.887 60.5879 102.055 64.7056 103.891 72.4666Z" fill="#A4C931"/>
<path d="M125.031 72.4668V100.786C125.061 100.786 125.107 100.786 125.138 100.771C126.637 100.342 130.048 99.148 133.689 96.3008C138.553 92.5045 142.01 87.2387 143.968 80.6258C144.886 77.5489 145.605 74.8395 146.156 72.4668H125.031Z" fill="#6BA336"/>
<path d="M103.891 72.4668C104.457 74.8395 105.176 77.5489 106.078 80.6258C108.036 87.2387 111.508 92.5045 116.357 96.3008C119.998 99.148 123.409 100.342 124.924 100.771C124.954 100.786 125 100.786 125.031 100.786V72.4668H103.891Z" fill="#8AB52D"/>
<path d="M114.002 82.6619H111.31C110.759 82.6619 110.315 82.218 110.315 81.6669V76.202C110.315 75.651 110.759 75.207 111.31 75.207H114.002C114.553 75.207 114.996 75.651 114.996 76.202V81.6669C114.996 82.218 114.537 82.6619 114.002 82.6619ZM122.247 82.6619H119.555C119.004 82.6619 118.56 82.218 118.56 81.6669V70.5382C118.56 69.9871 119.004 69.5432 119.555 69.5432H122.247C122.798 69.5432 123.241 69.9871 123.241 70.5382V81.6669C123.241 82.218 122.798 82.6619 122.247 82.6619ZM130.507 82.6619H127.815C127.264 82.6619 126.821 82.218 126.821 81.6669V66.2674C126.821 65.7163 127.264 65.2724 127.815 65.2724H130.507C131.058 65.2724 131.501 65.7163 131.501 66.2674V81.6669C131.501 82.218 131.043 82.6619 130.507 82.6619ZM138.752 82.6619H136.06C135.509 82.6619 135.066 82.218 135.066 81.6669V62.1649C135.066 61.6138 135.509 61.1699 136.06 61.1699H138.752C139.303 61.1699 139.746 61.6138 139.746 62.1649V81.6669C139.746 82.218 139.303 82.6619 138.752 82.6619Z" fill="#FAFCFF"/>
<path d="M110.484 69.4361L132.511 56.4093C132.603 56.3634 132.634 56.2563 132.588 56.1644L132.022 54.9551C131.945 54.802 132.098 54.6336 132.266 54.6796L136.045 55.5827C136.167 55.6133 136.244 55.7511 136.182 55.8583L134.5 59.0729C134.423 59.2106 134.209 59.2259 134.133 59.0729L133.521 58.0013C133.46 57.9095 133.337 57.8636 133.23 57.9248L111.096 70.4465C110.989 70.5077 110.866 70.4771 110.805 70.3699L110.407 69.6964C110.361 69.6198 110.392 69.4974 110.484 69.4361Z" fill="#FAFCFF"/>
<path d="M206.334 55.2599H160.306C159.908 55.2599 159.571 54.9385 159.571 54.5252V51.1269C159.571 50.7289 159.893 50.3921 160.306 50.3921H206.334C206.731 50.3921 207.068 50.7135 207.068 51.1269V54.5252C207.068 54.9385 206.747 55.2599 206.334 55.2599ZM181.155 63.6791H160.122C159.816 63.6791 159.571 63.4342 159.571 63.1281V62.8984C159.571 62.5923 159.816 62.3474 160.122 62.3474H181.155C181.461 62.3474 181.706 62.5923 181.706 62.8984V63.1281C181.706 63.4342 181.461 63.6791 181.155 63.6791ZM201.163 63.6791H186.754C186.448 63.6791 186.203 63.4342 186.203 63.1281V62.8984C186.203 62.5923 186.448 62.3474 186.754 62.3474H201.163C201.469 62.3474 201.714 62.5923 201.714 62.8984V63.1281C201.714 63.4342 201.469 63.6791 201.163 63.6791ZM174.547 69.542H160.137C159.831 69.542 159.587 69.2971 159.587 68.9909V68.7613C159.587 68.4551 159.831 68.2102 160.137 68.2102H174.547C174.853 68.2102 175.098 68.4551 175.098 68.7613V68.9909C175.098 69.2971 174.853 69.542 174.547 69.542Z" fill="#CDDFF9"/>
<path d="M206.334 82.2336H160.306C159.908 82.2336 159.571 81.9121 159.571 81.4988V78.1005C159.571 77.7025 159.893 77.3657 160.306 77.3657H206.334C206.731 77.3657 207.068 77.6872 207.068 78.1005V81.4988C207.068 81.9121 206.747 82.2336 206.334 82.2336ZM181.155 90.6528H160.122C159.816 90.6528 159.571 90.4078 159.571 90.1017V89.8721C159.571 89.5659 159.816 89.321 160.122 89.321H181.155C181.461 89.321 181.706 89.5659 181.706 89.8721V90.1017C181.706 90.4078 181.461 90.6528 181.155 90.6528ZM201.163 90.6528H186.754C186.448 90.6528 186.203 90.4078 186.203 90.1017V89.8721C186.203 89.5659 186.448 89.321 186.754 89.321H201.163C201.469 89.321 201.714 89.5659 201.714 89.8721V90.1017C201.714 90.4078 201.469 90.6528 201.163 90.6528ZM174.547 96.5156H160.137C159.831 96.5156 159.587 96.2707 159.587 95.9645V95.7349C159.587 95.4288 159.831 95.1838 160.137 95.1838H174.547C174.853 95.1838 175.098 95.4288 175.098 95.7349V95.9645C175.098 96.2707 174.853 96.5156 174.547 96.5156Z" fill="#CDDFF9"/>
<path d="M169.912 127.558H132.771C132.465 127.558 132.221 127.314 132.221 127.007V126.9C132.221 126.594 132.465 126.349 132.771 126.349H169.897C170.203 126.349 170.447 126.594 170.447 126.9V127.007C170.447 127.314 170.203 127.558 169.912 127.558ZM204.483 127.558H178.784C178.478 127.558 178.233 127.314 178.233 127.007V126.9C178.233 126.594 178.478 126.349 178.784 126.349H204.483C204.789 126.349 205.033 126.594 205.033 126.9V127.007C205.033 127.314 204.789 127.558 204.483 127.558ZM158.485 132.84H132.787C132.481 132.84 132.236 132.595 132.236 132.288V132.181C132.236 131.875 132.481 131.63 132.787 131.63H158.485C158.791 131.63 159.036 131.875 159.036 132.181V132.288C159.036 132.595 158.791 132.84 158.485 132.84Z" fill="#CDDFF9"/>
<path d="M170.447 154.73V154.837C170.447 155.143 170.203 155.388 169.897 155.388H132.771C132.465 155.388 132.221 155.143 132.221 154.837V154.73C132.221 154.424 132.465 154.179 132.771 154.179H169.897C170.203 154.179 170.447 154.424 170.447 154.73ZM204.483 155.373H178.784C178.478 155.373 178.233 155.128 178.233 154.822V154.715C178.233 154.409 178.478 154.164 178.784 154.164H204.483C204.789 154.164 205.033 154.409 205.033 154.715V154.822C205.033 155.128 204.789 155.373 204.483 155.373ZM159.021 160.011V160.118C159.021 160.424 158.776 160.669 158.47 160.669H132.771C132.465 160.669 132.221 160.424 132.221 160.118V160.011C132.221 159.705 132.465 159.46 132.771 159.46H158.47C158.776 159.46 159.021 159.705 159.021 160.011Z" fill="#CDDFF9"/>
<path d="M120.732 129.9C120.732 134.844 116.725 138.839 111.799 138.839C106.858 138.839 102.866 134.829 102.866 129.9C102.866 128.874 103.034 127.91 103.355 126.991C104.564 123.47 107.898 120.96 111.814 120.96C115.409 120.96 118.499 123.072 119.922 126.134C120.442 127.282 120.732 128.553 120.732 129.9Z" fill="#A4C931"/>
<path d="M110.346 133.406C110.009 133.406 109.673 133.284 109.428 133.054L106.766 130.666C106.399 130.329 106.369 129.763 106.705 129.38C107.042 129.013 107.608 128.982 107.99 129.319L110.33 131.431L114.981 126.12C115.317 125.737 115.883 125.706 116.266 126.028C116.648 126.365 116.679 126.931 116.357 127.314L111.417 132.962C111.172 133.238 110.835 133.406 110.453 133.437C110.392 133.406 110.361 133.406 110.346 133.406Z" fill="#FAFCFF"/>
<path d="M111.799 166.668C116.733 166.668 120.732 162.666 120.732 157.729C120.732 152.791 116.733 148.789 111.799 148.789C106.865 148.789 102.866 152.791 102.866 157.729C102.866 162.666 106.865 166.668 111.799 166.668Z" fill="#A4C931"/>
<path d="M110.346 161.235C110.009 161.235 109.673 161.113 109.428 160.883L106.766 158.495C106.399 158.158 106.369 157.592 106.705 157.209C107.042 156.842 107.608 156.811 107.99 157.148L110.33 159.26L114.981 153.949C115.317 153.566 115.883 153.535 116.266 153.857C116.648 154.194 116.679 154.76 116.357 155.143L111.417 160.791C111.172 161.067 110.835 161.235 110.453 161.266C110.392 161.235 110.361 161.235 110.346 161.235Z" fill="#FAFCFF"/>
<path d="M216.475 171.722V233.993C216.475 236.565 214.44 238.662 211.917 238.662H92.9535C90.4448 238.662 88.395 236.58 88.395 233.993V171.722H216.475Z" fill="#F3F8FF"/>
<path d="M170.447 182.544V182.651C170.447 182.957 170.203 183.202 169.897 183.202H132.771C132.465 183.202 132.221 182.957 132.221 182.651V182.544C132.221 182.238 132.465 181.993 132.771 181.993H169.897C170.203 182.008 170.447 182.253 170.447 182.544ZM204.483 183.202H178.784C178.478 183.202 178.233 182.957 178.233 182.651V182.544C178.233 182.238 178.478 181.993 178.784 181.993H204.483C204.789 181.993 205.033 182.238 205.033 182.544V182.651C205.033 182.957 204.789 183.202 204.483 183.202ZM158.485 188.483H132.787C132.481 188.483 132.236 188.238 132.236 187.932V187.825C132.236 187.519 132.481 187.274 132.787 187.274H158.485C158.791 187.274 159.036 187.519 159.036 187.825V187.932C159.036 188.238 158.791 188.483 158.485 188.483Z" fill="#CDDFF9"/>
<path d="M120.732 185.545C120.732 190.49 116.725 194.485 111.799 194.485C106.858 194.485 102.866 190.474 102.866 185.545C102.866 180.601 106.873 176.605 111.799 176.605C116.74 176.605 120.732 180.616 120.732 185.545Z" fill="#6BA336"/>
<path d="M110.346 189.05C110.009 189.05 109.673 188.928 109.428 188.698L106.766 186.31C106.399 185.973 106.369 185.407 106.705 185.024C107.042 184.657 107.608 184.626 107.99 184.963L110.33 187.075L114.981 181.764C115.317 181.381 115.883 181.35 116.266 181.672C116.648 182.009 116.679 182.575 116.357 182.958L111.417 188.606C111.172 188.882 110.835 189.05 110.453 189.081C110.392 189.05 110.361 189.05 110.346 189.05Z" fill="#FAFCFF"/>
<path d="M105.237 112.542H91.8369V116.201H105.237V112.542Z" fill="#CDDFF9"/>
<path d="M120.687 112.542H107.287V116.201H120.687V112.542Z" fill="#CDDFF9"/>
<path d="M136.152 112.542H122.752V116.201H136.152V112.542Z" fill="#CDDFF9"/>
<path d="M151.616 112.542H138.216V116.201H151.616V112.542Z" fill="#CDDFF9"/>
<path d="M167.082 112.542H153.682V116.201H167.082V112.542Z" fill="#CDDFF9"/>
<path d="M182.531 112.542H169.131V116.201H182.531V112.542Z" fill="#CDDFF9"/>
<path d="M197.996 112.542H184.596V116.201H197.996V112.542Z" fill="#CDDFF9"/>
<path d="M213.461 112.542H200.062V116.201H213.461V112.542Z" fill="#CDDFF9"/>
<path d="M261.372 247.418C258.985 248.459 256.752 247.296 252.76 247.617C251.398 247.724 248.813 246.699 246.488 247.28C242.006 248.383 236.086 249.653 229.998 248.459C220.728 246.622 221.998 246.699 218.357 247.418C214.716 248.138 214.395 245.903 214.717 241.923C215.038 237.943 217.99 212.486 219.137 206.317C220.285 200.163 227.459 193.137 232.4 191.867C232.4 191.867 224.598 185.177 229.05 181.182C232.629 177.983 234.373 179.789 237.799 179.896C238.641 179.927 239.574 179.85 240.675 179.559C246.258 178.151 248.477 179.269 249.593 181.182C250.71 183.095 245.616 191.224 245.616 191.224C245.616 191.224 259.154 203.853 260.117 211.966C261.066 220.079 261.708 231.253 261.708 231.253C261.708 231.253 263.758 246.393 261.372 247.418Z" fill="#FFB400"/>
<path d="M246.488 247.28C242.006 248.382 236.086 249.653 229.998 248.459C220.728 246.622 221.998 246.698 218.357 247.418C214.716 248.137 214.395 245.902 214.717 241.922C215.038 237.942 217.99 212.486 219.137 206.317C220.285 200.163 227.459 193.137 232.4 191.866C232.4 191.866 224.598 185.177 229.05 181.182C232.629 177.982 234.373 179.789 237.799 179.896C237.769 180.202 237.784 180.416 237.83 180.554C238.381 182.131 240.017 184.702 241.425 185.299C242.832 185.881 239.344 186.999 239.513 189.432C239.666 191.866 239.054 198.204 234.205 203.362C229.356 208.521 234.633 209.761 231.589 213.68C228.545 217.599 228.927 225.406 234.419 227.748C239.91 230.09 239.207 232.202 237.448 235.952C235.688 239.703 234.052 242.963 236.163 243.928C237.34 244.479 242.388 246.04 246.488 247.28Z" fill="#F49E14"/>
<path d="M244.53 189.892L244.499 190.045L244.621 190.015C244.576 189.923 244.53 189.892 244.53 189.892Z" fill="#FCFCFC"/>
<path d="M251.566 194.271C247.635 192.25 246.992 189.434 246.992 189.434L244.621 190.015C244.774 190.199 245.08 190.551 245.509 191.041L245.004 191.577C245.004 191.577 250.97 198.664 250.174 201.695C249.379 204.726 246.426 206.563 244.361 202.568C242.296 198.588 244.117 192.128 244.117 192.128L244.484 190.046L242.832 190.444C242.832 190.444 237.417 206.303 243.306 208.936C249.195 211.568 255.406 206.073 253.188 200.654C252.53 199.047 251.627 197.501 250.694 196.108C251.321 196.582 251.918 196.98 252.438 197.195C255.299 198.419 258.909 196.72 258.909 196.72V194.485C258.954 194.47 255.497 196.276 251.566 194.271Z" fill="#EF7F18"/>
<path d="M230.442 190.489C230.442 190.489 233.945 187.994 239.834 188.147C245.723 188.3 247.268 189.051 247.421 189.311C247.574 189.586 248.109 191.714 247.635 192.235C247.161 192.755 246.58 192.77 240.308 192.663C234.036 192.556 231.39 192.663 230.748 192.02C230.12 191.393 230.442 190.489 230.442 190.489Z" fill="#CC673B"/>
<path d="M249.379 221.61C249.379 227.58 244.53 232.432 238.564 232.432C232.598 232.432 227.749 227.58 227.749 221.61C227.749 220.615 227.887 219.65 228.131 218.732C229.386 214.155 233.577 210.787 238.564 210.787C243.535 210.787 247.727 214.155 248.996 218.732C249.241 219.65 249.379 220.615 249.379 221.61Z" fill="#EF7F18"/>
<path d="M238.564 229.034C242.661 229.034 245.983 225.711 245.983 221.61C245.983 217.51 242.661 214.186 238.564 214.186C234.467 214.186 231.145 217.51 231.145 221.61C231.145 225.711 234.467 229.034 238.564 229.034Z" fill="#F49E14"/>
<path d="M238.916 216.574V217.477C239.558 217.523 240.078 217.753 240.476 218.135C240.828 218.472 241.057 218.916 241.18 219.452L239.941 219.804C239.818 218.993 239.482 218.549 238.916 218.487V220.998C239.849 221.243 240.491 221.595 240.843 222.008C241.149 222.376 241.302 222.85 241.302 223.462C241.302 224.197 241.042 224.764 240.506 225.177C240.093 225.498 239.558 225.682 238.9 225.728V226.662H238.365V225.728C236.988 225.667 236.147 224.947 235.826 223.57L237.034 223.156C237.187 224.09 237.646 224.61 238.365 224.733V222.039C237.478 221.809 236.851 221.472 236.499 221.028C236.208 220.676 236.055 220.217 236.055 219.651C236.055 218.947 236.315 218.411 236.82 217.998C237.233 217.676 237.753 217.492 238.365 217.462V216.559H238.916V216.574ZM238.365 218.457C238.013 218.487 237.738 218.61 237.539 218.824C237.355 219.023 237.264 219.283 237.264 219.605C237.264 219.957 237.355 220.232 237.554 220.431C237.722 220.615 237.998 220.753 238.38 220.845V218.457H238.365ZM238.916 222.161V224.733C239.313 224.702 239.619 224.549 239.818 224.289C239.986 224.075 240.078 223.784 240.078 223.447C240.078 223.095 239.971 222.819 239.772 222.62C239.589 222.452 239.313 222.299 238.916 222.161Z" fill="#FAFCFF"/>
<path d="M218.907 241.051C221.171 242.444 223.695 243.393 226.265 244.021C229.003 244.694 231.803 245 234.602 245.184C236.239 245.291 237.875 245.353 239.512 245.414C239.818 245.429 239.818 244.955 239.512 244.939C236.636 244.832 233.761 244.725 230.915 244.373C228.269 244.051 225.623 243.5 223.114 242.567C221.722 242.046 220.391 241.418 219.137 240.638C218.877 240.485 218.647 240.883 218.907 241.051ZM220.651 245.858C222.777 246.225 224.934 246.317 227.091 246.149C227.382 246.118 227.397 245.659 227.091 245.674C224.98 245.842 222.854 245.751 220.774 245.398C220.483 245.353 220.361 245.796 220.651 245.858ZM251.489 241.786C249.715 242.444 247.925 243.118 246.151 243.776C245.876 243.883 245.998 244.327 246.273 244.22C248.048 243.562 249.837 242.888 251.612 242.23C251.887 242.138 251.765 241.679 251.489 241.786ZM232.017 194.301C230.579 195.771 229.156 197.256 227.718 198.725C227.504 198.94 227.841 199.276 228.055 199.062C229.493 197.593 230.915 196.108 232.353 194.638C232.567 194.409 232.231 194.087 232.017 194.301ZM230.411 186.938C230.594 187.291 230.778 187.627 230.961 187.979C231.022 188.087 231.175 188.132 231.282 188.056C231.39 187.979 231.435 187.857 231.359 187.734C231.175 187.382 230.992 187.046 230.808 186.694C230.747 186.586 230.594 186.54 230.487 186.617C230.38 186.694 230.349 186.831 230.411 186.938ZM232.231 183.999C232.629 185.01 232.827 186.081 232.797 187.168C232.797 187.474 233.256 187.474 233.271 187.168C233.302 186.035 233.103 184.918 232.69 183.862C232.644 183.739 232.537 183.663 232.399 183.693C232.277 183.739 232.185 183.877 232.231 183.999Z" fill="#EF7F18"/>
<path d="M58.7194 181.442C58.7194 189.142 52.4783 195.387 44.784 195.387C37.0897 195.387 30.8486 189.142 30.8486 181.442C30.8486 180.156 31.0169 178.916 31.3534 177.722C32.9749 171.829 38.3746 167.497 44.784 167.497C51.1933 167.497 56.5931 171.829 58.2146 177.722C58.5511 178.916 58.7194 180.156 58.7194 181.442Z" fill="#EF7F18"/>
<path d="M61.6715 181.442C61.6715 189.142 55.4304 195.387 47.7361 195.387C40.0419 195.387 33.8008 189.142 33.8008 181.442C33.8008 180.156 33.969 178.916 34.3056 177.722C35.927 171.829 41.3268 167.497 47.7361 167.497C54.1455 167.497 59.5453 171.829 61.1667 177.722C61.5032 178.916 61.6715 180.156 61.6715 181.442Z" fill="#F49E14"/>
<path d="M61.1668 177.722C59.5453 183.616 54.1456 187.948 47.7362 187.948C41.3269 187.948 35.9271 183.616 34.3057 177.722C35.9271 171.829 41.3269 167.497 47.7362 167.497C54.1456 167.497 59.5453 171.829 61.1668 177.722Z" fill="#FFB400"/>
<path d="M47.7361 190.994C53.0078 190.994 57.2813 186.718 57.2813 181.442C57.2813 176.167 53.0078 171.89 47.7361 171.89C42.4644 171.89 38.1909 176.167 38.1909 181.442C38.1909 186.718 42.4644 190.994 47.7361 190.994Z" fill="#EF7F18"/>
<path d="M56.0425 181.441C56.0425 186.034 52.3254 189.754 47.7363 189.754C43.1473 189.754 39.4302 186.034 39.4302 181.441C39.4302 180.202 39.7055 179.038 40.1797 177.982C41.4952 175.119 44.3863 173.129 47.7363 173.129C51.0863 173.129 53.9774 175.119 55.2929 177.982C55.7824 179.038 56.0425 180.202 56.0425 181.441Z" fill="#F49E14"/>
<path d="M55.2929 177.982C53.9774 180.844 51.0863 182.834 47.7363 182.834C44.3863 182.834 41.4952 180.844 40.1797 177.982C41.4952 175.119 44.3863 173.129 47.7363 173.129C51.0863 173.129 53.9774 175.119 55.2929 177.982Z" fill="#FFB400"/>
<path d="M48.18 174.951V176.114C49.006 176.175 49.679 176.466 50.1991 176.956C50.6427 177.385 50.9487 177.951 51.1016 178.655L49.5108 179.099C49.3578 178.058 48.9142 177.492 48.18 177.4V180.63C49.3731 180.951 50.1991 181.395 50.658 181.946C51.0558 182.406 51.2546 183.033 51.2546 183.829C51.2546 184.778 50.9181 185.513 50.2297 186.033C49.6943 186.447 49.006 186.692 48.1647 186.753V187.947H47.461V186.753C45.6866 186.676 44.6005 185.743 44.1875 183.967L45.7325 183.446C45.9313 184.64 46.5126 185.329 47.461 185.482V182.008C46.329 181.717 45.5183 181.273 45.0441 180.706C44.6617 180.247 44.4781 179.65 44.4781 178.931C44.4781 178.028 44.8147 177.323 45.4724 176.803C46.0078 176.39 46.6656 176.145 47.461 176.114V174.951H48.18ZM47.4916 177.385C47.0327 177.415 46.6809 177.568 46.4208 177.859C46.1914 178.119 46.069 178.456 46.069 178.854C46.069 179.313 46.1914 179.665 46.4361 179.926C46.6656 180.155 47.0174 180.339 47.4916 180.461V177.385ZM48.18 182.145V185.467C48.7001 185.421 49.0825 185.237 49.3425 184.901C49.572 184.61 49.679 184.258 49.679 183.829C49.679 183.385 49.5414 183.018 49.2813 182.758C49.0672 182.528 48.7001 182.329 48.18 182.145Z" fill="#FAFCFF"/>
<path d="M64.2722 214.169H28.1565C27.4529 214.169 26.8716 213.602 26.8716 212.883V208.842C26.8716 208.137 27.4376 207.556 28.1565 207.556H64.2722C64.9759 207.556 65.5571 208.122 65.5571 208.842V212.883C65.5571 213.602 64.9759 214.169 64.2722 214.169Z" fill="#FFB400"/>
<path d="M33.9849 207.571H31.415V214.168H33.9849V207.571Z" fill="#F49E14"/>
<path d="M37.1358 207.571H35.5449V214.168H37.1358V207.571Z" fill="#F49E14"/>
<path d="M51.5148 207.571H42.3062V214.168H51.5148V207.571Z" fill="#F49E14"/>
<path d="M60.3562 207.694H24.2405C23.5368 207.694 22.9556 207.128 22.9556 206.408V202.367C22.9556 201.663 23.5215 201.081 24.2405 201.081H60.3562C61.0598 201.081 61.6411 201.647 61.6411 202.367V206.408C61.6411 207.128 61.0598 207.694 60.3562 207.694Z" fill="#F49E14"/>
<path d="M30.0689 201.096H27.499V207.694H30.0689V201.096Z" fill="#EF7F18"/>
<path d="M33.2198 201.096H31.6289V207.694H33.2198V201.096Z" fill="#EF7F18"/>
<path d="M47.5988 201.096H38.3901V207.694H47.5988V201.096Z" fill="#EF7F18"/>
<path d="M64.1194 227.241H28.0037C27.3 227.241 26.7188 226.674 26.7188 225.955V221.914C26.7188 221.21 27.2847 220.628 28.0037 220.628H64.1194C64.823 220.628 65.4043 221.194 65.4043 221.914V225.955C65.389 226.674 64.823 227.241 64.1194 227.241Z" fill="#FFB400"/>
<path d="M33.8321 220.644H31.2622V227.241H33.8321V220.644Z" fill="#F49E14"/>
<path d="M36.9678 220.644H35.377V227.241H36.9678V220.644Z" fill="#F49E14"/>
<path d="M51.3468 220.644H42.1382V227.241H51.3468V220.644Z" fill="#F49E14"/>
<path d="M68.8157 220.766H32.7C31.9963 220.766 31.415 220.2 31.415 219.48V215.439C31.415 214.735 31.981 214.153 32.7 214.153H68.8157C69.5193 214.153 70.1006 214.72 70.1006 215.439V219.48C70.1006 220.2 69.5193 220.766 68.8157 220.766Z" fill="#F49E14"/>
<path d="M38.5279 214.169H35.958V220.767H38.5279V214.169Z" fill="#EF7F18"/>
<path d="M41.6788 214.169H40.0879V220.767H41.6788V214.169Z" fill="#EF7F18"/>
<path d="M56.0578 214.169H46.8491V220.767H56.0578V214.169Z" fill="#EF7F18"/>
<path d="M64.1194 240.315H28.0037C27.3 240.315 26.7188 239.749 26.7188 239.029V234.988C26.7188 234.284 27.2847 233.702 28.0037 233.702H64.1194C64.823 233.702 65.4043 234.269 65.4043 234.988V239.029C65.389 239.749 64.823 240.315 64.1194 240.315Z" fill="#FFB400"/>
<path d="M33.8321 233.718H31.2622V240.315H33.8321V233.718Z" fill="#F49E14"/>
<path d="M36.9678 233.718H35.377V240.315H36.9678V233.718Z" fill="#F49E14"/>
<path d="M51.3468 233.718H42.1382V240.315H51.3468V233.718Z" fill="#F49E14"/>
<path d="M68.8157 233.855H32.7C31.9963 233.855 31.415 233.289 31.415 232.569V228.528C31.415 227.824 31.981 227.242 32.7 227.242H68.8157C69.5193 227.242 70.1006 227.809 70.1006 228.528V232.569C70.1006 233.273 69.5193 233.855 68.8157 233.855Z" fill="#F49E14"/>
<path d="M38.5279 227.242H35.958V233.84H38.5279V227.242Z" fill="#EF7F18"/>
<path d="M41.6788 227.242H40.0879V233.84H41.6788V227.242Z" fill="#EF7F18"/>
<path d="M56.0578 227.242H46.8491V233.84H56.0578V227.242Z" fill="#EF7F18"/>
<path d="M61.4729 246.836H25.3572C24.6535 246.836 24.0723 246.269 24.0723 245.55V241.508C24.0723 240.804 24.6382 240.223 25.3572 240.223H61.4729C62.1765 240.223 62.7578 240.789 62.7578 241.508V245.55C62.7578 246.254 62.1765 246.836 61.4729 246.836Z" fill="#F49E14"/>
<path d="M31.1851 240.238H28.6152V246.835H31.1851V240.238Z" fill="#EF7F18"/>
<path d="M34.3365 240.238H32.7456V246.835H34.3365V240.238Z" fill="#EF7F18"/>
<path d="M48.7155 240.238H39.5068V246.835H48.7155V240.238Z" fill="#EF7F18"/>
<path d="M66.7353 201.095H30.6043C29.9006 201.095 29.3193 200.529 29.3193 199.809V195.768C29.3193 195.064 29.8853 194.482 30.6043 194.482H66.7353C67.4389 194.482 68.0202 195.049 68.0202 195.768V199.809C68.0049 200.529 67.4389 201.095 66.7353 201.095Z" fill="#FFB400"/>
<path d="M36.4478 194.499H33.8779V201.096H36.4478V194.499Z" fill="#F49E14"/>
<path d="M39.5835 194.499H37.9927V201.096H39.5835V194.499Z" fill="#F49E14"/>
<path d="M53.9626 194.499H44.7539V201.096H53.9626V194.499Z" fill="#F49E14"/>
<path d="M120.259 240.315H103.493L103.861 246.484H87.8295C83.9289 245.397 81.0684 241.815 81.0684 237.559V204.388L88.3955 155.771V233.993C88.3955 236.564 90.43 238.661 92.954 238.661H120.335L120.259 240.315Z" fill="#496BCE"/>
<path d="M202.999 246.622H186.448L185.208 238.662H201.668L202.999 246.622Z" fill="#496BCE"/>
<path d="M169.897 182.009H159.005L159.082 183.203H169.897C170.203 183.203 170.447 182.958 170.447 182.651V182.544C170.447 182.253 170.203 182.009 169.897 182.009ZM169.897 154.179H149.108L151.005 155.373H169.897C170.203 155.373 170.447 155.128 170.447 154.822V154.715C170.447 154.424 170.203 154.179 169.897 154.179ZM159.021 160.011C159.021 159.705 158.776 159.46 158.47 159.46H157.506L157.583 160.654H158.47C158.776 160.654 159.021 160.409 159.021 160.103V160.011Z" fill="#A6CAF4"/>
<path d="M178.677 101.964L149.98 124.574L119.907 126.135C120.442 127.283 120.733 128.554 120.733 129.901C120.733 134.845 116.725 138.841 111.799 138.841C106.859 138.841 102.866 134.83 102.866 129.901C102.866 128.875 103.034 127.911 103.356 126.992L92.6631 127.543L88.4106 155.771V233.993C88.4106 236.565 90.4451 238.662 92.9691 238.662H120.35L125.429 139.284L149.124 154.179H169.912C170.218 154.179 170.463 154.424 170.463 154.73V154.837C170.463 155.143 170.218 155.388 169.912 155.388H151.005L157.506 159.475H158.47C158.776 159.475 159.021 159.72 159.021 160.026V160.133C159.021 160.44 158.776 160.685 158.47 160.685H157.583L159.005 182.023H169.897C170.203 182.023 170.447 182.268 170.447 182.574V182.682C170.447 182.988 170.203 183.233 169.897 183.233H159.082L162.784 238.692L162.937 241.08L169.591 240.055L169.728 238.708L175.679 178.059L185.209 238.708H201.668L178.677 101.964ZM111.799 194.499C106.859 194.499 102.866 190.489 102.866 185.559C102.866 180.615 106.874 176.62 111.799 176.62C116.74 176.62 120.733 180.63 120.733 185.559C120.733 190.489 116.74 194.499 111.799 194.499ZM111.799 166.67C106.859 166.67 102.866 162.659 102.866 157.73C102.866 152.786 106.874 148.79 111.799 148.79C116.74 148.79 120.733 152.801 120.733 157.73C120.733 162.675 116.74 166.67 111.799 166.67Z" fill="#CDDFF9"/>
<g opacity="0.47">
<path d="M120.733 185.544C120.733 190.489 116.725 194.484 111.8 194.484C106.859 194.484 102.866 190.473 102.866 185.544C102.866 180.6 106.874 176.604 111.8 176.604C116.74 176.604 120.733 180.615 120.733 185.544Z" fill="#417F73"/>
<path d="M111.8 166.669C116.733 166.669 120.733 162.667 120.733 157.73C120.733 152.792 116.733 148.79 111.8 148.79C106.866 148.79 102.866 152.792 102.866 157.73C102.866 162.667 106.866 166.669 111.8 166.669Z" fill="#417F73"/>
<path d="M102.851 129.901C102.851 128.875 103.019 127.911 103.341 126.992L119.907 126.135C120.442 127.283 120.733 128.554 120.733 129.901C120.733 134.845 116.725 138.841 111.8 138.841C106.859 138.856 102.851 134.845 102.851 129.901Z" fill="#417F73"/>
</g>
<path d="M141.842 213.418C141.842 221.118 135.601 227.363 127.907 227.363C120.213 227.363 113.972 221.118 113.972 213.418C113.972 212.132 114.14 210.892 114.476 209.698C116.098 203.805 121.498 199.473 127.907 199.473C134.316 199.473 139.716 203.805 141.338 209.698C141.674 210.892 141.842 212.132 141.842 213.418Z" fill="#EF7F18"/>
<path d="M144.795 213.418C144.795 221.118 138.553 227.363 130.859 227.363C123.165 227.363 116.924 221.118 116.924 213.418C116.924 212.132 117.092 210.892 117.429 209.698C119.05 203.805 124.45 199.473 130.859 199.473C137.269 199.473 142.668 203.805 144.29 209.698C144.611 210.892 144.795 212.132 144.795 213.418Z" fill="#F49E14"/>
<path d="M144.29 209.714C142.668 215.608 137.269 219.94 130.859 219.94C124.45 219.94 119.05 215.608 117.429 209.714C119.05 203.821 124.45 199.489 130.859 199.489C137.269 199.474 142.668 203.806 144.29 209.714Z" fill="#FFB400"/>
<path d="M140.142 215.639C141.354 210.505 138.177 205.36 133.046 204.148C127.915 202.936 122.774 206.115 121.563 211.249C120.351 216.383 123.528 221.528 128.659 222.741C133.789 223.953 138.931 220.774 140.142 215.639Z" fill="#EF7F18"/>
<path d="M139.166 213.418C139.166 218.01 135.449 221.73 130.86 221.73C126.271 221.73 122.554 218.01 122.554 213.418C122.554 212.178 122.829 211.015 123.303 209.958C124.619 207.096 127.51 205.106 130.86 205.106C134.21 205.106 137.101 207.096 138.416 209.958C138.891 211.015 139.166 212.193 139.166 213.418Z" fill="#F49E14"/>
<path d="M138.416 209.958C137.1 212.821 134.209 214.811 130.859 214.811C127.509 214.811 124.618 212.821 123.303 209.958C124.618 207.096 127.509 205.106 130.859 205.106C134.209 205.106 137.1 207.096 138.416 209.958Z" fill="#FFB400"/>
<path d="M131.303 206.928V208.092C132.129 208.153 132.802 208.444 133.322 208.934C133.781 209.362 134.072 209.929 134.225 210.633L132.634 211.077C132.481 210.036 132.037 209.469 131.303 209.377V212.607C132.496 212.929 133.322 213.373 133.781 213.924C134.179 214.383 134.378 215.011 134.378 215.807C134.378 216.756 134.041 217.49 133.353 218.011C132.817 218.424 132.129 218.669 131.288 218.73V219.924H130.584V218.73C128.81 218.654 127.724 217.72 127.311 215.944L128.856 215.424C129.054 216.618 129.636 217.307 130.584 217.46V213.985C129.452 213.694 128.641 213.25 128.167 212.684C127.785 212.225 127.601 211.628 127.601 210.908C127.601 210.005 127.938 209.301 128.595 208.78C129.131 208.367 129.789 208.122 130.584 208.092V206.928H131.303ZM130.599 209.362C130.14 209.393 129.789 209.546 129.529 209.837C129.299 210.097 129.177 210.434 129.177 210.832C129.177 211.291 129.299 211.643 129.544 211.903C129.773 212.133 130.125 212.317 130.599 212.439V209.362ZM131.303 214.123V217.445C131.823 217.399 132.206 217.215 132.466 216.878C132.695 216.587 132.802 216.235 132.802 215.807C132.802 215.347 132.664 214.995 132.404 214.735C132.19 214.506 131.808 214.307 131.303 214.123Z" fill="#FAFCFF"/>
<path d="M147.395 246.836H111.279C110.575 246.836 109.994 246.27 109.994 245.55V241.509C109.994 240.805 110.56 240.223 111.279 240.223H147.395C148.098 240.223 148.68 240.79 148.68 241.509V245.55C148.68 246.254 148.098 246.836 147.395 246.836Z" fill="#FFB400"/>
<path d="M117.107 240.238H114.538V246.836H117.107V240.238Z" fill="#F49E14"/>
<path d="M120.258 240.238H118.667V246.836H120.258V240.238Z" fill="#F49E14"/>
<path d="M134.622 240.238H125.414V246.836H134.622V240.238Z" fill="#F49E14"/>
<path d="M143.479 240.361H107.364C106.66 240.361 106.079 239.795 106.079 239.076V235.034C106.079 234.33 106.645 233.749 107.364 233.749H143.479C144.183 233.749 144.764 234.315 144.764 235.034V239.076C144.749 239.795 144.183 240.361 143.479 240.361Z" fill="#F49E14"/>
<path d="M113.191 233.763H110.622V240.361H113.191V233.763Z" fill="#EF7F18"/>
<path d="M116.327 233.763H114.736V240.361H116.327V233.763Z" fill="#EF7F18"/>
<path d="M130.706 233.763H121.498V240.361H130.706V233.763Z" fill="#EF7F18"/>
<path d="M149.843 233.764H113.727C113.023 233.764 112.442 233.197 112.442 232.478V228.437C112.442 227.733 113.008 227.151 113.727 227.151H149.843C150.546 227.151 151.127 227.717 151.127 228.437V232.478C151.127 233.182 150.546 233.764 149.843 233.764Z" fill="#FFB400"/>
<path d="M119.555 227.151H116.985V233.748H119.555V227.151Z" fill="#F49E14"/>
<path d="M122.707 227.151H121.116V233.748H122.707V227.151Z" fill="#F49E14"/>
<path d="M137.085 227.151H127.876V233.748H137.085V227.151Z" fill="#F49E14"/>
<path d="M112.167 145.652C112.167 145.652 112.213 154.087 111.968 154.99C111.723 155.878 110.163 159.123 109.581 159.246C109 159.368 106.476 159.001 106.476 159.001L106.461 147.03L112.167 145.652Z" fill="#FFC7D2"/>
<path d="M95.6153 99.5459C92.0358 101.077 92.8619 99.6072 88.6706 98.0152C84.4792 96.4232 82.1235 90.147 82.1235 90.147C82.1235 90.147 85.7183 88.0346 85.9018 87.1926C85.9936 86.7487 86.3913 85.6925 86.4525 83.7178C86.5137 81.9727 86.5443 80.4114 86.5443 80.4114L94.0091 80.3195L95.6 80.3042C95.6 80.3042 95.1258 81.4676 94.8046 82.7534C94.6363 83.4117 94.4986 84.1005 94.4833 84.6822C94.4527 85.8303 94.5139 86.3201 94.6822 87.1773C94.7587 87.606 96.7779 90.943 96.7779 90.943C96.7779 90.943 100.709 91.586 101.26 94.2495C101.795 96.913 99.1947 98.0152 95.6153 99.5459Z" fill="#FFC7D2"/>
<path d="M94.4686 84.6815C94.438 85.8296 94.6828 87.3298 94.8511 88.187C94.3463 89.9933 93.2296 91.2026 91.2869 89.5647C89.8796 88.386 88.0593 86.0286 86.4531 83.7172C86.5143 81.9721 86.5449 80.4107 86.5449 80.4107L94.0097 80.3188C94.331 81.1148 94.591 81.9568 94.7899 82.7528C94.6216 83.411 94.4839 84.0998 94.4686 84.6815Z" fill="#F47382"/>
<path d="M100.786 69.6041L86.805 83.6872C86.805 83.6872 83.5926 82.8759 81.497 79.7378C79.9214 77.3804 77.3668 72.2676 81.8029 65.073C82.0324 64.8894 96.4572 53.4545 100.587 68.9306C100.664 69.1602 100.725 69.3898 100.786 69.6041Z" fill="#112249"/>
<path d="M94.7588 61.2915C94.7588 61.2915 99.2407 62.1793 100.526 65.3327C101.811 68.4861 101.168 71.5323 101.168 71.5323L94.7588 61.2915Z" fill="#112249"/>
<path d="M82.4912 78.2379C82.5065 79.5391 85.2599 80.6259 85.2599 80.6259C85.2599 80.6259 86.5754 84.2232 87.1414 85.3713C87.5697 86.2591 93.2295 87.4378 96.3195 87.7287H96.3348C98.4763 87.8358 98.0327 86.0907 99.0117 84.7743C100.021 83.3966 101 79.784 101.077 79.5544C101.077 79.5391 101.077 79.5391 101.077 79.5391C101.138 79.0645 101.169 78.6359 101.153 78.2838C101.092 75.8346 100.19 74.7631 100.939 73.3088C101.689 71.8393 100.603 68.9002 100.603 68.9002L97.7115 68.8696C97.7115 68.8696 96.5642 70.3239 93.0918 70.3851C89.6348 70.431 86.7743 69.1146 86.2848 69.3442C85.7953 69.5891 86.8966 73.3548 86.8966 74.5641C86.8813 75.7887 87.6156 76.6153 86.5601 76.6765C85.5046 76.7531 84.4645 74.2885 83.1489 74.6865C81.8487 75.1458 82.4759 76.9368 82.4912 78.2379Z" fill="#FFC7D2"/>
<path d="M97.7112 68.9154C97.7112 68.9154 95.9674 67.3846 91.7302 67.553C87.493 67.7214 86.2998 69.3899 86.2998 69.3899C86.2998 69.3899 87.753 71.8544 92.6174 71.334C97.4817 70.8135 97.7112 68.9154 97.7112 68.9154Z" fill="#112249"/>
<path d="M85.3823 77.4428C85.3823 77.4428 83.6232 75.0089 83.2407 75.7437C82.8583 76.4632 83.6231 78.7593 84.0362 78.943C84.4492 79.1267 85.627 79.3716 85.1681 78.6675C84.7092 77.948 84.9693 77.7643 85.367 78.1011C85.7647 78.4378 85.7953 77.9786 85.3823 77.4428Z" fill="#E8677D"/>
<path d="M86.8962 74.9922C86.8962 74.9922 88.1505 80.105 88.5788 80.4264C89.0071 80.7326 92.1736 80.2274 93.6726 80.4264C95.1717 80.6254 96.7014 81.5592 96.7014 81.5592C96.7014 81.5592 97.6651 80.9316 98.4452 80.9316C99.2254 80.9316 99.9596 81.1153 100.327 81.0081C100.694 80.9009 100.801 80.5948 100.801 80.5948C100.801 80.5948 100.801 81.7122 100.801 81.9878C100.801 82.2633 99.0112 87.1159 97.9099 87.621C96.8238 88.1415 91.3934 87.8353 89.6496 86.9934C87.9058 86.1515 86.4373 84.4829 85.8713 83.2277C85.3053 81.9725 85.1064 80.5795 85.1064 80.5795C85.1064 80.5795 86.3302 80.7785 86.2843 80.258C86.2384 79.7376 85.6724 76.278 85.6724 76.278L86.8962 74.9922Z" fill="#112249"/>
<path d="M97.9561 75.727C97.9561 76.2934 98.2469 76.7526 98.6143 76.7526C98.9817 76.7526 99.2878 76.2934 99.2878 75.7423C99.2878 75.1759 98.997 74.7167 98.6296 74.7167C98.2622 74.7014 97.9714 75.1606 97.9561 75.727Z" fill="#13135D"/>
<path d="M91.5005 75.9571C91.5005 76.5235 91.7913 76.9827 92.1587 76.9827C92.5261 76.9827 92.8322 76.5235 92.8322 75.9724C92.8322 75.406 92.5414 74.9468 92.174 74.9468C91.8066 74.9468 91.5005 75.406 91.5005 75.9571Z" fill="#13135D"/>
<path d="M96.4416 77.0422C95.7533 78.2056 97.1759 78.4505 97.39 79.3537C97.5277 79.9354 97.0382 79.966 96.8087 80.364C96.6405 80.6702 96.2122 80.364 96.3957 80.0578C96.5028 79.8588 96.9005 79.6598 96.8393 79.3996C96.8087 79.2772 96.4875 79.0169 96.411 78.9404C96.258 78.772 96.0898 78.6189 95.9521 78.4352C95.5544 77.8995 95.7074 77.2872 96.0133 76.7361C96.1969 76.4146 96.6252 76.7361 96.4416 77.0422Z" fill="#E8677D"/>
<path d="M99.8831 73.844C99.9443 73.8747 99.3477 73.1399 98.9347 73.0634C98.5217 72.9868 98.1087 72.9409 97.9863 73.1552C97.9098 73.3083 97.6956 73.6604 97.9863 73.6604C98.231 73.6604 99.2712 73.5226 99.8831 73.844Z" fill="#13135D"/>
<path d="M92.8471 73.3714C92.8471 73.3714 92.9389 73.8153 92.8471 73.9378C92.7553 74.0603 92.2658 73.8919 91.7458 74.1674C91.2257 74.4583 90.7515 74.6726 90.7515 74.6726C90.7515 74.6726 91.0268 73.999 91.3633 73.601C91.7152 73.2183 92.8165 72.9734 92.8471 73.3714Z" fill="#13135D"/>
<path d="M97.757 75.2225C97.757 75.4062 97.91 75.5746 98.0935 75.5746C98.2771 75.5746 98.4454 75.4215 98.4454 75.2378C98.4454 75.0541 98.2924 74.8857 98.1088 74.8857C97.91 74.8857 97.757 75.0388 97.757 75.2225ZM91.3018 75.4521C91.3018 75.6358 91.4547 75.8042 91.6383 75.8042C91.8219 75.8042 91.9901 75.6511 91.9901 75.4674C91.9901 75.2837 91.8372 75.1154 91.6536 75.1154C91.47 75.1154 91.3171 75.2531 91.3018 75.4521Z" fill="#FCFCFC"/>
<path d="M94.9424 83.5806C95.1412 83.7337 95.3707 83.8562 95.646 83.9633C96.3344 84.2388 96.9768 84.1317 97.451 83.7643C97.8182 83.4735 98.0782 83.0295 98.17 82.4938C98.2006 82.2948 98.0629 82.1111 97.9099 82.1264C97.8946 82.1264 97.8793 82.1264 97.864 82.1417C97.5581 82.2488 97.0839 82.3713 96.4261 82.3254C95.5695 82.2795 94.4988 81.7896 94.0399 81.6978C93.8716 81.6672 93.7798 81.6978 93.7951 81.8049C93.841 82.1417 94.101 82.9836 94.9424 83.5806Z" fill="#C64662"/>
<path d="M94.0244 81.6973L94.1009 82.0646C94.1162 82.1412 94.9269 82.6004 95.9977 82.6923C97.0532 82.7688 97.665 82.5545 97.818 82.5086C97.8792 82.4933 97.9098 82.3096 97.9251 82.1259C97.9098 82.1259 97.8945 82.1259 97.8792 82.1412C97.5733 82.2483 97.0991 82.3708 96.4413 82.3249C95.5541 82.279 94.4986 81.7891 94.0244 81.6973Z" fill="#FCFCFC"/>
<path d="M94.9424 83.5788C95.1412 83.7319 95.3707 83.8544 95.646 83.9615C96.3344 84.2371 96.9768 84.1299 97.451 83.7625C97.1298 83.288 96.4874 83.0278 95.799 83.1502C95.4625 83.2268 95.1718 83.3798 94.9424 83.5788Z" fill="#E8677D"/>
<path d="M85.0762 75.7269L89.604 75.3442C89.604 75.3442 89.604 75.3442 89.6193 75.3442C89.8335 74.441 90.4607 73.6909 91.3479 73.4307L91.4549 73.7675C90.3536 74.1042 89.6958 75.3135 89.9559 76.5075C90.2312 77.7781 91.4244 78.6047 92.6175 78.3598C92.6787 78.3445 92.7246 78.3292 92.7705 78.3138C93.8718 77.9771 94.5296 76.7831 94.2696 75.5738C94.1319 74.9462 93.7801 74.4104 93.2753 74.0736C92.7705 73.7369 92.1892 73.6144 91.6079 73.7369C91.5467 73.7522 91.5008 73.7675 91.4549 73.7828L91.3479 73.446C91.4091 73.4307 91.4702 73.4154 91.5314 73.4001C92.8469 73.1092 94.1625 73.9665 94.5602 75.3135C94.7285 75.1452 95.1109 74.7931 95.6157 74.7625C95.9216 74.7472 96.2122 74.8543 96.4876 75.0992C96.717 74.2573 97.3442 73.5685 98.1855 73.3082L98.2926 73.645C97.1912 73.9818 96.5335 75.1911 96.7935 76.3851C97.0689 77.6556 98.262 78.4822 99.4552 78.2373C99.5164 78.222 99.5622 78.2067 99.6081 78.1914C100.709 77.8546 101.367 76.6606 101.107 75.4513C100.97 74.8237 100.618 74.2879 100.113 73.9512C99.6081 73.6144 99.0268 73.4919 98.4456 73.6144C98.3844 73.6297 98.3385 73.645 98.2926 73.6603L98.1855 73.3235C98.2467 73.3082 98.3079 73.2929 98.3691 73.2776C99.7458 72.9715 101.138 73.9205 101.459 75.3901C101.765 76.7984 101 78.1608 99.7152 78.5435C99.654 78.5588 99.5928 78.5741 99.5316 78.5894C98.1549 78.8955 96.7629 77.9465 96.4417 76.4769C96.3652 76.1402 96.3652 75.7881 96.3958 75.4666C96.3652 75.4666 96.3193 75.4513 96.304 75.4207C96.0899 75.2064 95.8604 75.0992 95.631 75.1145C95.1415 75.1452 94.7591 75.6197 94.7591 75.635C94.7285 75.6656 94.6979 75.6962 94.652 75.6962C94.8661 77.0433 94.1013 78.3138 92.8775 78.6812C92.8164 78.6965 92.7552 78.7118 92.694 78.7272C91.3173 79.0333 89.9253 78.0842 89.604 76.6147C89.5428 76.3085 89.5276 76.0177 89.5581 75.7269L85.1068 76.0942C85.015 76.1095 84.9232 76.033 84.9232 75.9259C84.9079 75.8187 84.9691 75.7269 85.0762 75.7269Z" fill="#FCFCFC"/>
<path d="M75.424 244.341C75.3781 245.427 75.3322 246.851 74.6439 246.82C73.9555 246.79 60.9226 246.82 60.9226 246.82C60.9226 246.82 60.066 244.494 60.4026 243.024C60.6473 241.968 62.6206 239.488 63.8902 237.467C63.9208 237.406 63.9667 237.345 63.9973 237.284C65.4658 237.697 67.072 237.927 68.7393 237.927C70.4219 237.927 72.0281 237.697 73.5272 237.284C73.5731 237.406 73.6037 237.544 73.6496 237.666C73.9555 238.6 74.3073 239.595 74.6133 240.146C75.1639 241.172 75.4699 243.254 75.424 244.341Z" fill="#1E377C"/>
<path d="M73.5118 237.284C72.028 237.713 70.4066 237.927 68.7239 237.927C67.0566 237.927 65.4657 237.697 63.9819 237.284C64.4255 236.549 64.7621 235.891 64.8691 235.386C65.2975 233.457 65.3433 225.313 65.3433 225.313L72.8541 227.395C72.8541 227.395 72.8082 234.666 73.0223 235.585C73.1294 235.968 73.2977 236.595 73.5118 237.284Z" fill="#FFC7D2"/>
<path d="M115.425 246.515C114.997 247.219 100.067 246.515 100.067 246.515L98.5067 244.05L97.9101 246.561H94.9731C94.9731 246.561 94.9731 243.882 95.1873 242.566C95.4015 241.249 96.5181 239.718 96.7017 237.545C96.717 237.392 96.717 237.208 96.717 236.994C96.7476 234.284 96.0439 227.656 96.0439 227.656L104.151 227.166L104.518 235.723C104.61 235.83 107.149 238.616 108.679 239.626C110.239 240.667 114.813 241.815 115.195 243.285C115.593 244.77 115.853 245.811 115.425 246.515Z" fill="#1E377C"/>
<path d="M100.924 239.137C99.5933 238.815 97.1764 237.116 96.7175 236.994C96.7481 234.284 96.0444 227.656 96.0444 227.656L104.152 227.166L104.519 235.723C104.519 235.723 102.591 236.733 101.903 237.116C101.215 237.499 102.071 238.54 102.637 239.029C103.219 239.519 102.27 239.473 100.924 239.137Z" fill="#FFC7D2"/>
<path d="M105.834 140.34C105.834 140.34 106.95 144.351 106.859 147.214C106.767 150.061 107.012 154.025 106.859 154.393C106.706 154.76 107.486 170.818 107.073 177.232C106.66 183.646 106.66 186.141 106.66 189.111C106.66 192.08 106.583 204.434 106.522 211.689C106.461 218.945 106.17 225.956 106.522 228.803C106.874 231.651 107.853 232.845 107.21 234.039C106.568 235.233 100.526 236.411 99.5774 236.411C98.6443 236.411 94.7895 236.166 94.7895 234.268C94.7895 232.37 93.2292 218.823 93.0151 216.557C92.8009 214.307 89.1144 164.419 89.1144 164.419C89.1144 164.419 80.5023 210.143 79.4621 215.379C78.422 220.614 77.9019 222.742 76.8617 227.625C75.8215 232.493 76.3416 233.212 75.1943 234.513C74.0471 235.814 66.3375 234.636 65.0832 233.916C63.8288 233.197 62.2686 232.248 62.2686 231.666C62.2686 231.084 67.0564 191.805 67.0564 188.376C67.0564 184.962 68.1119 162.123 68.5249 152.969C68.938 143.815 69.6569 139.284 69.6569 139.284L105.834 140.34Z" fill="#1E377C"/>
<path d="M92.48 155.296C90.9656 156.643 89.283 157.761 87.5086 158.587C87.325 158.664 87.4015 159.016 87.585 158.924C89.0076 158.266 90.3844 157.424 91.654 156.429C92.0058 156.153 92.3576 155.847 92.7095 155.541C92.8624 155.403 92.6483 155.158 92.48 155.296Z" fill="#496BCE"/>
<path d="M90.7513 157.026C90.2006 159.399 89.7723 161.802 89.1298 164.129C89.0534 164.42 89.4511 164.542 89.5275 164.251C90.17 161.909 90.6136 159.506 91.149 157.149C91.2102 156.858 90.8125 156.735 90.7513 157.026Z" fill="#496BCE"/>
<path d="M87.1569 164.924C89.3749 164.587 91.6082 164.266 93.8263 163.929C93.9333 163.914 94.0251 163.837 94.0251 163.7C94.0251 163.592 93.9333 163.455 93.8263 163.47C91.6082 163.807 89.3749 164.128 87.1569 164.465C87.0498 164.48 86.958 164.557 86.958 164.695C86.958 164.802 87.0498 164.94 87.1569 164.924ZM90.6751 141.504C90.7669 145.514 90.7516 149.525 90.6445 153.535C90.6139 154.668 90.568 155.801 90.5222 156.934C90.5069 157.24 90.9199 157.24 90.9352 156.934C91.1034 152.923 91.1646 148.912 91.134 144.902C91.1187 143.769 91.1034 142.636 91.0728 141.504C91.0728 141.197 90.6751 141.197 90.6751 141.504Z" fill="#496BCE"/>
<path d="M92.954 141.336C92.9081 142.79 92.8775 144.26 92.8316 145.714C92.8163 146.433 92.7857 147.153 92.7704 147.857C92.7551 148.423 92.8163 149.127 92.4339 149.571C92.128 149.939 91.5926 150.092 91.1796 149.862C90.9501 149.74 90.736 150.138 90.9807 150.26C91.409 150.49 91.9138 150.474 92.3421 150.214C92.8163 149.939 93.0764 149.434 93.1375 148.837C93.1834 148.454 93.1681 148.071 93.1834 147.688C93.1987 147.29 93.1987 146.892 93.214 146.494C93.2293 145.683 93.2599 144.887 93.2752 144.076C93.3058 143.157 93.3211 142.239 93.3517 141.305C93.367 141.045 92.954 141.045 92.954 141.336ZM71.4008 139.989C71.3702 141.167 70.9878 142.285 70.4371 143.265C69.9629 144.091 69.1828 145.285 68.2038 145.132C68.0967 145.117 67.9896 145.163 67.959 145.3C67.9285 145.408 67.9896 145.576 68.0967 145.591C69.2593 145.775 70.1159 144.673 70.6972 143.678C71.3396 142.591 71.7832 141.32 71.8138 140.004C71.8138 139.698 71.4008 139.698 71.4008 139.989ZM104.289 140.708C104.258 141.948 104.243 143.234 104.702 144.382C105.069 145.3 105.773 146.096 106.66 146.28C106.92 146.326 107.027 145.882 106.767 145.836C105.956 145.668 105.344 144.933 105.023 144.091C104.625 143.035 104.656 141.826 104.687 140.708C104.702 140.402 104.289 140.402 104.289 140.708Z" fill="#496BCE"/>
<path d="M71.6913 184.029C73.8022 184.871 76.0509 185.253 78.2842 185.131C78.5442 185.116 78.5442 184.656 78.2842 184.672C76.0815 184.794 73.8787 184.411 71.7984 183.585C71.5536 183.493 71.4465 183.937 71.6913 184.029ZM74.46 187.044C74.9648 187.259 75.4849 187.458 75.9897 187.672C76.0968 187.718 76.2191 187.626 76.2344 187.504C76.265 187.381 76.1885 187.259 76.0968 187.213C75.592 186.998 75.0719 186.799 74.5671 186.585C74.46 186.539 74.3376 186.631 74.3223 186.753C74.2917 186.891 74.3682 187.014 74.46 187.044ZM106.247 182.666C104.778 183.631 103.157 184.243 101.474 184.473C101.214 184.503 101.214 184.978 101.474 184.932C103.233 184.702 104.916 184.075 106.461 183.064C106.69 182.927 106.476 182.513 106.247 182.666ZM101.902 186.233C102.361 186.294 102.82 186.355 103.294 186.417C103.401 186.432 103.493 186.294 103.493 186.187C103.493 186.049 103.401 185.973 103.294 185.957C102.836 185.896 102.377 185.835 101.902 185.774C101.795 185.758 101.704 185.896 101.704 186.003C101.704 186.126 101.795 186.218 101.902 186.233Z" fill="#496BCE"/>
<path d="M77.8867 151.224C77.8867 151.224 89.8182 152.74 94.1625 152.48C98.5068 152.219 102.086 151.194 102.086 151.194C102.086 151.194 104.044 122.829 102.515 113.108C100.985 103.388 97.3748 90.0245 97.3748 90.0245L92.128 90.6062L84.3879 88.708L77.8867 151.224Z" fill="#CDDFF9"/>
<path d="M93.9024 95.4736C93.9024 95.4736 96.5028 114.241 96.4416 124.42C96.3805 134.6 96.0439 144.075 96.0439 144.075L91.5773 149.647L87.646 143.8C87.646 143.8 91.9597 125.216 91.6843 114.425C91.3937 103.633 90.843 95.841 90.843 95.841L93.9024 95.4736Z" fill="#1E377C"/>
<path d="M113.972 147.795C113.497 148.392 107.547 150.091 107.547 150.091C107.547 150.091 109 155.296 108.572 155.724C108.143 156.153 98.0935 156.321 97.8487 155.724C97.6346 155.204 99.8679 133.85 100.22 120.976C100.281 118.91 100.281 117.057 100.22 115.557C99.7914 104.673 97.3286 89.6719 97.3286 89.6719C97.3286 89.6719 97.5581 89.8096 97.9558 90.0546C99.8679 91.2179 105.482 94.7234 106.185 96.0705C107.042 97.6931 107.715 102.974 107.715 102.974C107.715 102.974 109.765 127.267 110.101 128.875C110.438 130.497 114.43 147.198 113.972 147.795Z" fill="#3753B7"/>
<path d="M107.532 150.337C107.425 150.337 107.318 150.26 107.287 150.138C106.767 147.949 106.66 142.897 106.553 137.034C106.461 132.381 106.354 127.1 106.018 122.492C105.65 117.471 105.13 112.496 104.733 108.485C104.182 103.158 104.029 101.398 104.167 101.077C104.366 100.617 104.717 98.8569 104.824 98.2293C104.855 98.0915 104.977 97.9997 105.115 98.0303C105.253 98.0609 105.345 98.1834 105.314 98.3212C105.299 98.413 104.886 100.679 104.61 101.276C104.519 101.628 104.84 104.781 105.207 108.44C105.62 112.435 106.125 117.41 106.492 122.446C106.828 127.069 106.935 132.35 107.043 137.019C107.165 142.851 107.257 147.887 107.777 150.015C107.807 150.153 107.731 150.291 107.593 150.321C107.578 150.337 107.563 150.337 107.532 150.337Z" fill="#1E377C"/>
<path d="M91.2402 115.557C91.1025 119.69 90.0929 125.706 89.9553 126.808C89.787 128.201 86.6359 148.897 85.1827 152.142C83.7295 155.372 82.9647 156.49 79.3087 156.321C75.6528 156.153 62.1916 154.53 62.0998 151.974C62.0081 149.418 70.6966 121.726 70.9567 120.961C71.2167 120.195 67.7597 100.525 69.0446 97.7848C71.5227 92.5037 77.6414 90.4677 83.7601 88.5696C83.9283 88.5083 84.1119 88.4624 84.2802 88.4165C84.2802 88.4165 90.6436 109.465 91.1484 112.878C91.2708 113.552 91.2861 114.485 91.2402 115.557Z" fill="#3753B7"/>
<path d="M91.2403 115.558C86.1158 110.414 82.9953 101.322 82.7505 100.617C82.4599 99.7601 85.0145 97.2038 85.0145 97.2038C85.0145 97.2038 81.7257 94.4178 81.435 93.5146C81.2515 92.9482 82.8423 91.0654 83.7448 88.5549C83.9131 88.4937 84.0967 88.4478 84.2649 88.4019C84.2649 88.4019 90.6284 109.45 91.1332 112.863C91.2708 113.552 91.2861 114.486 91.2403 115.558Z" fill="#6983CC"/>
<path d="M71.2168 121.359C73.6795 123.333 76.433 124.941 79.3699 126.104C80.2113 126.441 81.0526 126.732 81.9092 127.007C82.2152 127.099 82.3528 126.625 82.0469 126.517C79.0946 125.614 76.28 124.267 73.7101 122.553C72.9759 122.063 72.2722 121.542 71.5839 120.991C71.3238 120.808 70.9567 121.16 71.2168 121.359ZM71.5227 122.323C72.1499 123.165 72.8229 123.946 73.5572 124.696C73.7866 124.925 74.1385 124.573 73.909 124.344C73.2053 123.624 72.5476 122.874 71.951 122.078C71.8745 121.971 71.7369 121.91 71.6145 121.986C71.5074 122.048 71.4309 122.216 71.5227 122.323ZM75.7599 126.64C76.1576 127.007 76.5553 127.359 76.9531 127.727C77.0448 127.819 77.2131 127.834 77.3049 127.727C77.3967 127.635 77.412 127.467 77.3049 127.375C76.9072 127.007 76.5095 126.655 76.1117 126.288C76.02 126.196 75.8517 126.181 75.7599 126.288C75.6834 126.38 75.6681 126.533 75.7599 126.64ZM82.5823 150.489C78.5745 151.377 74.4291 151.607 70.3602 151.209C69.1976 151.086 68.035 150.918 66.8725 150.704C66.5513 150.642 66.4289 151.132 66.7348 151.193C70.8496 151.989 75.0716 152.127 79.2323 151.591C80.3948 151.438 81.5574 151.239 82.7199 150.979C83.0259 150.903 82.9035 150.413 82.5823 150.489ZM68.5245 152.969C68.8305 153.061 69.1517 153.153 69.4576 153.245C69.58 153.275 69.733 153.199 69.7636 153.076C69.7942 152.938 69.7177 152.801 69.5953 152.77C69.2894 152.678 68.9681 152.586 68.6622 152.495C68.5398 152.464 68.3869 152.54 68.3563 152.663C68.3257 152.801 68.3869 152.923 68.5245 152.969Z" fill="#1E377C"/>
<path d="M67.668 131.661C67.668 131.661 70.0084 132.365 72.1347 132.702C74.2609 133.039 77.2897 133.345 77.2438 134.156C77.1979 134.968 73.5879 138.718 71.8746 138.932C70.1767 139.147 64.2568 138.289 64.5934 136.973C64.9299 135.641 67.668 131.661 67.668 131.661Z" fill="#6983CC"/>
<path d="M100.205 120.961C100.266 118.895 100.266 117.043 100.205 115.542C99.7763 104.659 97.3135 89.6572 97.3135 89.6572C97.3135 89.6572 97.5429 89.795 97.9406 90.0399C98.6596 91.4023 101.061 95.9487 101.061 96.8212C101.061 97.8468 99.868 99.4694 99.868 99.4694C99.868 99.4694 102.254 103.48 102.254 103.909C102.254 104.291 103.723 113.476 100.205 120.961Z" fill="#6983CC"/>
<path d="M115.93 125.585C115.93 125.585 118.79 124.008 119.57 123.931C120.35 123.855 126.469 123.243 126.469 123.533C126.469 123.809 125.888 124.697 125.062 124.911C124.236 125.11 121.192 126.564 121.192 126.564C121.192 126.564 124.465 131.524 124.741 131.57C125.016 131.616 127.249 132.657 127.249 132.657C127.249 132.657 126.897 133.468 126.224 133.713C125.551 133.958 124.649 134.034 124.649 134.034C124.649 134.034 123.746 135.121 123.165 135.167C122.584 135.213 121.865 134.8 121.865 134.8C121.865 134.8 121.085 135.32 120.534 135.32C119.983 135.32 119.433 134.708 119.433 134.708C119.433 134.708 119.28 134.876 118.408 134.631C117.551 134.387 117.077 133.575 116.603 133.024C116.129 132.458 113.268 131.248 113.268 131.248L113.467 125.171L115.93 125.585Z" fill="#FFC7D2"/>
<path d="M113.681 123.762C113.681 123.762 115.792 123.563 116.037 124.665C116.297 125.767 115.516 131.492 114.996 131.814C114.492 132.12 111.845 131.753 111.845 131.753L113.681 123.762Z" fill="#FAFCFF"/>
<path d="M71.5843 96.5756C71.2172 96.9124 70.9418 97.3257 70.7582 97.8002C70.1923 99.2391 69.1368 102.913 71.0336 106.939C73.4811 112.113 84.1582 125.752 85.795 127.13C87.447 128.507 97.0993 130.115 98.7361 130.283C100.388 130.451 113.406 133.436 113.88 132.457C114.354 131.492 115.685 123.808 114.584 123.242C113.482 122.69 94.2694 117.516 93.3975 117.118C92.5715 116.705 78.8655 89.7484 71.5843 96.5756Z" fill="#496BCE"/>
<path d="M93.5656 117.043C93.0914 117.119 92.6784 117.395 92.296 117.67C91.9136 117.946 91.5465 118.252 91.2099 118.573C90.5063 119.216 89.8944 119.936 89.359 120.716C89.1907 120.961 89.5885 121.206 89.7567 120.961C90.2615 120.227 90.8428 119.553 91.4853 118.956C91.8065 118.665 92.1277 118.39 92.4796 118.129C92.8467 117.854 93.2291 117.578 93.688 117.502C93.9786 117.456 93.8563 117.012 93.5656 117.043Z" fill="#1E377C"/>
<path d="M93.4747 117.608C93.2144 118.113 92.9542 118.603 92.6787 119.108C92.6174 119.216 92.6481 119.369 92.7552 119.43C92.8624 119.491 93.0154 119.461 93.0767 119.338C93.3369 118.833 93.5971 118.328 93.8727 117.838C93.9339 117.731 93.9033 117.578 93.7961 117.516C93.6737 117.455 93.5359 117.486 93.4747 117.608Z" fill="#1E377C"/>
<path d="M89.6196 92.1979C89.6196 92.1979 90.568 96.7749 91.2564 97.0045C91.9447 97.2341 93.3673 97.1117 93.8874 96.7443C94.4075 96.3769 94.7288 91.4938 94.7288 91.4938C94.7288 91.4938 91.8683 90.4681 89.6196 92.1979Z" fill="#496BCE"/>
<path d="M84.2959 88.3868C84.2959 88.3868 85.7032 87.0244 86.1162 87.0244C86.5292 87.0244 92.0514 90.3768 92.189 90.3768C92.3267 90.3768 95.8756 87.851 96.3651 88.1266C96.8546 88.4174 97.3899 90.0094 97.3899 90.0094C97.3899 90.0094 94.9578 93.7292 94.4989 93.7139C94.0399 93.6832 92.1279 90.6064 92.1279 90.6064C92.1279 90.6064 90.2005 93.6832 89.6651 93.5914C89.1297 93.4996 84.3418 90.3768 84.2959 88.3868Z" fill="#F3F8FF"/>
<path d="M181.675 89.2883C181.675 89.2883 183.756 87.88 184.888 87.3749C186.02 86.8697 187.029 86.3033 187.458 85.4155C187.886 84.5276 187.855 83.9766 187.855 83.9766C187.855 83.9766 189.324 83.6398 189.676 82.0784C190.043 80.517 189.339 79.6445 189.339 79.6445C189.339 79.6445 190.119 77.9913 189.798 76.2615C189.477 74.5317 188.1 74.2715 188.1 74.2715C188.1 74.2715 188.299 71.9294 187.213 70.3527C186.127 68.7761 184.413 68.9444 184.413 68.9444C184.413 68.9444 183.847 67.1534 181.721 66.3881C179.595 65.6074 178.432 66.5718 178.432 66.5718C178.432 66.5718 178.172 65.2859 175.771 65.2706C173.354 65.2553 172.696 67.0769 172.696 67.0769C172.696 67.0769 171.197 66.4952 170.31 67.1381C169.423 67.7811 169.27 69.2047 169.27 69.2047C169.27 69.2047 168.214 69.5874 167.985 70.5517C167.755 71.5161 167.954 72.0825 167.954 72.0825C167.954 72.0825 167.419 73.2 167.403 74.1644C167.388 75.1287 167.679 75.741 167.679 75.741C167.679 75.741 166.96 77.3637 167.633 78.5577C168.306 79.7517 168.795 79.966 168.795 79.966L181.675 89.2883Z" fill="#112249"/>
<path d="M172.038 105.131C175.495 106.754 174.731 105.284 178.891 103.876C183.052 102.468 184.719 94.5843 184.719 94.5843C184.719 94.5843 182.058 93.6506 181.905 92.8393C181.828 92.4106 181.553 91.9208 181.553 89.9767C181.553 88.2623 181.568 86.7468 181.568 86.7468L174.272 86.41L172.727 86.3335C172.727 86.3335 173.14 87.4816 173.43 88.7521C173.568 89.395 173.675 90.0686 173.675 90.6503C173.675 91.783 173.583 92.2576 173.385 93.0842C173.293 93.4975 172.926 95.3956 172.926 95.3956C172.926 95.3956 170.876 95.2732 170.249 97.8755C169.606 100.447 168.581 103.509 172.038 105.131Z" fill="#CC6A6A"/>
<path d="M173.659 90.6347C173.659 91.7675 173.369 93.2217 173.17 94.0484C173.614 95.8394 174.654 97.0487 176.612 95.5179C178.019 94.4157 179.885 92.1655 181.553 89.9612C181.553 88.2468 181.568 86.7313 181.568 86.7313L174.271 86.3945C173.935 87.1599 173.644 87.9712 173.415 88.7366C173.552 89.3948 173.659 90.0684 173.659 90.6347Z" fill="#9E3E3E"/>
<path d="M168.795 76.2769C168.795 76.2769 168.78 80.2262 168.566 81.1906C168.367 82.1703 167.418 84.0225 167.892 86.5024C168.367 88.9822 169.437 91.3243 170.156 91.9672C170.875 92.6101 171.441 92.7785 171.441 92.7785C171.441 92.7785 173.522 93.1765 175.403 92.6561C177.285 92.1203 180.237 90.4058 180.971 89.5027C181.705 88.5995 182.073 87.2218 182.073 87.2218C182.073 87.2218 183.052 86.8851 183.205 86.334C183.358 85.7829 184.52 85.7676 184.948 84.1603C185.377 82.5683 184.352 82.2315 183.51 82.4305C182.669 82.6295 182.134 83.8542 182.042 84.5583C181.95 85.2625 182.042 85.538 181.537 85.4768C181.032 85.4155 180.726 85.5074 180.742 85.0788C180.757 84.6501 181.094 83.1194 181.078 82.7367C181.063 82.354 180.16 81.2672 180.191 80.1497C180.222 79.0322 180.298 78.6342 180.298 78.6342C180.298 78.6342 174.669 78.1597 172.252 77.4096C169.82 76.6596 168.795 76.2769 168.795 76.2769Z" fill="#CC6A6A"/>
<path d="M170.416 82.2317C170.432 82.7216 170.156 83.1196 169.835 83.1042C169.499 83.0889 169.223 82.6909 169.223 82.2011C169.208 81.7112 169.483 81.3132 169.805 81.3286C170.126 81.3439 170.401 81.7419 170.416 82.2317ZM176.275 82.645C176.29 83.1349 176.015 83.5329 175.694 83.5175C175.357 83.5022 175.082 83.1042 175.082 82.6144C175.067 82.1246 175.342 81.7266 175.663 81.7419C175.984 81.7572 176.26 82.1552 176.275 82.645Z" fill="#112249"/>
<path d="M171.38 83.2885C172.007 84.3294 170.722 84.4825 170.539 85.2632C170.416 85.7684 170.86 85.8143 171.074 86.1664C171.227 86.4419 171.609 86.1817 171.456 85.9061C171.349 85.7377 170.997 85.5387 171.059 85.3244C171.089 85.2173 171.38 85.003 171.441 84.9417C171.579 84.804 171.732 84.6662 171.854 84.5131C172.206 84.0692 172.068 83.5181 171.778 83.0436C171.594 82.7527 171.212 83.013 171.38 83.2885Z" fill="#9E3E3E"/>
<path d="M168.658 80.5024C168.596 80.533 169.132 79.9054 169.514 79.8441C169.881 79.7982 170.264 79.7676 170.371 79.9513C170.478 80.1503 170.6 80.3952 170.371 80.3952C170.157 80.4105 169.208 80.2421 168.658 80.5024ZM175.036 80.334C175.036 80.334 174.96 80.7167 175.052 80.8238C175.143 80.931 175.572 80.7932 176.061 81.0687C176.535 81.329 176.964 81.5433 176.964 81.5433C176.964 81.5433 176.719 80.9463 176.398 80.5942C176.061 80.2421 175.067 79.9819 175.036 80.334Z" fill="#112249"/>
<path d="M170.523 81.6499C170.523 81.8183 170.385 81.9407 170.217 81.9407C170.049 81.9407 169.896 81.803 169.896 81.6346C169.896 81.4662 170.034 81.3438 170.202 81.3438C170.385 81.3438 170.523 81.4815 170.523 81.6499ZM176.351 82.1091C176.351 82.2775 176.214 82.4 176.045 82.4C175.877 82.4 175.724 82.2622 175.724 82.0938C175.724 81.9254 175.862 81.803 176.03 81.803C176.214 81.803 176.351 81.9407 176.351 82.1091Z" fill="#F1F0FE"/>
<path d="M174.134 89.2119C173.904 89.365 173.629 89.5028 173.308 89.6252C172.481 89.9314 171.64 89.8548 170.982 89.5028C170.478 89.2272 170.065 88.7986 169.85 88.2628C169.774 88.0638 169.912 87.8801 170.126 87.8801C170.141 87.8801 170.172 87.8801 170.187 87.8801C170.585 87.972 171.227 88.0638 172.038 88.0026C173.124 87.9261 174.394 87.375 174.975 87.2678C175.174 87.2372 175.296 87.2525 175.296 87.3597C175.296 87.7118 175.097 88.569 174.134 89.2119Z" fill="#662525"/>
<path d="M174.975 87.2686L174.944 87.6512C174.944 87.7278 173.981 88.2329 172.65 88.3554C171.319 88.4779 170.508 88.2942 170.325 88.2482C170.248 88.2329 170.172 88.0492 170.126 87.8656C170.141 87.8656 170.172 87.8656 170.187 87.8656C170.585 87.9574 171.227 88.0492 172.038 87.988C173.124 87.9268 174.394 87.3757 174.975 87.2686Z" fill="#F1F0FE"/>
<path d="M174.134 89.212C173.904 89.365 173.629 89.5028 173.308 89.6253C172.481 89.9314 171.64 89.8549 170.982 89.5028C171.304 89.013 172.084 88.7221 172.971 88.8293C173.415 88.8752 173.812 89.013 174.134 89.212Z" fill="#9E3E3E"/>
<path d="M181.996 79.6291C181.996 79.6291 180.681 80.4557 179.61 80.073C178.554 79.7056 178.05 78.9555 178.05 78.9555C178.05 78.9555 177.361 79.4148 176.535 79.0168C175.709 78.6035 175.48 78.3585 175.48 78.3585C175.48 78.3585 174.424 79.1698 173.66 78.6953C172.879 78.2361 172.237 77.1645 172.237 77.1645C172.237 77.1645 171.824 77.7462 171.487 77.8228C171.151 77.8993 170.325 77.7309 170.325 77.7309C170.325 77.7309 170.004 78.4504 169.575 78.1748C169.147 77.8993 169.147 77.8993 169.147 77.8993C169.147 77.8993 169.025 80.0271 168.612 79.8434C168.199 79.6597 166.179 76.7206 168.107 74.9908C170.034 73.2611 169.988 71.8987 173.247 72.1742C176.489 72.4498 178.937 71.6232 180.329 74.1948C181.721 76.7665 181.874 79.476 181.874 79.476L181.996 79.6291Z" fill="#112249"/>
<path d="M210.204 246.836C210.204 246.836 196.712 246.805 195.993 246.836C195.274 246.866 195.228 245.397 195.182 244.264C195.136 243.131 195.457 240.988 196.023 239.901C196.329 239.335 196.712 238.309 197.018 237.345C197.155 236.932 197.278 236.518 197.385 236.151C197.844 236.166 198.318 236.182 198.792 236.182C201.393 236.182 203.871 235.86 206.15 235.263C206.318 235.784 206.685 236.442 207.114 237.146C208.414 239.243 210.464 241.8 210.724 242.902C211.091 244.432 210.204 246.836 210.204 246.836Z" fill="#1E377C"/>
<path d="M206.165 235.263C203.886 235.86 201.393 236.182 198.808 236.182C198.333 236.182 197.859 236.167 197.4 236.151C197.507 235.769 197.599 235.432 197.645 235.202C197.875 234.238 197.829 226.722 197.829 226.722L205.599 224.579C205.599 224.579 205.645 233.013 206.089 235.003C206.104 235.08 206.135 235.172 206.165 235.263ZM129.1 125.523C129.1 125.523 125.291 124.604 124.511 124.574C123.731 124.543 118.362 126.043 118.622 126.349C118.882 126.656 118.821 126.763 119.647 126.977C120.458 127.191 121.819 127.467 121.819 127.467C121.819 127.467 124.374 131.37 124.572 131.631C124.756 131.906 127.219 132.733 127.219 132.733C127.219 132.733 129.36 132.687 129.605 132.488C129.85 132.319 129.1 125.523 129.1 125.523Z" fill="#CC6A6A"/>
<path d="M153.774 246.499C154.218 247.234 169.683 246.499 169.683 246.499L171.289 243.958L171.916 246.56H174.96C174.96 246.56 174.96 243.79 174.731 242.427C174.501 241.065 173.339 239.488 173.171 237.223C173.155 237.054 173.155 236.87 173.14 236.656C173.109 233.855 173.828 226.982 173.828 226.982L165.43 226.477L165.048 235.324C164.956 235.432 162.325 238.309 160.75 239.366C159.143 240.437 154.401 241.631 154.004 243.162C153.591 244.693 153.315 245.764 153.774 246.499Z" fill="#1E377C"/>
<path d="M168.78 238.861C170.172 238.524 172.666 236.764 173.14 236.642C173.109 233.84 173.828 226.967 173.828 226.967L165.43 226.462L165.048 235.31C165.048 235.31 167.036 236.351 167.755 236.749C168.474 237.147 167.572 238.218 166.991 238.723C166.409 239.259 167.388 239.213 168.78 238.861Z" fill="#CC6A6A"/>
<path d="M160.933 143.632C160.933 143.632 160.948 166.348 161.728 169.303C162.508 172.242 162.661 180.753 162.738 181.641C162.814 182.544 163.61 225.696 163.533 228.559C163.457 231.421 162.676 232.967 163.533 233.549C164.39 234.131 168.765 234.774 169.881 234.942C170.998 235.11 179.166 233.549 179.166 232.401C179.166 231.253 180.681 181.472 180.681 179.59C180.681 177.707 180.237 173.574 180.237 173.574C180.237 173.574 190.042 215.869 191.312 222.084C192.582 228.299 192.903 231.896 193.698 232.631C194.494 233.365 198.456 233.365 199.328 233.534C200.199 233.702 208.781 231.406 208.857 229.37C208.934 227.334 203.534 201.173 203.06 198.969C202.586 196.765 198.716 164.909 197.033 155.893C196.176 151.316 194.142 145.607 194.142 145.607L160.933 143.632Z" fill="#1E377C"/>
<path d="M174.532 162.567C176.505 162.981 178.539 163.164 180.559 163.103C180.865 163.088 180.865 162.613 180.559 162.629C178.585 162.69 176.597 162.506 174.669 162.108C174.363 162.047 174.241 162.506 174.532 162.567ZM174.486 164.909C175.251 164.955 176.031 164.695 176.765 164.527C177.53 164.358 178.295 164.175 179.075 164.006C179.365 163.945 179.243 163.471 178.952 163.547C178.203 163.715 177.469 163.884 176.719 164.052C176 164.221 175.235 164.481 174.486 164.435C174.18 164.404 174.18 164.894 174.486 164.909Z" fill="#496BCE"/>
<path d="M177.025 164.404C177.041 164.434 177.041 164.45 177.056 164.48C177.087 164.557 177.117 164.633 177.132 164.725C177.209 164.97 177.285 165.2 177.362 165.445C177.591 166.18 177.821 166.914 178.05 167.664C178.555 169.287 179.045 170.91 179.519 172.548C179.641 172.976 179.809 173.435 179.886 173.879C179.932 174.185 180.391 174.048 180.33 173.757C180.268 173.389 180.131 173.007 180.024 172.655C179.809 171.92 179.595 171.17 179.366 170.435C178.876 168.797 178.372 167.159 177.867 165.537C177.729 165.093 177.607 164.603 177.408 164.19C177.285 163.883 176.888 164.113 177.025 164.404ZM176.031 151.897C176.199 154.607 176.245 157.332 176.154 160.056C176.123 160.837 176.092 161.618 176.046 162.399C176.031 162.705 176.49 162.705 176.505 162.399C176.674 159.689 176.704 156.964 176.612 154.24C176.582 153.459 176.551 152.678 176.49 151.897C176.49 151.591 176.016 151.576 176.031 151.897Z" fill="#496BCE"/>
<path d="M173.889 151.882C173.874 152.678 173.843 153.459 173.843 154.255C173.843 154.975 173.828 155.694 173.965 156.398C174.073 157.011 174.348 157.592 174.807 157.99C175.25 158.373 175.801 158.603 176.382 158.618C176.688 158.633 176.688 158.143 176.382 158.143C175.862 158.128 175.373 157.914 175.006 157.531C174.608 157.118 174.424 156.567 174.363 156C174.287 155.342 174.302 154.684 174.302 154.026C174.302 153.306 174.333 152.602 174.348 151.882C174.363 151.576 173.904 151.576 173.889 151.882ZM164.894 194.346C166.577 194.912 168.321 195.295 170.08 195.463C170.386 195.494 170.371 195.019 170.08 194.989C168.367 194.82 166.669 194.453 165.017 193.887C164.741 193.78 164.619 194.254 164.894 194.346ZM165.46 195.494C166.348 196.168 167.281 196.765 168.244 197.316C168.505 197.469 168.749 197.055 168.474 196.902C167.51 196.351 166.577 195.739 165.69 195.081C165.583 195.004 165.43 195.065 165.369 195.173C165.307 195.28 165.353 195.417 165.46 195.494ZM189.583 193.412C190.991 193.581 192.413 193.55 193.821 193.351C193.943 193.336 194.02 193.167 193.989 193.06C193.958 192.922 193.821 192.876 193.698 192.892C192.337 193.091 190.945 193.091 189.583 192.938C189.293 192.892 189.293 193.382 189.583 193.412ZM190.073 195.54C191.22 195.356 192.337 195.019 193.423 194.56C193.545 194.514 193.561 194.331 193.499 194.239C193.438 194.116 193.301 194.101 193.178 194.147C192.138 194.591 191.052 194.912 189.951 195.081C189.828 195.096 189.752 195.264 189.782 195.372C189.813 195.509 189.935 195.555 190.073 195.54Z" fill="#496BCE"/>
<path d="M195.825 162.001L193.744 161.358C193.775 161.282 194.341 159.307 196.008 157.348C197.553 155.542 200.368 153.398 205.003 153.398C213.798 153.398 216.919 160.516 217.057 160.823L215.068 161.741C214.961 161.496 212.36 155.664 205.003 155.664C197.767 155.664 195.901 161.741 195.825 162.001ZM220.208 187.29H190.654C189.354 187.29 188.314 186.233 188.314 184.948V166.961C188.314 165.66 189.369 164.619 190.654 164.619H220.208C221.508 164.619 222.548 165.675 222.548 166.961V184.948C222.548 186.233 221.493 187.29 220.208 187.29Z" fill="#3753B7"/>
<path d="M220.835 177.324H190.027C188.758 177.324 187.733 176.299 187.733 175.028V162.614C187.733 161.343 188.758 160.317 190.027 160.317H220.835C222.105 160.317 223.13 161.343 223.13 162.614V175.028C223.13 176.283 222.105 177.324 220.835 177.324Z" fill="#496BCE"/>
<path d="M195.488 180.585H194.417C194.035 180.585 193.729 180.279 193.729 179.896V175.212C193.729 174.829 194.035 174.523 194.417 174.523H195.488C195.871 174.523 196.176 174.829 196.176 175.212V179.896C196.176 180.279 195.871 180.585 195.488 180.585ZM215.481 180.585H214.41C214.028 180.585 213.722 180.279 213.722 179.896V175.212C213.722 174.829 214.028 174.523 214.41 174.523H215.481C215.863 174.523 216.169 174.829 216.169 175.212V179.896C216.169 180.279 215.863 180.585 215.481 180.585Z" fill="#6983CC"/>
<path d="M208.842 166.287H201.362V170.114H208.842V166.287Z" fill="#A6CAF4"/>
<path d="M210.938 146.984C210.938 146.984 210.464 152.372 210.433 152.74C210.387 153.107 210.173 155.924 210.081 156.153C210.005 156.383 209.271 158.633 208.858 158.771C208.444 158.909 207.634 158.587 207.634 158.587C207.634 158.587 206.961 158.786 206.548 158.802C206.135 158.832 205.706 158.342 205.706 158.342C205.706 158.342 204.804 158.572 204.437 158.45C204.07 158.327 203.779 157.975 203.779 157.975C203.779 157.975 202.509 157.99 202.203 157.73C201.897 157.47 201.821 157.118 201.821 157.118C201.821 157.118 202.234 155.939 202.249 155.664C202.265 155.403 202.387 153.903 202.387 153.903C202.387 153.903 200.551 154.194 200.154 153.888C199.771 153.582 199.557 153.352 200.154 153.26C200.75 153.153 203.335 151.913 203.274 151.362C203.213 150.811 203.519 149.357 203.748 148.576C203.978 147.795 204.834 146.816 204.911 146.096C204.987 145.377 205.095 144.734 205.095 144.734H210.907V146.984H210.938Z" fill="#CC6A6A"/>
<path d="M211.642 148.744C211.229 149.555 203.305 150.872 202.984 149.724C202.663 148.576 202.25 129.043 202.005 128.14C201.76 127.237 194.662 117.685 194.662 117.685C194.662 117.685 194.173 130.849 194.173 131.952C194.173 133.054 194.494 143.509 194.984 145.147C195.473 146.785 196.284 148.254 194.326 149.647C192.368 151.04 174.654 152.709 168.688 151.316C162.723 149.923 160.03 149.188 159.709 146.739C159.388 144.29 160.352 140.83 160.352 140.248C160.352 140.019 160.398 133.635 160.52 125.997C157.904 128.737 155.258 131.462 154.631 131.952C153.33 132.977 129.605 133.406 129.07 133.36C128.534 133.314 128.963 126.273 129.07 125.676C129.177 125.079 130.11 124.91 132.879 124.482C135.663 124.053 148.42 121.573 149.078 121.083C149.736 120.593 156.344 110.199 158.745 104.536C160.275 100.923 161.331 99.6372 161.897 99.1779C163.365 97.6166 168.413 95.4429 173.17 93.4682C173.17 93.4682 174.914 96.7899 175.465 96.7899C176.016 96.7899 182.976 93.2998 182.976 93.2998C182.976 93.2998 193.316 95.8562 195.611 97.3257C197.905 98.7953 199.098 99.9892 199.588 100.969C200.077 101.949 210.663 121.343 211.657 124.206C212.621 127.084 212.039 147.933 211.642 148.744Z" fill="#CDDFF9"/>
<path d="M175.404 151.377C172.513 151.377 170.218 151.194 168.78 150.872C162.6 149.433 160.428 148.744 160.153 146.678C159.923 144.963 160.367 142.713 160.612 141.366C160.734 140.754 160.78 140.448 160.78 140.264C160.78 140.034 160.826 133.62 160.948 126.012L160.964 124.849L160.153 125.691C156.879 129.105 154.814 131.202 154.31 131.6C153.04 132.38 133.751 132.916 129.33 132.916C129.315 132.916 129.315 132.916 129.299 132.916C129.085 131.753 129.345 126.456 129.483 125.768C129.544 125.477 131.104 125.216 132.909 124.941C134.577 124.681 148.466 122.094 149.307 121.451C150.103 120.854 156.788 110.23 159.113 104.72C160.642 101.107 161.667 99.9282 162.141 99.5455L162.172 99.5302L162.187 99.4996C163.641 97.9536 169.3 95.5656 172.91 94.0654C174.624 97.2647 175.19 97.2647 175.404 97.2647C175.939 97.2647 179.779 95.3972 182.976 93.8052C184.307 94.1419 193.27 96.4228 195.305 97.7392C197.339 99.0404 198.624 100.219 199.114 101.214C199.221 101.428 199.741 102.393 200.536 103.862C203.489 109.342 210.388 122.17 211.168 124.405C212.04 126.977 211.611 146.862 211.198 148.561C210.663 148.974 207.083 149.755 204.682 149.755C203.764 149.755 203.458 149.632 203.382 149.586C203.229 148.76 203.014 142.683 202.846 137.769C202.632 131.34 202.525 128.477 202.403 128.064C202.143 127.13 196.177 119.063 194.984 117.456L194.204 116.415L194.158 117.716C194.142 118.252 193.668 130.896 193.668 131.998C193.668 132.962 193.974 143.57 194.509 145.331C194.571 145.53 194.632 145.729 194.693 145.928C195.137 147.305 195.473 148.285 194.02 149.311C192.812 150.153 183.175 151.377 175.404 151.377Z" fill="#FAFCFF"/>
<path d="M192.903 100.893C191.205 102.623 190.241 105.041 190.272 107.475C190.318 110.001 191.48 112.297 192.612 114.486C193.255 115.741 193.912 117.012 194.371 118.359C194.478 118.65 194.937 118.527 194.83 118.236C194.035 115.91 192.673 113.828 191.725 111.578C191.266 110.475 190.899 109.327 190.792 108.133C190.685 106.955 190.822 105.761 191.19 104.643C191.603 103.373 192.306 102.209 193.239 101.26C193.453 101 193.117 100.663 192.903 100.893Z" fill="#CDDFF9"/>
<path d="M194.83 117.976C194.111 117.471 193.499 116.813 192.857 116.216C192.184 115.573 191.496 114.915 190.823 114.272C190.593 114.057 190.257 114.394 190.486 114.609C191.19 115.282 191.878 115.94 192.582 116.614C193.224 117.226 193.851 117.884 194.586 118.405C194.83 118.573 195.075 118.16 194.83 117.976ZM193.836 119.155C193.285 119.155 192.75 119.155 192.199 119.155C192.077 119.155 191.954 119.262 191.954 119.4C191.954 119.538 192.062 119.645 192.199 119.645C192.75 119.645 193.285 119.645 193.836 119.645C193.958 119.645 194.081 119.538 194.081 119.4C194.065 119.262 193.958 119.155 193.836 119.155ZM161.697 135.121C163.915 137.417 166.47 139.392 169.254 140.953C170.034 141.397 170.83 141.795 171.656 142.178C171.931 142.3 172.176 141.887 171.9 141.764C169.04 140.448 166.363 138.718 163.992 136.652C163.319 136.055 162.676 135.442 162.049 134.799C161.82 134.554 161.483 134.891 161.697 135.121ZM161.499 137.126C161.728 137.769 162.08 138.366 162.539 138.871C162.631 138.963 162.784 138.963 162.875 138.871C162.967 138.779 162.967 138.626 162.875 138.534C162.478 138.09 162.156 137.555 161.957 137.004C161.912 136.881 161.789 136.805 161.667 136.835C161.544 136.851 161.453 137.004 161.499 137.126ZM160.244 146.693C161.3 147.336 162.478 147.78 163.701 147.995C164.007 148.04 164.13 147.581 163.824 147.535C162.646 147.336 161.514 146.908 160.489 146.28C160.229 146.112 159.984 146.54 160.244 146.693ZM165.583 148.163C168.306 148.699 171.074 148.974 173.858 148.974C176.627 148.99 179.411 148.729 182.134 148.209C183.679 147.918 185.209 147.551 186.708 147.091C186.998 147 186.876 146.54 186.585 146.632C183.954 147.428 181.262 147.979 178.524 148.255C175.801 148.546 173.048 148.561 170.31 148.331C168.765 148.194 167.235 147.979 165.705 147.688C165.415 147.642 165.277 148.102 165.583 148.163ZM192.077 145.285C191.343 145.622 190.608 145.943 189.874 146.28C189.752 146.326 189.721 146.51 189.782 146.602C189.859 146.724 189.996 146.739 190.104 146.693C190.838 146.357 191.572 146.035 192.306 145.698C192.429 145.652 192.459 145.469 192.398 145.377C192.337 145.254 192.199 145.224 192.077 145.285ZM202.31 128.447C202.54 128.033 203.06 127.834 203.458 127.62C203.932 127.375 204.406 127.146 204.896 126.931C205.875 126.503 206.884 126.135 207.909 125.829C208.2 125.737 208.077 125.278 207.787 125.37C206.701 125.691 205.63 126.074 204.59 126.549C204.07 126.778 203.565 127.038 203.06 127.299C202.632 127.528 202.142 127.758 201.897 128.202C201.744 128.477 202.157 128.722 202.31 128.447Z" fill="#CDDFF9"/>
<path d="M202.831 128.676C203.687 128.829 204.559 128.845 205.416 128.692C205.538 128.676 205.615 128.508 205.584 128.401C205.553 128.263 205.416 128.217 205.293 128.232C204.528 128.37 203.733 128.37 202.968 128.217C202.846 128.186 202.708 128.248 202.678 128.385C202.632 128.493 202.708 128.646 202.831 128.676ZM148.68 121.619C149.047 122.002 149.276 122.492 149.475 122.997C149.674 123.518 149.842 124.038 149.995 124.589C150.271 125.676 150.454 126.778 150.607 127.88C150.653 128.186 151.112 128.049 151.066 127.758C150.898 126.61 150.714 125.446 150.408 124.329C150.255 123.778 150.087 123.242 149.858 122.722C149.644 122.216 149.399 121.711 149.016 121.313C148.802 121.053 148.466 121.39 148.68 121.619ZM149.261 121.466C149.858 122.171 150.378 122.951 150.791 123.778C150.852 123.9 151.005 123.931 151.112 123.87C151.234 123.793 151.25 123.655 151.204 123.548C150.776 122.691 150.225 121.88 149.598 121.145C149.506 121.053 149.338 121.053 149.261 121.145C149.169 121.221 149.169 121.375 149.261 121.466ZM160.78 106.649C160.795 107.46 160.764 108.271 160.734 109.067C160.688 110.552 160.642 112.037 160.581 113.522C160.52 115.251 160.458 116.981 160.382 118.711C160.321 120.257 160.26 121.788 160.214 123.334C160.183 124.252 160.137 125.156 160.122 126.074C160.122 126.12 160.122 126.166 160.122 126.212C160.122 126.518 160.596 126.518 160.596 126.212C160.596 125.4 160.642 124.604 160.673 123.793C160.718 122.308 160.78 120.823 160.841 119.339C160.902 117.609 160.979 115.879 161.04 114.149C161.101 112.603 161.147 111.072 161.193 109.526C161.223 108.623 161.254 107.705 161.254 106.786C161.254 106.74 161.254 106.694 161.254 106.649C161.254 106.342 160.764 106.342 160.78 106.649Z" fill="#CDDFF9"/>
<path d="M175.679 102.01C175.679 102.01 175.312 114.364 175.235 120.395C175.159 126.426 176.489 142.514 176.489 142.514L172.451 149.204L168.214 142.974C168.214 142.974 168.413 127.1 169.759 116.461C171.105 105.822 173.201 100.694 173.201 100.694L175.679 102.01Z" fill="#1E377C"/>
<path d="M172.711 97.7241C172.696 97.7853 172.589 101.566 173.017 101.918C173.446 102.27 175.71 102.852 175.954 102.469C176.199 102.087 178.463 98.0303 178.142 97.7241C177.821 97.4027 176.138 96.4995 175.021 96.6526C173.905 96.8057 173.048 96.7138 172.711 97.7241Z" fill="#496BCE"/>
<path d="M171.319 94.2333C171.319 94.2333 171.931 99.5144 172.482 99.5603C173.033 99.6062 175.281 96.8968 175.281 96.8968C175.281 96.8968 177.025 100.77 177.407 100.77C177.79 100.77 184.352 95.5038 184.184 95.1058C184.016 94.6925 182.93 93.0852 182.639 92.978C182.333 92.8709 175.557 96.6519 175.404 96.4988C175.235 96.3304 173.339 92.7637 172.864 92.978C172.405 93.1923 171.319 94.2333 171.319 94.2333ZM187.748 112.602H179.274C179.09 112.602 178.937 112.449 178.937 112.266V111.822C178.937 111.638 179.09 111.485 179.274 111.485H187.748C187.932 111.485 188.085 111.638 188.085 111.822V112.266C188.085 112.449 187.932 112.602 187.748 112.602Z" fill="#CDDFF9"/>
<path d="M183.465 113.001C183.572 114.531 183.787 116.062 184.123 117.562C184.185 117.868 184.659 117.731 184.583 117.44C184.261 115.986 184.047 114.501 183.94 113.001C183.924 112.694 183.45 112.679 183.465 113.001Z" fill="#496BCE"/>
<path d="M184.75 112.893C184.75 113.46 184.291 113.934 183.71 113.934C183.144 113.934 182.669 113.475 182.669 112.893C182.669 112.327 183.128 111.853 183.71 111.853C184.291 111.868 184.75 112.327 184.75 112.893Z" fill="#6983CC"/>
<path d="M188.391 123.777L183.236 124.604C182.884 124.665 182.547 124.42 182.486 124.068L181.354 117.027C181.293 116.674 181.538 116.338 181.89 116.276L187.045 115.45C187.396 115.389 187.733 115.634 187.794 115.986L188.926 123.027C189.003 123.394 188.758 123.731 188.391 123.777Z" fill="#6983CC"/>
<path d="M187.625 123.226L183.801 123.838C183.449 123.9 183.113 123.655 183.052 123.303L182.134 117.593C182.073 117.241 182.317 116.904 182.669 116.843L186.493 116.231C186.845 116.169 187.182 116.414 187.243 116.766L188.161 122.476C188.222 122.828 187.977 123.165 187.625 123.226Z" fill="#A6CAF4"/>
<path d="M271.33 249.377H6.17518C5.82335 249.377 5.53271 249.087 5.53271 248.735V247.479C5.53271 247.127 5.82335 246.836 6.17518 246.836H271.33C271.681 246.836 271.972 247.127 271.972 247.479V248.735C271.972 249.087 271.681 249.377 271.33 249.377Z" fill="#8CB8ED"/>
<path d="M118.591 252.959H22.2671V254H118.591V252.959Z" fill="#8CB8ED"/>
<path d="M262.519 252.959H128.595V254H262.519V252.959Z" fill="#8CB8ED"/>
</g>
<defs>
<clipPath id="clip0_475_18728">
<rect width="284" height="254" fill="white" transform="translate(0.5)"/>
</clipPath>
</defs>
</svg>
