<svg width="20" height="21" viewBox="0 0 20 21" fill="none" xmlns="http://www.w3.org/2000/svg">
<path d="M4.58072 6.8999H0.450775V20.07H4.58072V6.8999Z" fill="white"/>
<path d="M15.7529 6.61456C15.6006 6.59552 15.4389 6.58601 15.2771 6.57649C12.9647 6.48133 11.661 7.85163 11.2043 8.44163C11.0805 8.6034 11.0234 8.69856 11.0234 8.69856V6.9381H7.07431V20.1082H11.0234H11.2043C11.2043 18.7665 11.2043 17.4342 11.2043 16.0925C11.2043 15.3693 11.2043 14.6461 11.2043 13.9228C11.2043 13.0283 11.1376 12.0767 11.5849 11.2584C11.9655 10.5732 12.6507 10.2306 13.4215 10.2306C15.7053 10.2306 15.7529 12.2956 15.7529 12.4859C15.7529 12.4954 15.7529 12.505 15.7529 12.505V20.1653H19.8828V11.5724C19.8828 8.63195 18.3888 6.90004 15.7529 6.61456Z" fill="white"/>
<path d="M2.51579 5.19645C3.84019 5.19645 4.91383 4.12282 4.91383 2.79842C4.91383 1.47403 3.84019 0.400391 2.51579 0.400391C1.1914 0.400391 0.117767 1.47403 0.117767 2.79842C0.117767 4.12282 1.1914 5.19645 2.51579 5.19645Z" fill="white"/>
</svg>
