<svg width="256" height="58" viewBox="0 0 256 58" fill="none" xmlns="http://www.w3.org/2000/svg">
<path d="M35.6104 20.8624L31.864 24.6626L33.2026 26.0204L36.949 22.2203L35.6104 20.8624Z" fill="#38BDF8"/>
<path d="M24.2924 31.8849L20.546 35.6851L21.8846 37.0429L25.631 33.2427L24.2924 31.8849Z" fill="#38BDF8"/>
<path d="M54.4492 41.9029C54.4492 45.4629 53.0293 48.6862 50.7245 51.018C48.4257 53.3497 45.2481 54.7962 41.7385 54.7962C34.7194 54.7962 29.0278 49.0229 29.0278 41.9029C29.0278 38.3429 27.608 35.1196 25.3032 32.7878C23.0044 30.4561 19.8268 29.0096 16.3172 29.0096C9.29808 29.0096 3.60657 23.2364 3.60657 16.1164C3.60657 12.5564 5.02637 9.3331 7.33125 7.00134C9.62999 4.66958 12.8076 3.22314 16.3172 3.22314C19.8268 3.22314 23.0044 4.66335 25.3032 7.00134C27.6019 9.3331 29.0278 12.5564 29.0278 16.1164C29.0278 23.2364 34.7194 29.0096 41.7385 29.0096C45.2481 29.0096 48.4257 30.4499 50.7245 32.7878C53.0232 35.1196 54.4492 38.3429 54.4492 41.9029Z" fill="#38BDF8"/>
<path opacity="0.83" d="M54.4503 41.9035C54.4503 45.4635 53.0305 48.6868 50.7256 51.0186C50.3507 51.4051 49.945 51.7667 49.5209 52.0972C50.5227 50.2579 51.0944 48.1382 51.0944 45.8937C51.0944 42.3337 49.6745 39.1104 47.3697 36.7786C45.0709 34.4469 41.8933 33.0004 38.3837 33.0004C31.3646 33.0004 25.6731 27.2271 25.6731 20.1072C25.6731 16.5472 24.2533 13.3239 21.9484 10.9921C19.6497 8.66036 16.472 7.21392 12.9624 7.21392C10.0306 7.21392 7.33237 8.22394 5.18115 9.91353C5.75891 8.84117 6.49032 7.86232 7.33237 7.00818C9.63111 4.67642 12.8088 3.22998 16.3183 3.22998C19.8279 3.22998 23.0056 4.67018 25.3043 7.00818C27.603 9.33994 29.029 12.5633 29.029 16.1232C29.029 23.2432 34.7205 29.0165 41.7396 29.0165C45.2492 29.0165 48.4268 30.4567 50.7256 32.7947C53.0243 35.1264 54.4503 38.3498 54.4503 41.9097V41.9035Z" fill="#CBD5E1"/>
<path d="M36.5646 22.2207C34.0876 19.7082 32.8399 16.4038 32.8461 13.1057C32.8461 9.80754 34.0876 6.50316 36.5646 3.9906C41.5309 -1.047 49.5703 -1.047 54.5365 3.9906C57.0135 6.50316 58.2612 9.80754 58.2551 13.1057C58.2551 16.4038 57.0135 19.7082 54.5365 22.2207C52.0596 24.7333 48.802 25.9989 45.5506 25.9927C42.2992 25.9927 39.0416 24.7333 36.5646 22.2207Z" fill="#38BDF8"/>
<path d="M3.71856 54.2275C1.24159 51.715 -0.00612375 48.4106 2.25972e-05 45.1125C2.25972e-05 41.8144 1.24159 38.51 3.71856 35.9974C8.68481 30.9598 16.7242 30.9598 21.6905 35.9974C24.1675 38.51 25.4152 41.8144 25.409 45.1125C25.409 48.4106 24.1675 51.715 21.6905 54.2275C19.2135 56.7401 15.9559 58.0057 12.7045 57.9995C9.45311 57.9995 6.19554 56.7401 3.71856 54.2275Z" fill="#38BDF8"/>
<path d="M25.4142 45.1136C25.4142 48.6736 23.9944 51.8969 21.6895 54.2286C20.6016 55.3322 19.3232 56.2362 17.9095 56.8784C19.9132 54.6027 21.1302 51.5976 21.1302 48.3057C21.1302 44.752 19.7104 41.5224 17.4055 39.1907C15.1068 36.8589 11.9291 35.4125 8.41958 35.4125C6.56953 35.4125 4.80553 35.8177 3.21362 36.5472C3.37343 36.3601 3.54552 36.1793 3.71762 36.0048C6.01635 33.673 9.19402 32.2266 12.7036 32.2266C16.2131 32.2266 19.3908 33.673 21.6895 36.0048C23.9883 38.3365 25.4142 41.5661 25.4142 45.1198V45.1136Z" fill="#CBD5E1"/>
<path d="M58.8077 12.8933C58.8077 16.447 57.3879 19.6766 55.083 22.0021C54.0013 23.0994 52.7167 24.0034 51.303 24.6456C53.3067 22.3699 54.5237 19.3648 54.5237 16.0729C54.5237 12.5254 53.1039 9.28963 50.799 6.9641C48.5064 4.63858 45.3226 3.18591 41.8192 3.18591C39.9691 3.18591 38.2051 3.59115 36.6194 4.32061C36.7792 4.13357 36.9513 3.95277 37.1234 3.7782C39.416 1.45267 42.5998 0 46.1032 0C49.6066 0 52.7904 1.44644 55.083 3.7782C57.3817 6.10372 58.8077 9.33951 58.8077 12.887V12.8933Z" fill="#CBD5E1"/>
<path d="M66.0848 45.4875L67.941 41.9088C70.0308 43.4176 73.3744 44.4962 76.5767 44.4962C80.707 44.4962 82.428 43.2243 82.428 41.1046C82.428 35.4996 66.8716 40.3501 66.8716 30.4121C66.8716 25.9356 70.8175 22.9243 77.136 22.9243C80.3382 22.9243 83.9646 23.7722 86.0973 25.1875L84.192 28.7662C81.9608 27.3073 79.5023 26.7898 77.0868 26.7898C73.1839 26.7898 71.2846 28.2487 71.2846 30.2251C71.2846 36.1106 86.8841 31.3099 86.8841 41.011C86.8841 45.5311 82.7968 48.4053 76.2509 48.4053C72.1636 48.4053 68.1254 47.1335 66.0848 45.4875Z" fill="#334155"/>
<path d="M112.612 23.1611V48.1247H108.389V44.3589C106.576 46.9526 103.515 48.4115 100.03 48.4115C93.6688 48.4115 89.4463 44.8764 89.4463 37.532V23.1674H93.9024V37.0145C93.9024 41.915 96.3179 44.3652 100.54 44.3652C105.181 44.3652 108.156 41.4474 108.156 36.0731V23.1674H112.612V23.1611Z" fill="#334155"/>
<path d="M131.554 22.9305V27.3135C131.186 27.2636 130.86 27.2636 130.534 27.2636C125.752 27.2636 122.777 30.2313 122.777 35.6929V48.1248H118.321V23.1612H122.593V27.3509C124.173 24.4331 127.233 22.9243 131.554 22.9243V22.9305Z" fill="#334155"/>
<path d="M156.165 37.1529H136.202C136.761 41.5358 140.24 44.4537 145.114 44.4537C147.991 44.4537 150.406 43.4623 152.219 41.4423L154.678 44.3601C152.447 46.9974 149.06 48.4127 144.973 48.4127C137.032 48.4127 131.74 43.0883 131.74 35.6503C131.74 28.2124 136.989 22.9316 144.094 22.9316C151.199 22.9316 156.257 28.1126 156.257 35.7875C156.257 36.1616 156.208 36.7289 156.165 37.1529ZM136.202 33.9046H151.992C151.525 29.7149 148.415 26.7472 144.1 26.7472C139.785 26.7472 136.669 29.6651 136.208 33.9046H136.202Z" fill="#334155"/>
<path d="M185.145 35.6406C185.145 43.2718 179.896 48.4029 172.698 48.4029C169.078 48.4029 165.919 46.9876 163.921 44.1633V48.1223H159.65V13.1709H164.106V26.9245C166.146 24.2374 169.213 22.9219 172.698 22.9219C179.896 22.9219 185.145 28.0094 185.145 35.6406ZM180.64 35.6406C180.64 30.3162 177.062 26.8809 172.33 26.8809C167.597 26.8809 164.063 30.3162 164.063 35.6406C164.063 40.965 167.64 44.4501 172.33 44.4501C177.019 44.4501 180.64 40.965 180.64 35.6406Z" fill="#334155"/>
<path d="M207.8 33.0556V48.1248H203.578V44.8266C202.09 47.0898 199.349 48.4053 195.495 48.4053C189.921 48.4053 186.393 45.394 186.393 41.0547C186.393 37.052 188.943 33.7539 196.282 33.7539H203.338V32.8624C203.338 29.0467 201.156 26.8334 196.743 26.8334C193.818 26.8334 190.849 27.8684 188.943 29.5206L187.087 26.1289C189.638 24.059 193.307 22.9243 197.253 22.9243C203.984 22.9243 207.794 26.2224 207.794 33.0494L207.8 33.0556ZM203.344 40.4998V37.0146H196.473C192.06 37.0146 190.806 38.7541 190.806 40.8801C190.806 43.374 192.846 44.9326 196.239 44.9326C199.632 44.9326 202.232 43.3802 203.344 40.506V40.4998Z" fill="#334155"/>
<path d="M210.174 45.4875L212.03 41.9088C214.12 43.4176 217.464 44.4962 220.666 44.4962C224.796 44.4962 226.517 43.2243 226.517 41.1046C226.517 35.4996 210.961 40.3501 210.961 30.4121C210.961 25.9356 214.907 22.9243 221.225 22.9243C224.427 22.9243 228.054 23.7722 230.186 25.1875L228.281 28.7662C226.05 27.3073 223.591 26.7898 221.176 26.7898C217.273 26.7898 215.374 28.2487 215.374 30.2251C215.374 36.1106 230.973 31.3099 230.973 41.011C230.973 45.5311 226.886 48.4053 220.34 48.4053C216.253 48.4053 212.215 47.1335 210.174 45.4875Z" fill="#334155"/>
<path d="M255.908 37.1529H235.944C236.504 41.5358 239.983 44.4537 244.857 44.4537C247.733 44.4537 250.149 43.4623 251.962 41.4423L254.42 44.3601C252.189 46.9974 248.803 48.4127 244.715 48.4127C236.774 48.4127 231.482 43.0883 231.482 35.6503C231.482 28.2124 236.731 22.9316 243.836 22.9316C250.942 22.9316 256 28.1126 256 35.7875C256 36.1616 255.951 36.7289 255.908 37.1529ZM235.944 33.9046H251.734C251.267 29.7149 248.157 26.7472 243.843 26.7472C239.528 26.7472 236.412 29.6651 235.951 33.9046H235.944Z" fill="#334155"/>
</svg>
