<svg width="500" height="160" viewBox="0 0 500 160" fill="none" xmlns="http://www.w3.org/2000/svg">
<g clip-path="url(#clip0_2080_8209)">
<path d="M187.886 123.539C188.223 121.479 189.32 119.715 190.145 117.854C193.786 109.64 198.068 101.797 203.159 94.3623C207.641 87.817 213.215 83.4981 221.307 82.213C227.828 81.1773 234.134 78.9675 240.412 76.8467C241.05 77.5857 241.064 78.5457 241.25 79.4198C243.734 91.0905 258.152 91.139 263.689 85.404C265.307 83.7285 266.564 81.8776 267.609 79.8293C268.068 78.9286 268.314 77.8765 269.222 77.2503C276.524 79.7321 283.945 81.8147 291.391 83.8117C294.64 84.6828 296.95 86.9093 298.973 89.4466C304.702 96.6327 308.644 104.798 311.904 113.321C313.026 116.256 314.023 119.239 315.057 122.207C315.318 122.957 315.615 123.711 315.536 124.536C311.155 124.722 307.335 126.58 303.543 128.537C301.209 129.741 299.338 131.625 297.054 132.901C295.662 132.074 295.103 130.727 294.769 129.239C294.58 127.398 293.817 125.729 293.19 124.023C292.284 121.561 291.463 119.065 290.512 116.625C289.842 114.906 288.639 113.429 288.575 111.439C288.494 108.94 288.388 106.45 288.646 104.123C288.329 105.775 288.564 107.617 288.465 109.442C288.436 109.987 288.761 110.786 287.757 110.895C285.882 109.698 283.803 109.634 281.661 109.637C260.585 109.666 239.508 109.656 218.431 109.65C217.406 109.65 216.373 109.741 215.366 109.468C214.477 109.181 214.439 108.368 214.355 107.659C214.191 106.276 214.03 104.885 214.165 103.649C214.147 103.255 213.819 103.576 214.02 103.467C214.079 103.435 214.125 103.483 214.115 103.607C213.969 105.474 214.507 107.311 214.362 109.179C213.603 109.734 212.714 109.539 211.874 109.606C209.248 109.813 208.211 111.205 208.42 113.826C208.706 117.407 208.9 121.002 208.919 124.591C208.933 127.237 207.4 129.281 205.67 131.148C205.092 131.249 204.722 130.847 204.309 130.567C199.747 127.474 194.829 125.226 189.362 124.29C188.781 124.19 188.269 124.004 187.886 123.539Z" fill="#76797E"/>
<path d="M205.403 131.09C207.842 128.135 208.942 124.864 208.336 120.953C207.927 118.314 207.992 115.599 207.889 112.916C207.802 110.659 208.977 109.376 211.232 109.217C212.257 109.146 213.286 109.134 214.313 109.095C214.528 108.888 214.752 108.912 214.98 109.07C224.576 109.097 234.172 109.138 243.768 109.146C257.136 109.157 270.505 109.162 283.873 109.118C285.589 109.113 287.02 109.493 288.1 110.871C288.972 111.634 288.709 112.736 288.945 113.689C289.024 118.912 289.109 124.137 288.808 128.742C288.769 126.048 289.325 122.792 289.688 119.518C289.745 119.007 289.768 118.488 290.138 118.076C291.045 117.736 291.222 118.522 291.42 119.028C292.718 122.33 293.943 125.66 295.146 128.998C295.181 129.093 295.118 129.214 295.072 129.32C295.549 130.591 296.259 131.731 297.032 132.836C297.702 133.986 296.8 134.357 296.042 134.72C294.542 135.438 292.917 135.793 291.29 136.046C289.856 136.269 289.294 136.917 289.287 138.417C289.274 141.303 289.667 144.218 288.848 147.073C288.567 148.05 289.342 147.984 289.965 148.091C291.008 148.269 292.276 147.613 293.037 148.884C291.623 149.156 289.962 148.388 288.841 149.884C287.319 150.694 286.929 150.623 286.273 149.201C286.032 148.681 285.687 148.554 285.223 148.502C284.54 148.426 283.853 148.457 283.167 148.456C260.077 148.455 236.987 148.456 213.897 148.453C212.871 148.452 211.837 148.527 210.828 148.262C209.727 147.843 209.355 146.891 209.134 145.862C208.821 144.408 208.632 142.941 208.653 141.445C208.677 139.791 208.632 138.144 208.449 136.489C208.297 135.116 207.833 134.169 206.573 133.497C205.714 133.038 204.728 132.404 205.403 131.09Z" fill="#F7F7F7"/>
<path d="M45.0003 94.6513C51.0184 84.9017 54.1863 74.2437 55.7293 62.9286C56.9059 54.2995 59.2391 45.9038 63.6768 38.2708C69.8825 27.5966 82.3072 22.0412 94.1346 24.6015C96.6767 25.1518 99.0646 26.0552 101.062 27.8056C101.356 28.0633 101.713 28.2852 102.08 28.4177C110.861 31.5908 115 38.5288 117.088 47.0535C118.433 52.5428 118.428 58.1638 118.315 63.7733C118.084 75.2665 116.682 86.708 116.776 98.2162C116.78 98.7287 116.818 99.2411 116.84 99.7535C117.262 100.414 117.278 101.158 117.254 101.901C117.163 104.645 117.413 107.36 117.925 110.055C118.018 110.543 118.267 111.257 117.719 111.445C117.059 111.671 116.78 110.944 116.566 110.429C115.203 107.143 114.583 103.667 113.902 99.8358C113.928 99.9644 113.67 100.295 113.871 100.185C113.91 100.163 113.944 100.207 113.964 100.318C114.042 100.767 114.133 101.213 114.217 101.66C114.313 102.167 114.493 102.766 113.853 102.982C113.224 103.194 112.91 102.637 112.757 102.158C112.223 100.482 111.551 98.843 111.237 97.1182C110.837 97.6071 110.368 98.4353 109.903 97.0942C109.754 96.664 109.779 96.1916 109.632 95.7586C109.166 94.8594 108.381 94.3098 107.555 93.7756C104.629 91.8826 101.478 90.3756 98.5425 88.5009C97.9222 88.0475 96.8382 88.461 96.5213 87.4299C95.8986 84.3167 95.5211 81.1704 95.1841 78.0189C95.2069 77.8356 95.2698 77.6647 95.3675 77.5081C96.0618 76.9468 96.7913 77.2995 97.494 77.4617C101.659 78.4226 104.611 77.3499 107.252 73.507C110.233 69.1695 112.151 64.348 111.88 58.8943C111.804 57.3583 111.842 55.8181 112.098 54.2799C112.341 52.8217 112.024 52.5954 110.484 52.8383C109.749 52.9542 109.035 53.1733 108.3 53.2835C107.856 53.35 107.332 53.4717 107.099 52.9335C106.889 52.446 107.216 52.0564 107.531 51.7172C108.234 50.9597 109.134 50.6866 110.145 50.6215C111.983 50.5032 112.034 50.4019 111.786 48.5752C111.233 44.4997 109.476 41.1826 105.801 39.0872C103.974 38.0453 103.637 38.1731 103.012 40.108C102.112 42.894 100.925 45.5398 99.4218 48.058C98.5339 49.5457 98.6378 49.6808 100.289 49.9837C101.332 50.1751 102.253 50.5972 103.003 51.345C103.366 51.708 103.759 52.1563 103.41 52.6938C103.101 53.1708 102.584 52.9585 102.155 52.8252C101.003 52.4672 99.8412 52.2446 98.6251 52.1959C97.2538 52.1409 96.3879 52.6673 95.7653 53.9005C94.7405 55.9303 93.7702 58.0087 92.1854 59.6992C90.9259 59.4671 91.629 58.6733 91.8418 58.1875C92.5926 56.4735 93.5968 54.8824 94.3792 53.1833C94.7795 52.5298 94.3925 52.2568 93.8331 52.0668C93.513 51.8822 93.2165 51.6327 93.5038 51.2619C94.837 49.5411 95.7179 47.5417 96.9392 45.7541C97.0756 45.5544 97.2964 45.4869 97.541 45.5667C98.1325 46.3369 97.378 46.8362 97.1205 47.3966C96.7782 48.1419 96.3353 48.8454 95.9639 49.5825C97.0142 47.5027 98.3078 45.558 99.3193 43.455C100.33 41.3543 101.32 39.2488 101.897 36.9729C101.222 39.5932 100.028 41.9966 98.8137 44.3871C98.5555 44.8954 98.4745 45.6722 97.6009 45.6055C97.1959 45.2233 97.4681 44.9034 97.668 44.5647C95.9803 47.34 94.1962 50.0592 92.6553 52.9259C90.9548 55.7088 89.4232 58.589 87.7568 61.3909C87.4406 61.9226 87.2164 62.5437 86.5906 62.8312C86.3028 62.8487 86.137 62.7005 86.0575 62.4407C86.0442 62.3282 86.0298 62.1688 86.1089 62.12C86.3015 62.0011 86.266 61.7855 86.1054 61.9487C85.9449 62.1119 86.1774 61.7702 86.078 61.9752C83.8104 66.6475 80.6089 70.8082 78.6583 75.662C77.6569 78.1542 77.0426 80.7229 76.5585 83.2177C77.4453 81.3862 77.5663 79.1101 79.0858 77.4252C79.5208 77.4951 79.6033 77.8207 79.6396 78.182C78.8713 81.2612 77.7329 84.2219 76.7323 87.227C76.5089 87.8978 75.9187 88.3051 75.5459 88.8697C75.265 89.2212 74.9506 89.5345 74.5477 89.7473C74.3033 89.8617 74.0453 89.9321 73.7807 89.9787C70.524 91.0514 67.1952 91.8966 63.976 93.0897C62.9818 93.3749 62.0783 93.8847 61.1127 94.2397C56.7623 95.8394 53.9672 98.8463 52.2935 103.201C49.4625 110.568 46.5328 117.905 44.4944 125.529C43.3235 129.908 40.3019 132.444 36.847 134.769C36.5131 134.993 36.0483 135.221 35.789 134.781C35.5181 134.322 35.9343 133.92 36.2214 133.585C38.867 130.489 40.2212 126.832 40.9178 122.883C40.9774 122.546 41.0912 122.207 41.0726 121.868C40.7191 115.436 42.6491 109.191 42.59 102.76C42.5645 99.9476 43.5525 97.1647 45.0003 94.6513Z" fill="#412E22"/>
<path d="M439.957 80.8721C443.246 82.3314 446.715 83.2647 450.127 84.362C451.704 84.8688 453.29 85.3439 454.864 85.8601C460.111 87.5814 463.654 91.027 465.381 96.2979C466.436 97.1867 466.573 98.4758 466.812 99.6974C468.176 106.662 469.165 113.689 470.276 120.696C471.145 126.178 471.796 131.686 472.288 137.213C472.493 139.514 472.302 141.783 471.757 144.026C471.107 146.696 469.515 148.493 466.863 149.275C466.253 149.455 465.708 149.764 465.114 149.972C460.361 150.533 455.622 150.521 450.838 150.178C446.307 149.852 441.738 150.106 437.185 150.105C433.131 150.122 429.097 149.586 425.034 149.733C422.426 149.827 422.084 149.344 422.353 146.697C422.746 145.454 423.776 145.363 424.836 145.348C426.154 145.329 427.44 145.649 428.753 145.719C429.69 145.768 430.138 145.455 430.134 144.482C430.126 142.485 430.126 140.488 430.134 138.491C430.137 137.452 429.594 137.079 428.638 137.078C427.662 137.077 426.711 136.895 425.77 136.637C422.512 135.745 422.395 135.604 422.211 132.243C422.506 119.688 422.61 107.133 422.551 94.5762C422.548 93.9475 422.59 93.3197 422.811 92.7244C423.646 90.9867 425.155 89.8182 426.468 88.485C426.936 88.0093 427.446 87.4146 428.23 87.7405C429 88.0611 429.241 88.8008 429.306 89.5579C429.421 90.914 429.632 92.2511 429.853 93.5722C430.527 93.698 430.718 93.1893 430.973 92.8666C433.896 89.1602 437.077 85.6421 439.374 81.4732C439.512 81.2219 439.685 80.9968 439.957 80.8721Z" fill="#454343"/>
<path d="M336.494 97.3944C336.728 98.5376 337.646 98.1059 338.291 98.107C350.114 98.1259 361.937 98.1161 373.76 98.1117C376.814 98.1105 377.526 98.6084 378.421 101.526C379.826 106.103 381.2 110.69 382.587 115.273C383.986 117.426 384.279 119.965 384.952 122.353C387.208 130.355 389.503 138.341 392.203 146.206C392.334 146.586 392.468 146.961 392.359 147.37C391.653 147.983 391.435 149.104 390.339 149.324C385.946 149.52 381.553 149.359 377.162 149.416C375.766 149.407 374.37 149.409 372.974 149.415C371.678 149.407 370.381 149.409 369.084 149.417C359.863 149.381 350.643 149.472 341.426 149.376C340.33 149.264 339.452 148.635 338.524 148.125C338.296 148.018 338.107 147.862 337.956 147.662C337.64 147.101 337.334 146.528 336.521 146.687C333.379 146.704 330.241 146.75 327.103 146.677C326.792 146.671 326.481 146.67 326.169 146.676C324.597 146.648 323.012 146.909 321.46 146.455C320.685 145.838 321.291 145.612 321.788 145.481C322.623 145.261 323.493 145.382 324.347 145.359C324.945 145.376 325.543 145.332 326.142 145.343C326.428 145.359 326.715 145.361 327.001 145.361C329.686 145.352 332.373 145.373 335.059 145.352C336.834 145.338 336.954 145.183 336.446 143.447C334.682 137.415 333.002 131.358 331.118 125.361C330.946 124.816 330.762 124.274 330.746 123.694C330.77 121.647 329.817 119.839 329.312 117.924C328.019 113.029 326.714 108.135 325.218 103.299C324.524 101.057 325.131 99.3064 326.663 97.7188C326.925 97.8446 327.269 98.2558 327.314 97.5583C327.34 97.1657 327.32 96.7702 327.32 96.376C328.021 96.4109 327.945 97.0603 328.187 97.4569C329.496 98.4604 330.893 98.0431 332.282 97.7171C332.528 97.5323 332.756 97.3066 333.097 97.3417C333.237 97.4524 333.281 97.6014 333.251 97.7772C333.405 97.6452 333.263 97.4661 333.324 97.3182C333.421 97.0831 333.593 96.9827 333.844 97.0191C334.609 97.9712 335.576 97.5106 336.494 97.3944Z" fill="#9A9999"/>
<path d="M491.425 150.312C491.422 151.905 491.418 153.499 491.415 155.092C490.828 155.44 490.183 155.267 489.568 155.267C331.266 155.275 172.964 155.275 14.6623 155.273C12.2789 155.273 12.5847 155.462 12.5739 153.139C12.5599 150.135 12.5695 150.135 15.5085 150.135C19.9153 150.135 24.3311 150.317 28.7273 150.1C41.7026 149.459 54.6814 150.02 67.6563 149.809C105.219 149.822 142.782 149.809 180.345 149.812C181.486 149.812 182.629 149.776 183.736 150.131C191.919 150.14 200.108 150.345 208.282 150.095C233.043 149.338 257.809 149.66 282.566 149.857C294.849 149.954 307.144 150.299 319.421 150.064C346.074 149.554 372.726 150.021 399.378 149.809C404.241 149.821 409.104 149.841 413.966 149.807C426.093 149.724 438.219 149.938 450.345 150.011C455.773 150.044 461.189 150.001 466.614 149.858C474.724 149.644 482.832 150.364 490.948 150.144C491.135 150.139 491.271 150.243 491.425 150.312Z" fill="#535352"/>
<path d="M181.366 96.7098C183.071 97.3622 183.247 98.6543 182.801 100.187C181.113 105.994 179.422 111.801 177.724 117.605C175.113 126.531 172.477 135.449 169.906 144.386C169.614 145.404 168.825 146.472 169.688 147.602C169.805 147.762 169.829 147.935 169.76 148.123C169.582 148.376 169.321 148.471 169.031 148.515C167.84 148.982 166.604 149.094 165.332 149.091C158.703 149.072 152.067 149.271 145.448 149.019C140.652 148.836 135.859 148.828 131.065 148.717C128.129 148.65 126.859 146.84 127.697 143.999C129.28 138.634 131.238 133.39 132.901 128.052C135.82 118.681 138.999 109.392 141.869 100.006C142.747 97.1356 143.498 96.5647 146.531 96.575C147.214 96.5773 147.903 96.4899 148.58 96.673C156.78 96.822 164.978 96.7063 173.176 96.7331C175.906 96.742 178.636 96.7836 181.366 96.7098Z" fill="#8E8E8D"/>
<path d="M395.953 46.2542C396.366 45.9863 396.869 45.8384 396.203 45.2062C393.908 43.0282 392.42 40.4773 392.813 37.1491C392.899 36.4235 392.279 36.2123 391.834 35.8794C387.984 33.0031 387.687 29.4329 391.081 26.0263C391.559 25.5457 391.635 25.1286 391.603 24.5302C391.389 20.4888 394.612 16.2558 398.712 16.9112C399.462 17.0312 399.682 16.4719 400.03 16.0365C401.902 13.6973 404.046 13.0595 406.875 14.0258C407.414 14.2099 407.86 14.5431 408.362 13.8796C410.247 11.3855 412.884 11.2486 415.659 11.6892C416.446 11.8142 417.242 12.0016 417.978 12.2996C420.14 13.1757 422.164 13.8299 424.678 13.1652C427.03 12.5433 429.131 13.7984 430.39 16.0444C430.698 16.5949 430.868 17.0094 431.771 16.8363C434.736 16.2673 436.461 17.5013 437.065 20.48C437.201 21.1506 437.245 21.5177 438.116 21.6384C441.067 22.0477 442.802 23.7896 443.269 26.7824C443.463 28.0249 443.806 28.9356 444.89 29.7629C446.952 31.3357 447.489 34.207 446.317 36.6077C445.821 37.6231 445.631 38.3185 446.5 39.2982C447.807 40.7719 447.609 42.5889 447.004 44.3397C446.724 45.1474 446.414 45.9596 445.996 46.7011C445.242 48.0382 444.696 49.2401 444.978 50.9734C445.45 53.8777 443.285 56.5533 439.959 57.1002C437.551 57.4962 436.044 58.3868 435.333 60.7647C435.014 61.8322 434.247 62.7658 433.683 63.7601C432.804 63.5832 432.751 62.8188 432.689 62.1827C432.555 60.8251 432.282 59.4745 432.376 58.1722C432.849 67.5117 424.807 76.4551 414.95 77.9507C414.352 78.0414 413.717 78.3018 413.134 77.8609L413.126 77.857C411.915 77.4034 410.634 77.8949 409.413 77.5844C402.736 76.9237 399.041 72.8405 399.04 66.1279C399.04 65.2187 399.02 64.3095 399.01 63.4003C398.881 61.6883 398.342 59.8902 400.203 58.6531C400.685 58.3331 400.442 57.8551 400.169 57.453C399.917 57.0813 399.444 56.8926 399.322 56.4144C399.539 55.8936 399.969 55.887 400.429 55.9521C400.539 55.9864 400.685 56.0088 400.734 56.0941C401.974 58.2566 403.8 58.2343 405.887 57.5868C407.707 57.0221 409.61 57.1017 411.497 57.1419C413.096 57.1761 414.203 57.9115 414.823 59.3848C414.955 59.7006 415.083 60.0184 415.213 60.3354C416.49 63.4524 417.158 63.7333 420.229 62.4446C426.491 59.8174 429.152 55.8276 429.162 49.0807C429.163 47.7679 429.118 46.4566 429.102 45.1447C429.544 44.6531 428.786 44.6901 428.77 44.4007C428.517 43.2263 428.233 42.0656 427.749 40.955C427.099 39.4627 426.189 38.2956 424.478 37.9773C424.143 37.915 423.799 37.8075 423.518 37.6168C417.15 33.2959 410.335 34.4426 403.49 35.97C402.989 36.0818 402.511 36.3193 402.004 36.3873C399.623 36.7068 398.592 38.1595 398.38 40.4472C398.295 41.3585 398.144 42.1361 399.21 42.5752C399.849 42.8384 400.13 43.4052 400.092 44.1064C400.05 44.87 399.554 45.2319 398.881 45.3341C398.369 45.4121 398.093 45.7486 397.783 46.0805C397.203 46.4634 396.619 46.8018 395.953 46.2542Z" fill="#342E27"/>
<path d="M45.0003 94.6515C42.704 100.317 43.1788 106.412 42.2358 112.286C41.6899 115.686 41.8333 119.117 41.4363 122.497C40.9027 127.04 39.1787 131.193 35.5862 134.926C39.9555 132.322 43.0622 129.481 44.2888 124.719C46.3824 116.592 49.5285 108.798 52.7222 101.045C53.5994 98.9149 55.0623 97.1254 57.0391 95.8393C59.1989 94.4343 61.5281 93.3964 64.0009 92.6778C66.7335 92.6073 67.7482 93.7614 67.6509 96.8237C67.3341 99.9365 67.329 103.066 66.8364 106.176C65.8715 112.268 64.4726 118.256 62.9666 124.225C62.7176 125.213 62.2661 126.166 62.4786 127.228C62.1128 129.94 61.1315 132.497 60.4551 135.133C59.8543 137.853 59.6827 138.003 56.8142 137.54C55.7359 137.366 54.5297 137.74 53.5909 136.882C53.547 136.718 53.5304 136.554 53.726 136.475C53.8275 136.434 54.0254 136.372 54.0364 136.392C54.15 136.589 54.2892 136.578 54.1104 136.435C54.0789 136.41 54.0409 136.379 53.994 136.376C50.6367 136.122 47.2187 135.276 44.1024 137.389C43.9091 137.52 43.7389 137.652 43.706 137.903C43.3092 138.627 42.6671 139.116 42.0363 139.596C38.7002 142.133 38.7559 146.25 42.1706 148.722C42.4679 148.938 43.0139 149.038 42.8687 149.537C42.7343 150 42.2263 149.951 41.8399 149.943C38.7126 149.876 35.5803 150.143 32.4548 149.807C31.6193 149.205 31.5696 148.251 31.3816 147.371C29.6531 139.278 28.4368 131.094 26.9919 122.95C25.5963 115.084 24.468 107.18 23.454 99.2577C23.3598 98.5215 23.1847 97.7792 23.7723 97.1486C25.5864 96.2927 27.5704 96.487 29.4798 96.2692C34.6476 95.6799 39.8261 95.1843 45.0003 94.6515Z" fill="#6B6B6C"/>
<path d="M382.935 114.551C385.794 106.616 388.366 98.5364 393.922 91.9144C395.792 89.6858 398.097 88.0596 400.848 87.0378C403.848 85.9233 406.883 84.9515 410.027 84.3359C410.795 84.6507 410.835 85.3883 410.99 86.0405C411.387 87.7126 411.897 89.3467 412.533 90.9431C412.9 91.8637 413.427 92.085 414.191 91.3534C415.024 90.557 415.877 90.0287 417.095 90.6529C418.403 91.3234 418.788 92.3892 418.764 93.7589C418.719 96.2796 418.183 98.7399 417.91 101.232C417.421 105.706 416.771 110.159 416.332 114.64C415.776 120.31 415.444 125.996 414.933 131.669C414.907 131.957 414.808 132.224 414.642 132.465C413.849 133.108 412.898 132.946 412.003 132.927C408.221 132.848 404.461 133.113 400.71 133.549C398.261 133.833 396.137 134.837 394.19 136.377C392.936 137.369 391.772 138.733 389.877 138.501C388.898 137.707 388.902 136.467 388.584 135.414C386.725 129.259 385.07 123.044 383.274 116.87C383.05 116.098 383.137 115.309 382.935 114.551Z" fill="#454444"/>
<path d="M242.421 71.7254C238.832 68.8635 237.962 64.7662 237.361 60.5541C237.274 59.9391 237.301 59.3076 237.275 58.6838C236.598 58.1904 236.488 57.4687 236.514 56.7118C236.558 55.452 236.313 54.2264 236.133 52.9906C235.9 51.3906 235.591 49.8454 234.119 48.8453C233.718 48.5721 233.668 48.0783 233.511 47.6585C232.222 46.3653 231.783 44.7347 231.759 42.9847C231.748 42.2489 231.566 41.7147 231.027 41.1872C229.937 40.1187 229.39 38.8129 230.014 37.3022C230.288 36.6381 229.869 36.3858 229.561 35.994C228.186 34.2478 228.517 32.5391 230.461 31.4359C231.051 31.1008 231.602 31.0671 231.084 30.0206C230.36 28.559 231.26 27.3818 232.579 26.6434C233.194 26.2989 233.637 25.9924 233.863 25.2259C234.506 23.0554 236.091 22.0265 238.401 22.1603C239.014 22.1958 239.382 22.3789 239.434 21.4304C239.572 18.9272 241.724 17.6703 244.066 18.7027C244.74 18.9999 244.902 18.9664 245.336 18.3597C246.705 16.451 248.382 16.1978 250.349 17.5473C250.842 17.8857 251.002 17.8555 251.427 17.4709C253.726 15.39 255.394 15.3274 257.762 17.2479C258.229 17.6258 258.463 17.694 259.046 17.4368C261.976 16.1441 264.392 17.0618 265.792 20.0018C266.065 20.5748 266.333 20.5471 266.818 20.5394C270.705 20.4785 272.096 22.2196 271.067 25.8129C274.037 26.1074 274.219 26.3071 274.031 29.5605C274 30.0967 274.34 30.2382 274.588 30.5144C276.1 32.1965 276.224 33.4315 275.073 35.2719C274.929 35.5017 274.672 35.8178 274.736 35.9964C275.634 38.4787 273.903 40.7 274.062 43.1348C274.15 44.4771 273.503 45.8003 272.734 46.9685C270.742 49.1476 271.324 51.76 271.44 54.32C271.491 55.4219 271.736 56.6029 270.984 57.6156C270.837 59.8328 270.839 62.0592 270.324 64.2462C269.72 66.8108 268.449 69.001 266.769 70.9861C265.994 72.9643 264.226 73.9152 262.521 74.7759C256.15 77.9901 249.957 77.3146 243.952 73.6798C243.165 73.2031 242.816 72.4662 242.421 71.7254Z" fill="#1C1C1C"/>
<path d="M96.9021 87.7693C97.4064 88.2465 98.1853 87.132 98.611 88.064C98.6176 88.3114 98.7404 88.5148 98.9372 88.6293C102.656 90.7926 106.325 93.0366 109.954 95.3464C110.598 95.9439 110.02 96.7952 110.427 97.5011C111.528 97.0801 110.144 96.0187 111.089 95.4128C111.891 97.9115 112.673 100.349 113.551 103.086C114.455 101.591 113.209 100.377 113.874 99.1466C115.13 103.201 115.639 107.446 117.555 111.257C116.823 107.443 116.593 103.613 116.841 99.7534C117.883 100.235 118.176 101.257 118.566 102.193C121.997 110.414 125.406 118.644 128.849 126.86C129.437 128.265 130.152 129.617 130.808 130.994C130.957 132.583 130.223 133.987 129.797 135.437C128.834 138.709 127.665 141.919 126.605 145.163C126.19 146.433 125.454 147.021 124.111 146.999C121.948 146.962 119.783 146.963 117.621 146.999C116.505 147.018 115.665 146.5 114.84 145.876C113.412 144.52 112.183 142.974 110.792 141.581C110.383 141.172 110.207 140.625 110.158 140.044C110.497 135.258 110.908 130.477 111.345 125.7C111.471 124.321 111.512 122.967 111.251 121.602C109.704 113.511 108.039 105.441 106.567 97.3357C106.253 95.6065 105.456 94.8491 103.738 94.4832C100.897 93.8784 97.9607 93.6389 95.2439 92.4968C94.8396 90.587 95.8431 89.1684 96.9021 87.7693Z" fill="#6B6A6B"/>
<path d="M293.037 148.884C291.642 148.58 290.223 148.543 288.806 148.56C288.144 148.568 287.689 148.29 288.015 147.692C289.156 145.602 288.659 143.358 288.759 141.175C288.835 139.531 288.233 137.544 288.963 136.33C289.655 135.179 291.876 135.609 293.371 135.126C294.291 134.83 295.204 134.515 296.124 134.22C296.807 134.001 297.211 133.614 297.032 132.836C299.821 129.974 303.235 128.046 306.822 126.417C309.157 125.356 311.624 124.653 314.12 124.041C314.83 123.867 315.177 124.05 315.537 124.537C316.588 128.328 317.683 132.107 318.679 135.912C320.208 141.757 315.858 147.929 309.793 148.445C304.221 148.919 298.629 148.973 293.037 148.884Z" fill="#684733"/>
<path d="M205.402 131.09C205.373 132.587 206.464 133.155 207.598 133.566C208.617 133.934 208.906 134.54 208.938 135.59C209.031 138.709 209.24 141.825 209.438 144.941C209.507 146.032 209.807 147.066 210.601 147.887C210.75 148.157 210.737 148.419 210.563 148.674C209.987 149.192 209.281 148.545 208.685 148.884C203.766 148.947 198.854 148.725 193.944 148.486C188.887 148.24 185.246 145.299 183.981 140.543C183.589 139.073 183.592 137.619 183.975 136.141C185.077 131.877 186.427 127.691 187.886 123.539C193.809 124.422 199.227 126.587 204.181 129.941C204.658 130.264 205.127 130.566 205.402 131.09Z" fill="#674733"/>
<path d="M465.313 149.571C465.525 149.2 465.839 149.021 466.267 148.933C469.347 148.301 470.849 146.2 471.484 143.292C472.265 139.71 471.741 136.127 471.343 132.58C470.736 127.167 469.967 121.766 469.082 116.391C467.976 109.671 467.298 102.869 465.382 96.2979C470.367 96.7638 475.353 97.23 480.338 97.6954C480.958 97.7533 481.601 97.7258 482.111 98.1836C482.666 98.767 482.481 99.4605 482.396 100.136C480.425 115.928 477.736 131.603 474.729 147.226C474.54 148.209 474.503 149.319 473.41 149.877C471.075 150.046 468.737 149.925 466.401 149.945C466 149.949 465.595 149.929 465.313 149.571Z" fill="#6C6C6E"/>
<path d="M413.133 77.8609C417.262 77.2658 421.121 75.9731 424.408 73.3178C429.4 69.2848 432.08 64.0967 432.092 57.6152C432.093 57.2754 432.092 56.9356 432.092 56.3789C432.963 57.1722 432.61 58.0553 432.739 58.8028C432.874 59.587 432.932 60.3846 433.017 61.1771C433.113 62.071 433.041 63.0067 433.682 63.7597C433.82 67.2737 435.131 70.5239 435.95 73.8851C436.164 74.7661 437.098 74.1743 437.47 74.6922C437.244 75.1337 436.709 75.4295 436.828 76.0331C437.141 77.6111 436.204 78.5913 435.198 79.5809C432.471 82.2658 429.807 85.0079 426.813 87.4178C425.583 88.4085 424.607 89.7233 423.681 91.0301C423.352 91.4954 423.102 92.0243 422.512 92.2355C421.31 92.527 420.133 92.4297 418.976 92.0124C416.989 91.0755 415.805 89.6231 415.014 87.4641C414.057 84.8494 413.305 82.1946 412.533 79.5346C413.195 79.1423 413.222 78.5224 413.133 77.8609Z" fill="#BA7E5A"/>
<path d="M242.421 71.725C244.987 74.372 248.248 75.578 251.784 76.1296C257.667 77.0471 262.607 75.1271 266.769 70.9854C267.168 73.2375 267.403 75.554 269.222 77.2502C267.288 82.2057 264.7 86.5638 259.386 88.6343C254.013 90.7276 247.494 89.524 243.753 85.4333C241.573 83.0486 240.637 80.0555 240.412 76.8465C241.653 75.3634 242.599 73.7646 242.421 71.725Z" fill="#684833"/>
<path d="M23.7724 97.1484C24.2757 101.146 24.6801 105.159 25.3027 109.138C26.6629 117.831 28.097 126.513 29.5753 135.187C30.3286 139.607 31.2317 144.002 32.1021 148.402C32.1847 148.819 32.2229 149.324 32.6471 149.619C36.2707 149.851 39.8946 150.02 43.5095 149.509C44.0775 149.429 44.6434 149.404 45.2126 149.404C51.881 149.4 58.5493 149.397 65.2177 149.406C65.9552 149.407 66.705 149.358 67.4027 149.689C67.6267 149.805 67.7243 149.988 67.6966 150.238C56.9984 150.261 46.3002 150.288 35.6019 150.305C28.5072 150.317 21.412 150.36 14.3181 150.283C12.87 150.268 12.6291 150.789 12.6561 152.055C12.7203 155.079 12.6665 155.089 15.6069 155.089C155.9 155.09 296.194 155.089 436.487 155.089C454.797 155.089 473.106 155.091 491.415 155.092C490.933 155.721 490.248 155.42 489.665 155.42C387.803 155.434 285.942 155.432 184.08 155.43C127.598 155.429 71.1162 155.425 14.6345 155.42C12.3639 155.42 12.3639 155.411 12.3581 153.078C12.3505 149.989 12.3505 149.991 15.4126 149.991C19.7618 149.991 24.1112 149.96 28.4598 150.003C29.5911 150.014 29.9094 149.787 29.6774 148.55C28.1522 140.417 26.6293 132.282 25.288 124.118C23.9931 116.236 22.7617 108.337 22.3183 100.346C22.2461 99.0433 22.4003 97.8101 23.7724 97.1484Z" fill="#A5A5A5"/>
<path d="M210.561 148.596C210.575 148.359 210.588 148.123 210.601 147.886C235.49 147.89 260.379 147.893 285.267 147.899C287.283 147.899 287.354 147.996 286.662 149.885C287.423 149.885 288.132 149.885 288.841 149.884C299.059 149.903 309.277 149.912 319.495 149.955C320.471 149.96 320.772 149.609 320.77 148.658C320.749 138.212 320.737 127.765 320.78 117.32C320.788 115.222 319.287 116.201 318.37 115.959C318.553 114.994 319.368 115.227 319.984 115.135C321.8 114.864 323.622 115.114 325.441 115.126C326.304 115.131 327.141 114.991 327.979 114.825C328.638 115.005 328.616 115.462 328.445 115.977C327.569 116.925 327.021 120.523 327.545 121.701C327.771 122.208 328.193 122.275 328.645 122.326C329.256 122.395 329.89 122.343 330.445 122.698C330.712 123.012 331.032 123.319 330.564 123.718C327.487 124.615 327.487 124.615 327.487 128.025C327.486 133.116 327.497 138.208 327.477 143.299C327.474 144.138 327.626 145.034 326.962 145.745C326.728 145.759 326.494 145.774 326.261 145.789C325.903 144.74 326.07 143.653 326.069 142.587C326.064 137.366 326.1 132.144 326.099 126.923C326.098 126.298 326.141 125.673 325.917 125.075C325.418 123.198 323.84 124.039 322.767 123.982C321.721 123.926 321.985 125.059 321.981 125.732C321.949 131.149 321.964 136.567 321.964 141.985C321.964 144.573 321.967 144.573 324.408 145.305C324.595 145.437 324.641 145.607 324.546 145.815C323.513 145.855 322.479 145.895 321.446 145.941C321.422 145.942 321.382 146.019 321.385 146.057C321.39 146.108 321.431 146.155 321.456 146.204C321.887 146.655 321.964 147.232 321.927 147.8C321.836 149.228 322.624 149.491 323.846 149.487C325.055 149.484 325.869 149.252 325.78 147.813C325.745 147.245 325.818 146.667 326.25 146.216C326.486 146.231 326.723 146.247 326.959 146.262C327.224 146.508 327.325 146.827 327.388 147.171C327.804 149.439 327.805 149.44 330.147 149.444C331.687 149.446 333.23 149.391 334.768 149.46C336.1 149.519 336.85 149.107 336.762 147.647C336.73 147.132 336.851 146.622 337.237 146.224C338.137 146.275 337.915 147.114 338.201 147.596C338.583 149.614 338.583 149.614 340.825 149.279C343.17 149.265 345.511 149.276 347.852 149.272C348.909 149.273 349.966 149.272 351.024 149.272C352.748 149.273 354.471 149.272 356.195 149.272C360.484 149.273 364.771 149.272 369.059 149.272C370.354 149.273 371.65 149.272 372.946 149.272C374.349 149.273 375.752 149.272 377.155 149.272C381.764 149.274 386.373 149.269 390.981 149.274C392.88 149.587 394.794 149.36 396.7 149.432C397.537 149.463 398.393 149.339 399.19 149.72C399.41 149.838 399.475 150.015 399.387 150.248C386.054 150.253 372.722 150.262 359.39 150.264C301.423 150.272 243.456 150.278 185.489 150.282C184.919 150.282 184.348 150.238 183.778 150.215C183.645 150.17 183.598 150.117 183.634 150.055C183.672 149.989 183.711 149.956 183.752 149.956C192.331 149.935 200.91 149.915 209.489 149.894C209.867 149.605 210.314 149.408 210.766 149.5C213.425 150.044 216.112 149.685 218.783 149.794C218.933 149.8 219.114 149.745 219.122 149.782C217.133 149.781 215.071 149.775 213.009 149.784C211.992 149.788 211.063 149.64 210.561 148.596Z" fill="#E3E3E3"/>
<path d="M148.372 96.7546C147.686 96.7525 147 96.7437 146.315 96.7495C144.039 96.7689 143.139 97.4436 142.451 99.6058C139.39 109.228 136.339 118.854 133.256 128.469C131.601 133.631 129.874 138.769 128.207 143.928C127.245 146.905 128.251 148.261 131.419 148.286C142.902 148.375 154.384 148.418 165.866 148.582C167.066 148.6 168.133 147.803 169.333 148.248C169.324 149.358 168.392 149.502 167.655 149.854C166.862 150.025 166.059 149.953 165.261 149.954C154.343 149.959 143.423 149.824 132.508 149.989C116.106 150.236 99.7054 150.028 83.3046 150.129C82.2746 150.136 81.251 150.1 80.2312 149.954C79.6377 149.954 79.0998 149.818 78.7042 149.333C77.8991 147.343 78.4376 146.404 80.6005 146.359C85.0926 146.266 89.5867 146.303 94.0799 146.336C96.4819 146.471 98.8933 146.144 101.292 146.469C102.75 146.91 104.239 146.689 105.719 146.679C108.406 146.663 111.092 146.655 113.778 146.679C117.242 146.948 120.718 146.789 124.186 146.904C125.614 146.951 126.166 146.388 126.553 145.104C127.784 141.026 129.181 137 130.44 132.931C130.611 132.381 130.788 131.849 131.167 131.404C134.414 121.486 137.719 111.587 140.887 101.643C142.866 95.4317 143.126 96.2473 148.227 96.2906C152.166 96.3241 156.105 96.3704 160.044 96.4109C160.075 96.7894 159.841 96.8984 159.527 96.8927C155.808 96.8247 152.086 97.0869 148.372 96.7546Z" fill="#3C3B3A"/>
<path d="M473.559 149.552C474.801 145.758 475.263 141.799 475.962 137.896C477.221 130.853 478.415 123.798 479.534 116.732C480.377 111.407 481.062 106.056 481.811 100.715C481.929 99.874 482.012 99.0276 482.111 98.1836C483.534 98.8101 483.633 100.068 483.559 101.354C483.25 106.767 482.536 112.139 481.738 117.493C480.435 126.228 479.076 134.956 477.328 143.616C476.922 145.623 476.418 147.611 475.959 149.607C475.149 150.036 474.339 150.453 473.559 149.552Z" fill="#A4A4A5"/>
<path d="M422.765 91.903C424.061 89.1314 426.334 87.2162 428.608 85.3194C431.153 83.1958 433.396 80.7703 435.729 78.432C436.419 77.7406 436.671 76.9486 436.384 76.1067C435.994 74.9593 436.47 74.6711 437.471 74.6925C439.634 76.2151 440.143 78.4039 439.957 80.8723C439.135 83.4863 437.326 85.5022 435.75 87.6391C434.169 89.783 432.399 91.7867 430.724 93.8627C430.481 94.1646 430.363 94.6506 429.858 94.5267C429.3 94.3898 429.313 93.8838 429.274 93.4223C429.166 92.1244 429.057 90.8261 428.915 89.5318C428.845 88.9011 428.682 88.2097 428.045 87.9711C427.469 87.7553 427.166 88.3879 426.824 88.7328C425.663 89.9016 424.533 91.1013 423.391 92.2893C423.033 92.402 422.858 92.2178 422.765 91.903Z" fill="#363534"/>
<path d="M399.431 149.985C397.215 149.976 394.998 149.978 392.782 149.95C392.234 149.943 391.633 150.128 391.164 149.652C391.237 149.379 391.425 149.168 391.549 148.923C391.795 148.5 391.791 147.968 392.126 147.585C388.71 137.535 385.863 127.316 382.998 117.101C382.829 116.501 382.722 115.882 382.587 115.272C382.703 115.032 382.819 114.791 382.935 114.551C384.529 120.144 386.114 125.74 387.724 131.329C388.403 133.686 389.135 136.029 389.843 138.378C390.605 138.469 390.834 138.988 390.919 139.662C391.181 141.745 392.073 143.638 392.739 145.6C393.054 146.045 393.528 146.009 393.981 146.006C401.167 145.974 408.354 145.985 415.541 146.002C417.287 145.946 419.032 145.978 420.777 145.994C421.446 146 422.145 145.969 422.673 146.517C422.78 149.33 422.781 149.282 425.654 149.333C429.484 149.401 433.312 149.552 437.141 149.667C437.107 150.339 436.577 150.113 436.244 150.113C424.137 150.122 412.029 150.135 399.922 150.119C399.741 150.119 399.591 150.041 399.431 149.985Z" fill="#F3F2F2"/>
<path d="M333.039 97.3517C332.942 97.5973 332.845 97.8428 332.748 98.0884C331.376 98.7279 330.967 97.8404 330.842 96.7796C330.493 93.8236 329.528 90.9865 329.208 88.0271C329.156 87.5473 329.244 86.9987 328.63 86.5503C328.468 88.1303 328.811 89.5589 329.121 90.9701C329.527 92.8143 329.859 94.6676 330.068 96.5415C330.136 97.1545 330.225 97.9321 329.498 98.1725C328.91 98.3668 328.131 98.5896 327.702 97.7505C327.586 97.2891 327.679 96.7698 327.32 96.3759C326.89 92.742 326.102 89.1527 325.964 85.4824C327.825 84.9984 327.023 83.4419 327.247 82.2984C327.373 82.1854 327.499 82.0724 327.625 81.9594C328.582 81.7404 329.481 81.8593 330.302 82.4229C330.426 85.3574 330.947 88.2343 331.461 91.1207C332.641 87.3341 333.268 83.4803 333.87 79.6215C334.262 78.1132 335.193 78.4301 336.18 78.9399C336.456 80.8613 335.681 82.6357 335.378 84.4731C334.99 86.8305 334.319 89.1388 334.116 91.531C333.902 92.8548 334.176 94.2192 333.813 95.5252C333.636 96.1606 333.625 96.883 333.039 97.3517Z" fill="#414141"/>
<path d="M428.865 44.5053C428.986 44.6426 429.615 44.3666 429.211 44.9312C428.55 45.8327 427.497 45.7612 426.572 45.9421C424.048 46.4356 421.493 46.754 418.957 47.1822C417.788 47.3795 417.242 47.8762 417.378 49.1137C417.83 53.2556 413.861 55.9954 410.643 56.007C410.128 56.0089 409.614 56.0182 409.099 56.0164C405.356 56.0037 404.425 55.2792 403.472 51.6427C403.38 51.0879 403.533 50.5253 403.48 49.6914C402.761 50.5113 402.908 51.4574 402.399 52.0876C402.035 52.5375 401.656 53.0831 401.023 52.8758C400.309 52.6423 400.524 51.9836 400.595 51.4186C400.712 50.4869 401.24 49.5971 400.723 48.6029C399.963 47.1397 398.915 46.7809 396.441 47.2723C394.212 48.333 393.697 49.3161 394.029 51.8874C394.278 53.819 395.74 55.2445 397.982 55.7345C398.586 55.8159 399.034 55.4361 399.54 55.2215C399.995 55.0286 400.479 54.7658 400.868 55.3527C400.919 55.7326 400.731 55.9976 400.452 56.2186C400.07 56.2212 399.665 56.1468 399.396 56.5309C399.111 57.2201 398.625 57.2996 398.011 56.9844C394.291 56.6853 392.634 54.5511 392.276 52.3892C391.75 49.2057 392.824 47.3426 395.953 46.254C396.612 46.3914 397.146 45.9331 397.763 45.8736C399.31 45.0439 400.636 45.5819 401.817 46.6135C403.516 48.0985 403.612 48.1241 405.123 46.6135C407.442 44.2957 412.271 43.4761 415.353 45.01C416.554 45.6075 417.677 45.7407 418.971 45.5054C421.553 45.0362 424.157 44.6948 426.746 44.2632C427.469 44.1429 428.215 43.932 428.865 44.5053Z" fill="#211E1B"/>
<path d="M412.534 79.5347C413.48 79.4587 413.484 80.1303 413.5 80.7713C413.584 84.0065 415.481 86.6665 416.357 89.6542C416.68 90.7565 418.002 91.1259 419.023 91.6117C419.533 93.2475 419.196 94.9037 418.998 96.5162C417.951 105.026 416.792 113.525 416.149 122.077C415.97 124.461 415.748 126.859 415.813 129.263C415.679 129.987 415.729 130.73 415.617 131.452C415.529 132.026 415.497 132.807 414.512 132.431C414.801 126.753 415.32 121.093 415.811 115.43C416.267 110.162 417.072 104.942 417.617 99.6885C417.84 97.5427 418.256 95.4236 418.316 93.2515C418.354 91.8655 417.529 91.3885 416.52 90.86C415.433 90.2903 415.087 91.2324 414.569 91.726C412.95 93.2672 412.98 93.2842 412.078 91.194C411.125 88.9871 410.667 86.6346 410.026 84.3358C410.75 83.7325 410.345 82.8246 410.628 82.0856C411.032 81.0348 411.568 80.1392 412.534 79.5347Z" fill="#383736"/>
<path d="M330.793 123.484C330.619 123.26 330.234 123.208 330.258 122.824C329.315 120.619 328.403 118.406 328.35 115.954C328.332 115.576 328.368 115.178 327.972 114.941C326.902 113.993 327.244 112.636 326.962 111.459C325.084 104.294 323.201 97.1306 321.334 89.9626C321.005 88.697 320.748 87.4126 320.458 86.1369C321.25 85.5691 322.123 85.348 323.088 85.5312C324.002 86.5169 323.946 87.8394 324.281 89.0214C325.099 91.9136 325.871 94.8188 326.662 97.7188C326.621 97.9987 326.684 98.3787 326.524 98.5433C324.684 100.44 325.413 102.472 326.04 104.589C327.738 110.315 329.357 116.065 330.95 121.821C331.093 122.338 331.685 122.935 331.049 123.536C330.94 123.639 330.854 123.622 330.793 123.484Z" fill="#444343"/>
<path d="M79.996 149.692C85.1394 150.007 90.29 149.906 95.4364 149.896C118.899 149.853 142.362 149.758 165.826 149.686C166.569 149.684 167.308 149.704 167.982 149.318C168.234 149.398 168.497 149.416 168.758 149.454C170.401 149.614 172.036 149.393 173.677 149.348C175.957 149.621 178.243 149.326 180.522 149.445C181.206 149.48 181.894 149.46 182.567 149.623C182.878 149.679 183.168 149.787 183.434 149.959C183.539 149.94 183.645 149.939 183.751 149.956C183.765 150.042 183.773 150.128 183.777 150.215C177.434 150.251 171.091 150.316 164.748 150.319C133.024 150.331 101.3 150.328 69.5762 150.326C68.9495 150.326 68.3229 150.269 67.6964 150.239C67.6884 150.136 67.6773 150.034 67.6631 149.933C67.677 149.504 67.982 149.467 68.3055 149.453C72.2011 149.586 76.1062 149.27 79.996 149.692Z" fill="#BCBCBC"/>
<path d="M233.511 47.6582C236.853 49.7515 236.746 53.2024 236.964 56.509C237.013 57.248 237.049 57.9761 237.275 58.6837C235.088 58.5508 233.169 57.9154 231.755 56.0777C229.337 52.9343 230.021 49.5314 233.511 47.6582Z" fill="#5E4332"/>
<path d="M270.985 57.6154C270.855 55.352 271.215 53.0538 270.627 50.8267C270.097 48.8216 271.817 48.1338 272.735 46.9683C275.895 47.6705 277.049 49.1054 276.737 51.9465C276.379 55.2124 273.931 57.6243 270.985 57.6154Z" fill="#604434"/>
<path d="M399.431 149.986C411.345 149.978 423.258 149.975 435.171 149.951C435.828 149.949 436.547 150.18 437.141 149.667C444.087 149.719 451.032 149.797 457.977 149.809C460.423 149.813 462.868 149.656 465.314 149.572C468.063 149.702 470.811 149.702 473.559 149.552C474.349 149.998 475.16 149.566 475.96 149.607C476.466 150.163 477.135 149.931 477.732 149.934C481.719 149.954 485.706 149.93 489.692 149.956C490.274 149.96 490.96 149.665 491.426 150.312C474.343 150.316 457.259 150.33 440.176 150.32C426.58 150.311 412.983 150.273 399.387 150.248C399.397 150.16 399.412 150.072 399.431 149.986Z" fill="#C3C4C5"/>
<path d="M326.962 111.459C327.398 112.591 327.907 113.701 327.972 114.941C327.801 115.877 327.052 115.597 326.488 115.604C324.31 115.63 322.131 115.606 319.952 115.628C319.412 115.633 318.809 115.437 318.369 115.959C316.47 115.761 317.549 114.31 317.372 113.439C317.189 112.536 317.976 112.53 318.629 112.531C320.968 112.533 323.308 112.511 325.647 112.542C326.444 112.553 327.01 112.413 326.962 111.459Z" fill="#F1F1F2"/>
<path d="M336.493 97.3945C335.309 98.5734 334.119 98.4281 333.72 97.0557C333.453 95.5911 333.748 94.2284 334.467 92.9428C334.888 91.9441 334.651 90.7169 335.531 89.8779C336.394 89.5457 337.178 89.7154 337.906 90.2473C337.435 92.6297 336.964 95.0121 336.493 97.3945Z" fill="#494A4A"/>
<path d="M131.166 131.404C129.61 136.394 128.047 141.382 126.507 146.377C126.29 147.079 125.935 147.385 125.165 147.365C121.465 147.274 117.764 147.23 114.064 147.17C113.827 146.438 114.192 145.947 114.723 145.523C117.698 147.382 121.012 146.341 124.17 146.642C125.302 146.75 125.793 146.267 126.114 145.241C127.437 141.005 128.819 136.786 130.19 132.565C130.364 132.031 130.6 131.517 130.808 130.994C130.927 131.131 131.047 131.267 131.166 131.404Z" fill="#E6E4E4"/>
<path d="M148.371 96.7543C151.665 96.7381 154.959 96.7324 158.253 96.696C158.854 96.6893 159.513 96.9089 160.043 96.4106C166.936 96.4385 173.829 96.4644 180.722 96.5031C180.937 96.5043 181.151 96.6379 181.366 96.7098C180.937 97.264 180.321 97.0745 179.777 97.0748C169.793 97.0795 159.808 97.0716 149.824 97.0591C149.325 97.0584 148.784 97.1911 148.371 96.7543Z" fill="#686869"/>
<path d="M173.488 149.669C171.768 149.95 170.047 150.249 168.329 149.653C170.27 148.735 172.439 149.116 174.448 148.584C174.642 148.533 174.868 148.593 175.039 148.469C173.237 148.279 171.42 148.714 169.68 148.029C169.683 147.887 169.685 147.744 169.688 147.602C173.235 147.183 176.73 147.773 180.223 148.214C181.457 148.369 182.646 148.86 183.434 149.959C183.234 149.956 183.034 149.952 182.835 149.949C181.988 149.621 181.086 149.498 180.22 149.239C178.736 148.797 177.28 148.566 175.785 149.389C175.134 149.746 174.295 149.918 173.488 149.669Z" fill="#646263"/>
<path d="M398.011 56.9845C398.472 56.8334 398.934 56.6823 399.396 56.5311C400.617 56.3675 400.664 57.501 401.038 58.1471C401.493 58.9348 400.509 58.9914 400.142 59.2348C398.511 60.3183 399.13 61.9486 399.009 63.401C398.489 61.2908 398.219 59.1425 398.011 56.9845Z" fill="#AF7A5F"/>
<path d="M323.089 85.5313C322.347 86.3169 321.363 86.057 320.459 86.1371C320.445 85.2825 320.427 84.4281 320.419 83.5736C320.416 83.2508 320.268 82.8504 320.696 82.6905C321.101 82.5395 321.325 82.8366 321.496 83.1417C321.966 83.9791 322.792 84.5789 323.089 85.5313Z" fill="#E0CABB"/>
<path d="M330.302 82.4229C329.37 82.4988 328.446 82.5263 327.625 81.9593C328.035 81.2052 328.427 80.4553 328.359 79.5437C328.332 79.1841 328.243 78.6454 328.863 78.6739C329.29 78.6936 329.66 78.9872 329.635 79.4428C329.578 80.5085 330.118 81.4225 330.302 82.4229Z" fill="#E2CDBE"/>
<path d="M210.56 148.596C213.312 150.498 216.486 149.163 219.412 149.896C216.104 149.896 212.796 149.896 209.488 149.895C209.557 149.291 209.321 148.929 208.686 148.884C209.275 148.56 209.931 148.662 210.56 148.596Z" fill="#F7F7F7"/>
<path d="M337.906 90.247C337.113 90.1322 336.268 90.3554 335.531 89.8776C335.709 88.7532 336.536 87.857 336.64 86.6968C336.662 86.4553 336.891 86.1577 337.238 86.2366C337.579 86.314 337.603 86.6286 337.611 86.9121C337.64 88.0302 337.372 89.1737 337.906 90.247Z" fill="#DCCABF"/>
<path d="M336.18 78.9398C335.444 79.2836 334.31 78.2775 333.869 79.6215C333.862 78.0684 335.422 77.0288 335.261 75.4117C335.252 75.3209 335.601 75.0939 335.77 75.1075C336.089 75.1333 336.2 75.43 336.2 75.7297C336.199 76.7998 336.188 77.8698 336.18 78.9398Z" fill="#D8C7BB"/>
<path d="M334.467 92.9427C334.218 94.3136 333.969 95.6846 333.72 97.0556C333.594 97.4034 333.468 97.7513 333.271 98.2938C333.169 97.8775 333.104 97.6145 333.039 97.3515C333.366 95.4053 333.521 93.4274 334.116 91.5308C334.315 91.981 333.952 92.5712 334.467 92.9427Z" fill="#D3D1D1"/>
<path d="M327.247 82.2983C327.298 82.5152 327.324 82.7409 327.402 82.9476C328.169 84.9846 328.171 84.9838 325.964 85.4823C326.405 84.9765 326.724 84.4433 326.641 83.7153C326.579 83.1602 326.633 82.5934 327.247 82.2983Z" fill="#D2C6BF"/>
<path d="M409.412 77.5841C410.656 77.5911 411.925 77.2583 413.126 77.8567C411.889 77.754 410.622 78.0601 409.412 77.5841Z" fill="#BA7E5A"/>
<path d="M288.498 113.558C288.365 112.662 288.232 111.767 288.1 110.871C288.257 108.075 287.864 105.225 288.871 102.505C288.805 105.716 288.762 108.898 289.099 112.108C289.331 114.312 290.938 115.736 291.494 117.75C292.433 121.149 293.824 124.423 294.974 127.767C295.134 128.234 295.704 128.768 295.072 129.32C293.558 125.563 292.044 121.806 290.531 118.049C289.148 116.871 288.941 115.161 288.498 113.558Z" fill="#4A4C50"/>
<path d="M214.98 109.07C214.758 109.078 214.535 109.086 214.313 109.095C213.797 106.879 213.941 104.662 214.217 102.438C214.146 104.693 214.429 106.895 214.98 109.07Z" fill="#46484C"/>
<path d="M253.47 129.043C253.455 130.879 251.942 132.692 250.138 133.039C248.488 133.355 246.136 131.808 245.498 129.986C244.813 128.028 245.472 125.917 247.044 125.036C249.438 123.694 253.492 126.222 253.47 129.043Z" fill="#D3D2D2"/>
<path d="M288.498 113.558C289.176 115.055 289.853 116.551 290.531 118.048C289.822 120.397 289.942 122.861 289.54 125.254C289.259 126.927 289.095 128.619 288.498 130.283C288.498 124.708 288.498 119.133 288.498 113.558Z" fill="#7C8084"/>
<path d="M95.2213 92.2339C98.5207 92.9137 101.812 93.6386 105.124 94.2469C106.159 94.4369 106.589 94.9649 106.771 95.9004C108.478 104.698 110.239 113.486 111.875 122.297C112.326 124.728 111.668 127.192 111.513 129.639C111.286 133.228 110.899 136.807 110.581 140.39C109.784 140.899 109.147 140.407 108.545 140.008C104.993 137.654 101.119 137.265 97.0547 138.119C92.8738 138.996 88.7973 140.396 84.4985 140.681C79.6528 141.002 74.8245 141.024 70.113 139.565C67.5745 138.858 64.9485 138.629 62.3701 138.143C59.8717 137.672 59.7251 137.485 60.1166 134.852C60.7903 132.326 61.4641 129.8 62.1379 127.274C62.011 126.158 62.541 125.175 62.8051 124.144C64.389 117.959 65.8784 111.756 66.7417 105.419C67.1332 102.546 67.1425 99.6499 67.2876 96.7619C67.2029 93.9809 66.5655 93.1889 64.0009 92.678C67.1995 91.4026 70.5152 90.4955 73.8212 89.558C74.2007 91.8309 73.1413 93.8944 72.9836 95.8965C73.621 93.9316 73.4639 91.5705 74.4705 89.4919C74.7305 89.219 74.9906 88.9462 75.2506 88.6732C75.6768 89.0728 75.5621 89.5661 75.4536 89.8796C75.4516 89.8714 75.5272 89.7048 75.5564 89.5327C75.647 88.9987 75.4146 88.2825 76.1255 88.0586C76.886 87.8192 77.2326 88.504 77.6117 88.9694C78.8465 90.4854 80.273 91.7978 81.8819 92.8894C83.6948 94.1192 85.623 94.9739 87.9248 94.9435C90.1478 94.9142 92.053 94.2605 93.7479 92.8656C94.1687 92.5193 94.5384 91.9936 95.2213 92.2339Z" fill="#F5F4E7"/>
<path d="M92.0513 59.6281C93.3228 57.3295 94.6084 55.0386 95.8577 52.7279C96.2575 51.9886 96.7866 51.6972 97.6428 51.7094C99.531 51.7362 101.377 51.929 103.211 52.5798C102.49 50.9606 101.132 50.3104 99.5098 50.3132C97.9412 50.316 97.777 49.9101 98.5811 48.6117C100.485 45.538 102.027 42.2788 102.919 38.7612C103.182 37.7238 103.629 37.6541 104.487 37.9685C107.623 39.1168 109.791 41.2611 111.1 44.3012C111.576 45.4064 111.93 46.5537 112.104 47.7488C112.244 48.7078 112.714 49.8031 112.408 50.5951C112.044 51.5377 110.801 50.7675 109.963 50.9869C108.808 51.2892 107.663 51.5385 107.118 53.0551C108.673 52.7403 110.046 52.4451 111.427 52.1907C112.054 52.0752 112.725 51.9395 112.644 52.9995C112.184 58.9971 112.756 65.1694 109.519 70.6847C108.709 72.0645 107.993 73.4933 106.954 74.7305C103.801 78.4873 99.9014 79.0194 95.4957 77.425C94.1698 77.6303 93.1255 76.8462 92.0119 76.3757C90.3035 75.654 88.6862 74.7358 87.0964 73.7752C86.9488 73.6952 86.8114 73.6012 86.6791 73.4984C86.178 73.0387 85.6548 72.5921 85.6025 71.8405C87.2439 67.8649 89.1605 64.0237 91.2978 60.2914C91.4725 59.9863 91.7368 59.7772 92.0513 59.6281Z" fill="#E59F72"/>
<path d="M95.2213 92.2336C93.3214 93.9054 91.3468 95.3225 88.6384 95.4502C84.2132 95.659 81.1364 93.2558 78.2672 90.3814C77.5927 89.7056 77.0188 88.9293 76.3305 88.1189C75.66 88.8874 76.0994 89.9863 75.25 90.712C75.25 89.9599 75.25 89.3171 75.2504 88.6736C76.7137 87.0005 76.9658 84.8116 77.7218 82.8401C78.3092 81.3083 78.8115 79.7438 79.3516 78.1939C79.5821 76.0096 80.657 74.1102 81.4178 72.1059C81.6401 71.5202 81.9489 70.9675 82.0674 70.3434C82.2668 69.6998 82.575 69.1032 82.8653 68.4987C84.203 66.6399 84.8045 64.3132 86.5375 62.7045C88.4797 59.3925 90.4219 56.0804 92.3641 52.7684C92.8545 52.4411 93.2103 51.381 93.9628 52.4746C93.995 53.0851 93.6217 53.5313 93.3556 54.031C90.7111 58.9952 88.3512 64.0936 86.2004 69.2885C85.7746 70.0135 85.4733 70.8235 84.5505 71.1439C83.8876 71.374 83.6696 72.0538 83.5565 72.6504C83.0341 75.4058 82.0271 77.9947 80.9938 80.5823C80.8933 80.834 81.1301 80.522 81.2443 80.5727C81.7161 80.7821 81.7517 81.1613 81.6286 81.5631C81.3472 82.4815 81.1123 83.4194 80.6722 84.28C81.5727 82.6112 81.7194 80.6994 82.3564 78.9443C82.8811 77.3269 83.5699 75.7741 84.1944 74.1971C84.9553 72.2755 85.2787 72.198 86.9215 73.3969L86.9009 73.3806C89.0593 74.8815 91.3695 76.092 93.8192 77.0475C94.3917 77.2708 95.0506 77.3525 95.476 77.8798C95.9512 81.1765 96.4266 84.4733 96.9019 87.7698C96.3416 89.2575 95.7815 90.7455 95.2213 92.2336Z" fill="#E49E72"/>
<path d="M82.7307 79.1319C82.1266 81.1388 81.5025 83.1386 80.4318 85.4474C80.3668 83.5848 81.449 82.3723 81.3933 80.9359C80.8399 80.9204 80.9554 81.5802 80.3555 81.7064C80.7385 80.4648 81.1251 79.319 81.4436 78.1546C81.9447 76.3228 82.8974 74.6436 83.0243 72.6735C83.1333 70.9845 85.0095 70.5844 85.8517 69.3938C88.1912 64.2927 90.4332 59.1434 93.1759 54.2394C93.5174 53.6287 93.681 52.6301 94.7934 52.8355C94.8187 52.8401 94.8429 52.9171 94.8456 52.9617C94.849 53.0169 94.8294 53.0735 94.8198 53.1295C93.9209 54.927 93.0106 56.719 92.1334 58.527C91.9736 58.8564 91.4103 59.2163 92.0511 59.6282C89.9874 63.7668 87.9237 67.9054 85.86 72.044C83.9692 74.0325 83.35 76.5822 82.7307 79.1319Z" fill="#BB8461"/>
<path d="M83.1292 68.6942C82.9074 69.2088 82.6856 69.7235 82.4638 70.2382C81.1722 72.6222 80.5334 75.3055 79.0801 77.6154C78.1906 79.9301 77.3011 82.2449 76.2377 85.0125C75.6748 80.1018 80.6722 68.8631 86.767 60.7144C86.9752 61.4873 86.4106 61.8876 86.2014 62.3972C85.7729 64.1747 84.5303 65.5451 83.8017 67.1749C83.5759 67.68 83.3009 68.1639 83.1292 68.6942Z" fill="#D2936A"/>
<path d="M94.8196 53.1296C93.8742 52.9529 93.8173 53.8202 93.5272 54.3123C91.0318 58.545 89.14 63.0838 86.9125 67.4532C86.5781 68.1093 86.2061 68.7462 85.8516 69.393C86.0135 67.765 86.9115 66.412 87.5704 64.9832C89.5223 60.7507 91.3357 56.4458 93.7985 52.4664C93.9596 52.2595 93.8697 51.9436 94.1019 51.7676C94.942 51.905 95.5077 52.187 94.8196 53.1296Z" fill="#533D26"/>
<path d="M109.953 95.3468C109.79 95.897 109.463 95.6907 109.186 95.4856C105.969 93.1036 102.451 91.1932 99.0917 89.0353C98.8037 88.8503 98.1368 88.6946 98.6104 88.0645C101.681 89.8609 104.754 91.6535 107.821 93.4566C108.652 93.9454 109.45 94.4827 109.953 95.3468Z" fill="#EBE9E6"/>
<path d="M97.5479 45.5831C99.3704 43.3373 100.38 40.6854 101.333 38.0056C101.579 37.3153 101.818 36.6226 102.155 35.6602C102.186 38.6676 97.4387 48.8672 95.2119 50.6542C95.5778 48.627 97.1436 47.3454 97.5665 45.561L97.5479 45.5831Z" fill="#B78567"/>
<path d="M94.1023 51.7677C94.1404 52.061 94.0957 52.3186 93.7988 52.4664C93.1914 51.9534 92.8675 52.7866 92.3643 52.7686C93.9668 49.5581 96.1492 46.7119 98.06 43.4224C98.2331 44.4187 97.5144 44.8984 97.5484 45.5832L97.567 45.5611C96.536 46.4295 96.1223 47.7014 95.4483 48.8031C94.9202 49.6664 94.6424 50.6694 93.791 51.3552C93.3427 51.7163 93.9027 51.6905 94.1023 51.7677Z" fill="#BB8461"/>
<path d="M95.4754 77.8796C92.8289 77.1644 90.3996 75.9743 88.1041 74.496C87.6399 74.197 87.0655 74.0063 86.9004 73.3804C89.7618 74.7363 92.5089 76.3351 95.4953 77.4251C95.4887 77.5765 95.482 77.7281 95.4754 77.8796Z" fill="#744D33"/>
<path d="M79.0801 77.6153C80.033 75.0765 80.9473 72.52 82.4637 70.2388C81.6669 72.984 80.4929 75.5824 79.3515 78.1937C79.261 78.001 79.1706 77.8081 79.0801 77.6153Z" fill="#9D6B47"/>
<path d="M83.1289 68.6945C83.5397 66.2963 85.0596 64.4391 86.2012 62.3975C86.3131 62.5 86.4251 62.6024 86.5371 62.7048C85.5313 64.7754 84.4646 66.8115 83.1289 68.6945Z" fill="#9D6B47"/>
<path d="M74.4708 89.4917C74.1576 91.8581 73.6201 94.1758 72.9443 96.4676C72.9526 94.1265 73.487 91.8547 73.8215 89.5578C74.0379 89.5357 74.2543 89.5137 74.4708 89.4917Z" fill="#777165"/>
<path d="M414.512 132.431C415.326 132.472 415.165 131.869 415.22 131.386C415.294 130.729 415.046 130.027 415.484 129.419C415.634 129.508 415.81 129.64 415.801 129.792C415.664 131.987 416.997 132.716 418.877 132.922C419.043 132.94 419.213 132.996 419.362 133.074C420.614 133.729 421.786 133.948 422.679 132.509C422.894 135.344 424.04 136.25 427.771 136.537C430.674 136.76 430.675 136.76 430.667 139.77C430.661 141.592 430.625 143.414 430.655 145.236C430.671 146.175 430.485 146.537 429.386 146.34C427.717 146.041 426.002 145.991 424.304 145.858C423.667 145.808 423.035 145.851 422.673 146.517C420.293 146.497 417.914 146.477 415.534 146.458C412.885 146.28 410.497 145.161 408.034 144.332C406.427 143.79 404.935 143.829 403.441 144.666C402.037 145.452 400.536 145.973 398.897 145.93C397.755 145.9 396.901 145.483 396.82 144.177C397.027 143.571 397.469 143.138 398.025 142.599C397.518 143.037 397.203 143.436 396.932 143.873C395.682 145.746 394.21 146.243 392.151 145.488C391.591 143.305 390.355 141.309 390.35 138.965C390.35 138.768 390.019 138.571 389.843 138.376C391.438 138.103 392.673 137.106 393.789 136.095C396.357 133.767 399.431 133.086 402.731 132.781C406.655 132.419 410.585 132.534 414.512 132.431Z" fill="#BB7F5B"/>
<path d="M422.679 132.509C422.31 134.576 422.316 134.559 420.164 133.795C419.306 133.49 418.426 133.104 417.539 133.058C415.741 132.962 415.198 132.095 415.513 130.44C415.575 130.113 415.498 129.759 415.484 129.419C415.166 128.444 415.061 127.488 415.461 126.484C415.643 126.028 415.642 125.477 415.635 124.971C415.584 120.987 416.288 117.067 416.57 113.117C416.816 109.673 417.271 106.251 417.719 102.852C418.213 99.1097 418.413 95.3359 419.024 91.6113C420.263 91.812 421.482 92.2759 422.765 91.903C422.974 92.0317 423.183 92.1604 423.391 92.2892C423.333 93.0827 423.231 93.8757 423.224 94.6697C423.107 107.284 423.08 119.899 422.679 132.509Z" fill="#FEFEFE"/>
<path d="M330.793 123.484C330.888 123.458 330.973 123.475 331.05 123.536C333.08 130.367 335.078 137.208 337.163 144.023C337.634 145.563 337.317 145.986 335.69 145.894C332.787 145.732 329.871 145.784 326.961 145.745C326.959 138.996 327.004 132.247 326.92 125.499C326.9 123.939 327.303 123.276 328.91 123.507C329.524 123.595 330.165 123.497 330.793 123.484Z" fill="#F1F1F1"/>
<path d="M337.237 146.224C337.252 149.945 337.252 149.945 333.479 149.946C331.888 149.946 330.29 149.852 328.708 149.974C327.24 150.087 326.768 149.516 326.942 148.134C327.019 147.519 326.957 146.886 326.959 146.262C330.384 146.063 333.811 146.123 337.237 146.224Z" fill="#F0F0F0"/>
<path d="M324.545 145.815C324.542 145.709 324.539 145.603 324.538 145.496C324.573 144.961 324.868 144.385 324.017 144.12C322.791 143.739 322.69 142.883 323.481 142.027C324.936 140.452 325.055 138.508 325.076 136.569C325.107 133.655 325.153 130.739 325.165 127.824C325.169 126.732 325.294 125.643 326.259 124.89C326.723 125.29 326.582 125.835 326.583 126.332C326.59 132.268 326.585 138.204 326.591 144.14C326.592 144.717 326.581 145.282 326.26 145.789C325.688 145.798 325.117 145.807 324.545 145.815Z" fill="#F1F1F1"/>
<path d="M327.702 97.7505C328.25 98.1748 328.926 98.3121 329.445 97.9225C329.939 97.552 329.708 96.8617 329.609 96.3131C329.089 93.4221 328.548 90.5348 328.015 87.6462C328.005 87.5905 327.99 87.5307 327.999 87.4771C328.125 86.8052 327.544 85.6756 328.451 85.5567C329.501 85.4193 329.632 86.561 329.682 87.4196C329.879 90.7672 331.106 93.9334 331.399 97.2598C331.485 98.233 332.13 98.0896 332.748 98.0884C331.184 98.7724 329.563 98.355 327.965 98.3086C327.872 98.3059 327.789 97.9448 327.702 97.7505Z" fill="#60605F"/>
<path d="M326.249 146.216C326.251 146.33 326.257 146.444 326.255 146.558C326.16 150.491 327.005 149.853 322.822 149.958C321.795 149.984 321.351 149.654 321.437 148.595C321.502 147.803 321.453 147.001 321.455 146.204C323.053 146.208 324.651 146.212 326.249 146.216Z" fill="#F1F1F1"/>
<path d="M350.992 149.568C349.954 149.567 348.915 149.566 347.877 149.565C345.42 149.277 342.954 149.516 340.494 149.438C340.289 149.463 340.107 149.409 339.947 149.278C339.977 148.638 340.357 148.744 340.759 148.896C350.233 148.911 359.707 148.927 369.181 148.942C369.382 149.15 369.385 149.359 369.181 149.567C364.827 149.566 360.473 149.565 356.119 149.564C354.41 149.361 352.701 149.355 350.992 149.568Z" fill="#525252"/>
<path d="M356.953 120.7C358.357 120.78 359.444 121.883 360.183 123.398C360.97 125.012 361.266 126.695 360.125 128.254C359.296 129.386 358.103 129.668 356.759 129.159C354.406 128.269 352.953 125.254 353.648 122.831C354.076 121.337 355.026 120.668 356.953 120.7Z" fill="#525252"/>
<path d="M391.745 149.269C391.551 149.397 391.357 149.525 391.164 149.652C386.469 149.625 381.774 149.598 377.079 149.571C376.876 149.361 376.878 149.151 377.08 148.941C381.649 148.92 386.219 148.9 390.789 148.879C391.149 148.909 391.515 148.922 391.745 149.269Z" fill="#535352"/>
<path d="M340.335 149.629C339.61 150.135 338.702 150.23 338.158 149.661C337.693 149.175 337.762 148.283 338.201 147.597C338.334 147.702 338.468 147.808 338.602 147.913C339.21 148.226 339.671 148.681 339.958 149.306L339.954 149.299C340.107 149.378 340.297 149.416 340.335 149.629Z" fill="#F0F0F0"/>
<path d="M377.08 148.941C377.08 149.151 377.08 149.361 377.08 149.571C375.707 149.571 374.333 149.57 372.96 149.569C372.756 149.36 372.758 149.152 372.959 148.943C374.333 148.942 375.707 148.942 377.08 148.941Z" fill="#525252"/>
<path d="M372.959 148.943C372.959 149.152 372.959 149.36 372.96 149.569C371.7 149.568 370.441 149.568 369.182 149.567C369.182 149.359 369.182 149.15 369.182 148.942C370.441 148.942 371.7 148.942 372.959 148.943Z" fill="#535352"/>
<path d="M391.745 149.269C391.374 149.269 390.993 149.292 390.789 148.88C391.38 148.599 391.12 147.439 392.126 147.585C392.161 148.183 392.233 148.79 391.745 149.269Z" fill="#525252"/>
<path d="M339.958 149.306C339.279 149.062 338.95 148.479 338.603 147.913C339.477 147.899 339.944 148.779 340.759 148.896C340.441 148.931 340.133 148.988 339.958 149.306Z" fill="#535352"/>
<path d="M161.111 124.675C161.109 127.335 159.762 129.142 157.856 129.081C157.052 129.056 156.42 128.747 155.933 128.123C154.448 126.221 155.501 122.195 157.717 121.29C159.603 120.52 161.114 122.026 161.111 124.675Z" fill="#FDFDFE"/>
<path d="M169.68 148.029C171.618 147.937 173.56 147.792 175.8 148.363C173.241 149.586 170.799 149.697 168.329 149.653C168.213 149.542 168.098 149.43 167.982 149.318C168.432 148.961 168.882 148.605 169.332 148.248C169.448 148.175 169.564 148.102 169.68 148.029Z" fill="#F4F4F4"/>
<path d="M428.864 44.5051C425.314 45.0439 421.762 45.5789 418.212 46.1245C417.361 46.2554 416.606 46.3138 415.775 45.7803C412.512 43.6854 407.321 44.6684 404.809 47.7065C404.034 48.6435 402.859 48.7992 402.212 47.7903C401.099 46.0519 399.523 45.8589 397.763 45.8736C397.515 45.0528 397.95 44.8572 398.651 44.898C399.331 44.9376 399.738 44.7085 399.715 43.9319C399.694 43.2493 399.432 42.7908 398.72 42.8242C397.523 42.8805 397.644 42.1213 397.731 41.3539C397.744 41.2406 397.781 41.1291 397.785 41.016C397.886 37.9024 399.463 36.3653 402.552 35.6624C407.606 34.5122 412.622 33.6798 417.789 34.5713C419.608 34.8852 421.295 35.5748 422.808 36.6562C423.463 37.1247 424.156 37.4648 424.965 37.6353C427.341 38.1354 429.524 42.0297 428.864 44.5051Z" fill="#BA7E5B"/>
<path d="M403.876 51.4105C404.963 55.4019 406.684 56.3199 411.513 55.4847C415.243 54.8396 417.342 52.3072 416.896 48.6699C416.733 47.3422 416.957 46.9941 418.298 46.8069C421.952 46.2966 425.576 45.5708 429.212 44.9307C431.095 49.5185 428.939 57.1645 424.845 60.3052C422.972 61.7418 420.909 62.8394 418.627 63.489C417.003 63.9515 416.018 63.4835 415.32 61.9526C413.181 57.255 412.483 56.8921 407.263 57.7812C406.646 57.8864 406.029 58.0056 405.42 58.1505C402.204 58.9152 402.204 58.9188 400.452 56.2184C400.504 55.9526 400.497 55.6536 400.827 55.5416C401.411 54.1284 402.587 53.0692 403.155 51.6411C403.255 51.3889 403.563 51.263 403.876 51.4105Z" fill="#BA7D59"/>
<path d="M438.879 47.9523C438.856 51.0566 435.994 54.6192 433.074 55.4145C432.201 55.6525 431.891 55.3176 431.793 54.5899C431.417 51.8257 431.061 49.0588 430.718 46.2904C430.671 45.9062 430.675 45.5163 431.058 45.2126C432.096 44.3898 436.029 44.0417 437.163 44.7521C438.367 45.5071 438.993 46.6012 438.879 47.9523Z" fill="#BF825E"/>
<path d="M408.255 59.9478C408.883 59.9466 409.513 59.9113 410.139 59.9527C412.776 60.1273 412.447 59.4619 412.094 62.2405C411.635 65.8593 406.499 68.2421 403.342 66.402C402.467 65.892 401.02 62.5142 401.209 61.5079C401.332 60.8567 401.834 60.79 402.325 60.626C404.256 59.9815 406.252 59.9411 408.255 59.9478Z" fill="#B87E5E"/>
<path d="M60.117 134.852C60.1549 137.267 60.1583 137.247 62.627 137.668C65.2411 138.114 67.8478 138.603 70.4577 139.073C70.8411 139.822 70.7861 140.585 70.5775 141.373C69.9277 143.826 69.384 146.307 68.7039 148.753C68.5652 149.112 68.3719 149.427 68.0097 149.603C67.8945 149.713 67.7792 149.823 67.6638 149.933C56.4129 149.94 45.1622 149.948 33.9115 149.95C33.4681 149.95 32.9828 150.055 32.6475 149.619C35.9493 149.619 39.2513 149.619 42.9551 149.619C40.8247 148.797 39.719 147.468 39.2145 145.671C38.6886 143.799 39.3191 141.945 40.166 140.448C40.8526 139.235 42.4516 138.538 43.646 137.613C45.8075 135.923 48.2599 135.431 50.3773 136.413C48.4852 137.276 46.5931 137.808 45.0438 138.988C43.8351 139.99 42.6351 141.003 41.7054 142.282C42.6361 140.969 43.8811 139.971 45.1207 138.965C46.7891 137.732 48.7263 137.098 50.6691 136.494C51.6392 136.192 52.6448 135.941 53.5927 136.612C55.2779 137.066 57.0223 137.043 58.7387 137.246C59.4271 137.327 59.795 137.023 59.7878 136.278C59.7832 135.788 59.6398 135.241 60.117 134.852Z" fill="#757474"/>
<path d="M67.2871 96.7617C67.6931 101.57 66.9846 106.287 66.0968 110.986C65.0582 116.483 63.807 121.93 62.1374 127.274C61.434 126.292 62.1783 125.407 62.3977 124.535C64.159 117.533 65.8146 110.522 66.7403 103.338C67.0236 101.14 66.5395 98.8995 67.2871 96.7617Z" fill="#4C4B49"/>
<path d="M44.5932 138.979C46.1661 137.788 47.9212 136.964 50.0032 136.404C47.5564 135.817 45.5891 136.655 43.6455 137.613C44.2205 136.524 46.1767 135.66 48.2012 135.518C50.3967 135.365 52.5082 135.782 54.6138 136.359C54.364 136.759 53.9178 136.47 53.5922 136.612C50.4158 136.556 47.5999 137.618 45.01 139.38C44.7082 139.415 44.5739 139.277 44.5932 138.979Z" fill="#3E3E3E"/>
<path d="M269.98 47.2009C270.141 51.8042 268.344 55.3603 265.257 58.3664C264.435 59.1668 263.817 59.482 263.055 58.1702C262.237 56.7598 260.887 56.1004 259.154 56.1713C255.906 56.3041 252.65 56.0556 249.406 56.5371C247.404 56.8342 245.74 57.5307 244.997 59.5331C244.672 60.4081 244.286 60.3478 243.598 60.0304C239.649 58.2084 236.366 51.8284 237.154 47.5634C237.474 45.8322 237.56 44.056 237.914 42.3334C239.215 35.9953 241.092 34.0232 247.326 32.9709C252.221 32.1447 257.16 31.9145 262.11 32.8371C264.549 33.2918 266.342 34.4376 267.391 36.6939C268.97 40.0886 270.104 43.5917 269.98 47.2009Z" fill="#6A4A35"/>
<path d="M254.347 67.5524C252.088 67.568 250.397 66.6238 249.372 64.5784C248.835 63.5075 248.253 62.4518 247.815 61.3405C247.199 59.7786 247.686 59.1171 249.361 58.9809C251.853 58.7784 254.342 58.5408 256.833 58.3335C257.344 58.291 257.865 58.2684 258.373 58.3192C260.114 58.4934 260.624 59.357 260.009 60.9759C259.746 61.6656 259.434 62.3611 259.328 63.0811C258.852 66.3021 257.509 67.5372 254.347 67.5524Z" fill="#664837"/>
<path d="M68.3457 148.916C68.704 146.135 69.6669 143.493 70.2183 140.756C70.3301 140.201 70.3786 139.633 70.457 139.072C71.7279 140.031 73.2663 139.791 74.6961 139.988C81.8336 140.973 88.7728 139.906 95.6258 137.921C100.552 136.494 105.217 136.964 109.472 140.024C109.814 140.269 110.164 140.41 110.581 140.389C111.207 141.862 112.698 142.581 113.573 143.835C113.963 144.394 114.341 144.96 114.724 145.523C114.504 146.072 114.284 146.621 114.064 147.17C109.841 147.149 105.614 147.396 101.397 146.965C102.309 145.969 103.379 147.004 104.233 146.725C100.942 146.411 97.531 145.466 94.139 146.82C89.6364 146.838 85.1337 146.848 80.6311 146.876C78.55 146.889 78.3575 147.179 79.0182 149.175C78.8864 149.372 78.707 149.539 78.4747 149.548C75.4032 149.668 72.3308 149.63 69.2587 149.571C68.824 149.563 68.5116 149.328 68.3457 148.916Z" fill="#EAA579"/>
<path d="M113.016 105.674C115.756 114.872 116.625 125.801 114.463 137.179C114.818 131.903 115.255 126.631 115.059 121.339C114.863 116.058 114.009 110.858 113.016 105.674Z" fill="#444242"/>
<path d="M326.259 124.889C325.234 127.729 325.715 130.687 325.568 133.596C325.473 135.46 325.64 137.315 325.321 139.197C325.094 140.535 324.649 141.553 323.68 142.42C323.431 142.641 323.153 142.905 323.332 143.295C323.491 143.642 323.816 143.734 324.177 143.766C324.629 143.805 325.27 143.292 325.483 144.06C325.692 144.813 325.08 145.163 324.538 145.496C321.451 145.498 321.45 145.498 321.451 142.418C321.451 136.524 321.48 130.63 321.431 124.736C321.42 123.407 321.817 122.942 323.137 123.325C323.673 123.481 324.285 123.59 324.821 123.492C326.047 123.267 326.489 123.693 326.259 124.889Z" fill="#F1F2F2"/>
<path d="M326.253 122.743C321.45 123.048 321.424 123.047 321.46 118.468C321.482 115.644 320.888 115.973 324.883 115.987C325.904 116.693 326.368 117.671 326.249 118.9C326.125 120.183 326.511 121.462 326.253 122.743Z" fill="#F2F2F2"/>
<path d="M328.349 115.955C329.061 118.223 330.098 120.402 330.258 122.824C326.955 122.781 326.955 122.781 326.954 119.491C326.954 118.752 327.012 118.008 326.94 117.276C326.832 116.17 327.382 115.863 328.349 115.955Z" fill="#F1F1F2"/>
<path d="M326.253 122.743C325.953 121.486 325.778 120.205 325.933 118.926C326.078 117.734 325.11 117.007 324.884 115.987C326.183 115.772 326.787 116.241 326.598 117.626C326.367 119.321 326.99 121.078 326.253 122.743Z" fill="#F1F1F2"/>
<path d="M340.335 149.629C340.208 149.519 340.081 149.409 339.954 149.299C342.594 149.41 345.255 148.929 347.878 149.565C345.363 149.586 342.849 149.607 340.335 149.629Z" fill="#535352"/>
<path d="M350.992 149.568C352.701 149.079 354.41 149.085 356.119 149.564C354.41 149.566 352.701 149.567 350.992 149.568Z" fill="#535352"/>
<path d="M94.1387 146.819C97.6567 144.375 101.203 146.098 104.744 146.965C103.627 146.965 102.51 146.965 101.395 146.965C98.9772 146.916 96.558 146.868 94.1387 146.819Z" fill="#F9EDE3"/>
<path d="M68.3456 148.916C70.6873 149.562 73.0793 149.121 75.4458 149.23C76.6336 149.285 77.8278 149.198 79.0186 149.175C79.3442 149.347 79.6704 149.52 79.9966 149.692C79.2369 150.282 78.3567 149.958 77.5387 149.973C74.881 150.02 72.222 150.003 69.5638 149.983C69.0303 149.979 68.4109 150.199 68.0098 149.603C68.1217 149.374 68.2336 149.145 68.3456 148.916Z" fill="#FEFAF5"/>
<path d="M396.986 143.772C397.19 145.316 398.179 145.716 399.557 145.517C400.982 145.31 402.308 144.805 403.551 144.089C404.926 143.296 406.329 143.217 407.818 143.755C410.381 144.681 412.96 145.559 415.533 146.458C408.279 146.491 401.025 146.521 393.771 146.563C392.97 146.567 392.258 146.501 392.15 145.489C394.021 145.643 395.627 145.04 397.008 143.791L396.986 143.772Z" fill="#484444"/>
<path d="M400.846 148.524C400.547 148.495 400.376 149.282 400.119 148.78C399.891 148.332 399.794 147.616 400.428 147.27C400.7 147.121 401.094 147.175 401.433 147.175C404.795 147.17 408.157 147.185 411.519 147.167C412.629 147.161 413.278 147.387 412.496 148.617C410.486 148.158 408.448 148.459 406.425 148.428C404.567 148.401 402.701 148.267 400.846 148.524Z" fill="#B7B7B8"/>
<path d="M400.847 148.524C402.022 147.882 403.288 148.292 404.507 148.245C406.947 148.152 409.392 148.208 411.833 148.136C412.289 148.122 412.457 148.202 412.496 148.617C408.613 148.586 404.73 148.555 400.847 148.524Z" fill="#717172"/>
<path d="M418.017 147.577C418.805 147.536 418.975 147.998 418.977 148.665C418.978 149.309 418.722 149.58 418.063 149.587C417.21 149.597 417.009 149.15 417.007 148.403C417.004 147.649 417.487 147.608 418.017 147.577Z" fill="#727376"/>
<path d="M415.82 148.18C415.598 148.604 415.77 149.382 414.981 149.42C414.442 149.447 414.203 149.05 414.198 148.518C414.193 147.881 414.349 147.368 415.12 147.398C415.557 147.416 415.889 147.604 415.82 148.18Z" fill="#828182"/>
<path d="M419.646 148.525C419.673 148.076 419.59 147.542 420.258 147.504C420.917 147.465 421.007 147.938 420.926 148.424C420.847 148.89 420.949 149.567 420.186 149.555C419.463 149.544 419.696 148.94 419.646 148.525Z" fill="#737273"/>
<path d="M409.254 54.9805C407.624 54.9999 406.31 54.6805 405.775 52.8534C405.002 50.2075 405.48 47.9808 407.25 46.8241C409.101 45.6146 411.153 45.2493 413.326 45.5563C414.836 45.7693 415.611 46.7279 415.874 48.1682C416.489 51.5507 414.992 53.835 411.613 54.6175C410.84 54.7966 410.041 54.8625 409.254 54.9805Z" fill="#B97E5D"/>
<path d="M398.032 56.1422C395.625 55.9611 393.886 54.3276 393.527 51.9119C393.136 49.2848 393.984 47.7609 396.346 46.8434C397.314 46.5924 397.675 47.1085 397.8 47.9665C397.962 49.0774 398.098 50.1928 398.338 51.291C398.431 51.6686 398.478 52.0526 398.494 52.4405C398.48 53.1674 398.591 53.8832 398.68 54.6023C398.758 55.2278 398.77 55.8493 398.032 56.1422Z" fill="#FCFCFC"/>
<path d="M397.954 51.4445C397.738 50.2793 397.477 49.1199 397.323 47.9466C397.238 47.3009 397.081 46.8494 396.345 46.8438C400.05 45.5872 402.233 48.0294 401.054 51.3596C400.905 51.7814 400.427 52.4151 401.098 52.6646C401.682 52.8814 401.872 52.1345 402.146 51.7342C402.477 51.2488 402.507 50.6677 402.583 50.0985C402.66 49.5172 402.814 48.9021 403.605 49.0186C404.458 49.1444 404.051 49.7567 404 50.2207C403.956 50.6172 403.917 51.0142 403.875 51.4109C402.809 52.7508 402.378 54.5602 400.826 55.542C400.354 54.7873 399.925 55.4274 399.572 55.6434C399.083 55.9426 398.666 56.3383 398.031 56.1424C398.589 54.9183 397.935 53.6736 398.095 52.4428C399.467 52.291 400.24 51.5639 400.265 50.1481C400.272 49.7432 400.184 49.3128 399.749 49.1684C399.203 48.9872 398.94 49.4019 398.698 49.799C398.383 50.3172 398.568 51.0614 397.954 51.4445Z" fill="#AA765A"/>
<path d="M173.488 149.669C174.086 149.521 174.761 149.504 175.267 149.203C177.996 147.577 180.425 148.57 182.834 149.949C180.133 149.958 177.432 149.974 174.731 149.971C174.303 149.97 173.816 150.122 173.488 149.669Z" fill="#F7F7F7"/>
<path d="M104.032 72.4024C101.17 72.3495 99.8761 70.9134 98.6669 69.3599C98.4596 69.0935 98.329 68.7663 98.1704 68.4633C96.9025 66.04 96.9022 66.0773 99.4718 66.1301C101.576 66.1733 103.679 66.2469 105.783 65.9174C107.501 65.6485 107.68 65.9413 107.334 67.64C107.129 68.6505 106.849 69.6266 106.382 70.5516C105.753 71.7983 104.781 72.4436 104.032 72.4024Z" fill="#92593E"/>
<path d="M100.577 57.7622C99.4751 57.1431 98.8363 56.9401 98.1079 57.76C96.6471 59.4042 96.3884 59.2844 95.4492 56.7754C97.0759 57.5844 98.8623 55.0386 100.577 57.7622Z" fill="#2F271D"/>
<path d="M110.928 57.4293C110.845 58.1772 110.724 59.0835 109.711 59.0844C109.015 59.0851 108.716 58.3898 108.796 57.7027C108.886 56.9211 108.996 55.9807 110.007 55.9751C110.722 55.9712 110.918 56.6959 110.928 57.4293Z" fill="#372B26"/>
<path d="M82.7303 79.1319C82.5132 77.147 84.4983 72.6511 85.8598 72.0439C86.2134 72.495 86.5671 72.9459 86.9209 73.3969C85.7198 72.5622 85.0574 72.9336 84.6112 74.2769C84.0647 75.922 83.3641 77.5159 82.7303 79.1319Z" fill="#744D33"/>
<path d="M107.173 62.3999C107.504 62.8785 108.349 63.2119 108.035 63.8682C107.723 64.5208 106.894 64.4941 106.203 64.4917C105.492 64.4891 104.78 64.4911 104.069 64.2268C104.899 64.1183 105.726 63.9951 106.558 63.9048C107.783 63.7718 107.196 63.242 106.824 62.752C106.694 62.3908 106.851 62.3136 107.173 62.3999Z" fill="#845738"/>
<path d="M107.173 62.4003C107.057 62.5177 106.94 62.635 106.824 62.7524C105.5 61.4168 104.869 59.7589 104.59 57.9312C105.493 59.3999 106.085 61.044 107.173 62.4003Z" fill="#835839"/>
<path d="M107.548 59.1655C106.736 58.4228 106.63 57.6393 107.365 56.5039C107.685 57.5783 107.348 58.3874 107.548 59.1655Z" fill="#815A41"/>
<path d="M400.197 136.05C397.931 137.471 396.304 139.623 394.174 141.201C395.966 139.237 397.47 136.944 400.197 136.05Z" fill="#6E4C36"/>
<path d="M405.641 137.369C403.589 138.554 401.559 139.772 399.686 141.23C401.295 139.369 403.111 137.823 405.641 137.369Z" fill="#694733"/>
<path d="M397.008 143.791C397.162 142.773 398.086 142.421 398.903 141.981C398.264 142.578 397.625 143.175 396.986 143.772L397.008 143.791Z" fill="#484444"/>
<path d="M360.218 125.828C360.209 127.686 359.328 128.747 357.813 128.726C355.879 128.699 354.136 126.611 354.116 124.297C354.101 122.503 355.019 121.295 356.429 121.253C358.288 121.198 360.23 123.543 360.218 125.828Z" fill="#FCFCFC"/>
<path d="M418.826 42.7598C415.768 41.7785 413.136 41.9247 410.517 42.7046C410.408 42.7372 410.294 42.7832 410.184 42.7802C409.437 42.7596 408.385 43.345 408.054 42.3628C407.676 41.24 408.82 41.0448 409.588 40.7229C411.547 39.9025 413.61 39.8913 415.661 40.0763C417.069 40.2034 417.952 41.1685 418.826 42.7598Z" fill="#352D25"/>
<path d="M436.424 49.0276C434.474 48.0747 433.8 48.8637 433.344 50.2212C433.079 49.3415 433.414 48.6657 434.083 48.1948C434.764 47.7157 435.466 47.7664 436.424 49.0276Z" fill="#82583E"/>
<path d="M411.678 60.7061C409.477 62.7407 404.471 63.3647 402.941 61.7175C405.871 61.2081 408.676 60.7134 411.678 60.7061Z" fill="#F7F2EF"/>
<path d="M44.5932 138.979C44.7323 139.112 44.8714 139.245 45.0102 139.379C43.5872 140.522 42.2605 141.765 41.0996 143.191C41.8052 141.388 43.2263 140.206 44.5932 138.979Z" fill="#6B6B6C"/>
<path d="M240.067 46.9426C240.088 45.1014 241.332 44.4839 242.189 43.6651C243.721 42.2006 245.575 41.3817 247.748 41.4547C248.389 41.4762 249.128 41.5479 249.257 42.2849C249.385 43.0189 248.729 43.4638 248.122 43.5736C245.278 44.0876 242.801 45.4859 240.067 46.9426Z" fill="#1C1B1C"/>
<path d="M267.243 43.3201C264.534 42.2065 261.795 41.5732 258.888 41.7934C257.977 41.8624 256.985 41.7382 256.994 40.6139C257.002 39.6374 257.995 39.4343 258.796 39.4257C262.213 39.389 265.138 40.4951 267.243 43.3201Z" fill="#1D1B1A"/>
<path d="M246.378 46.9419C247.56 46.9982 248.147 47.7768 248.219 48.7972C248.28 49.6587 247.587 50.0619 246.732 50.0532C246.071 50.0465 244.492 48.4458 244.692 47.8799C244.947 47.1621 245.687 47.0427 246.378 46.9419Z" fill="#211D1B"/>
<path d="M260.299 47.6421C260.273 46.6192 260.799 46.2059 261.779 46.2258C262.867 46.2479 263.305 46.9508 263.372 47.8648C263.448 48.9043 262.597 49.2383 261.799 49.285C260.75 49.3464 260.314 48.6319 260.299 47.6421Z" fill="#19181A"/>
<path d="M248.754 59.9399C252.668 60.2577 256.145 59.9733 259.812 59.1494C259.101 61.3316 257.727 62.197 255.927 62.3899C253.362 62.6649 250.814 62.7223 248.754 59.9399Z" fill="#FBFAFA"/>
<path d="M249.93 62.0747C252.528 64.1051 255.236 63.4822 258.149 62.3742C255.749 64.7996 251.663 64.6317 249.93 62.0747Z" fill="#986F57"/>
<path d="M100.599 140.819C103.849 141.1 106.667 142.487 109.328 144.276C106.471 142.989 103.54 141.892 100.599 140.819Z" fill="#8B6144"/>
<path d="M409.679 48.5168C410.018 47.9567 409.571 46.7004 410.898 46.7752C412.02 46.8384 412.646 47.6684 412.693 48.7136C412.736 49.6707 412.1 50.3413 411.112 50.3591C410.018 50.3789 409.707 49.5869 409.679 48.5168Z" fill="#2B231F"/>
<path d="M397.955 51.4445C397.998 50.9352 397.957 50.4005 398.102 49.9221C398.347 49.1118 398.894 48.354 399.794 48.5368C400.573 48.695 400.837 49.5379 400.821 50.3282C400.787 52.0393 399.613 52.9367 398.096 52.4424C398.049 52.11 398.002 51.7772 397.955 51.4445Z" fill="#272523"/>
<path d="M98.2012 66.6084C100.775 67.0117 103.213 66.982 105.646 66.8749C106.728 66.8272 106.882 67.12 106.562 68.1169C105.882 70.2384 104.602 71.0737 102.437 70.5856C100.311 70.1063 99.0569 68.6811 98.2012 66.6084Z" fill="#FAF7F6"/>
</g>
<defs>
<clipPath id="clip0_2080_8209">
<rect width="500" height="160" fill="white"/>
</clipPath>
</defs>
</svg>
