<svg width="16" height="15" viewBox="0 0 16 15" fill="none" xmlns="http://www.w3.org/2000/svg">
<path d="M12.6993 14.2944H3.30111C2.0024 14.2944 0.941406 13.2334 0.941406 11.9347V2.53646C0.941406 1.23776 2.0024 0.176758 3.30111 0.176758H12.6993C13.9981 0.176758 15.0591 1.23776 15.0591 2.53646V11.9347C15.0591 13.2392 14.0039 14.2944 12.6993 14.2944Z" fill="white"/>
<path d="M8.00253 10.8625C7.0343 10.8625 6.12404 10.4856 5.4399 9.80149C4.75576 9.11735 4.37891 8.20709 4.37891 7.23886C4.37891 6.27063 4.75576 5.36037 5.4399 4.67623C6.12404 3.99209 7.0343 3.61523 8.00253 3.61523C8.97076 3.61523 9.88102 3.99209 10.5652 4.67623C11.2493 5.36037 11.6262 6.27063 11.6262 7.23886C11.6262 8.20709 11.2493 9.11735 10.5652 9.80149C9.87522 10.4856 8.97076 10.8625 8.00253 10.8625ZM8.00253 4.38634C6.43133 4.38634 5.15001 5.66186 5.15001 7.23886C5.15001 8.81006 6.42553 10.0914 8.00253 10.0914C9.57374 10.0914 10.8551 8.81586 10.8551 7.23886C10.8493 5.66766 9.57374 4.38634 8.00253 4.38634Z" fill="#334155"/>
<path d="M12.3325 3.496C12.7167 3.496 13.0282 3.1845 13.0282 2.80025C13.0282 2.41599 12.7167 2.10449 12.3325 2.10449C11.9482 2.10449 11.6367 2.41599 11.6367 2.80025C11.6367 3.1845 11.9482 3.496 12.3325 3.496Z" fill="#334155"/>
</svg>
