<svg width="16" height="16" viewBox="0 0 16 16" fill="none" xmlns="http://www.w3.org/2000/svg">
<path d="M9.52558 5.84517L8.52344 6.85156L8.88151 7.21116L9.88366 6.20477L9.52558 5.84517Z" fill="#38BDF8"/>
<path d="M6.49824 8.76411L5.49609 9.77051L5.85417 10.1301L6.85631 9.1237L6.49824 8.76411Z" fill="#38BDF8"/>
<path d="M14.5651 11.4173C14.5651 12.3601 14.1854 13.2137 13.5688 13.8312C12.9539 14.4487 12.1039 14.8318 11.1651 14.8318C9.28747 14.8318 7.76499 13.3028 7.76499 11.4173C7.76499 10.4745 7.3852 9.62088 6.76865 9.00336C6.15374 8.38585 5.30372 8.00279 4.36492 8.00279C2.48731 8.00279 0.964844 6.47387 0.964844 4.58831C0.964844 3.64553 1.34464 2.79191 1.96119 2.1744C2.5761 1.55688 3.42612 1.17383 4.36492 1.17383C5.30372 1.17383 6.15374 1.55523 6.76865 2.1744C7.38355 2.79191 7.76499 3.64553 7.76499 4.58831C7.76499 6.47387 9.28747 8.00279 11.1651 8.00279C12.1039 8.00279 12.9539 8.3842 13.5688 9.00336C14.1837 9.62088 14.5651 10.4745 14.5651 11.4173Z" fill="#38BDF8"/>
<path opacity="0.83" d="M14.5661 11.4171C14.5661 12.3599 14.1863 13.2135 13.5698 13.831C13.4695 13.9334 13.361 14.0291 13.2475 14.1166C13.5155 13.6296 13.6684 13.0682 13.6684 12.4738C13.6684 11.531 13.2886 10.6774 12.6721 10.0599C12.0572 9.44238 11.2071 9.05932 10.2683 9.05932C8.39074 9.05932 6.86827 7.53039 6.86827 5.64483C6.86827 4.70205 6.48848 3.84843 5.87192 3.23092C5.25702 2.6134 4.407 2.23035 3.4682 2.23035C2.68394 2.23035 1.96217 2.49783 1.38672 2.94528C1.54127 2.66129 1.73692 2.40206 1.96217 2.17586C2.57707 1.55835 3.42709 1.17529 4.36589 1.17529C5.3047 1.17529 6.15472 1.5567 6.76962 2.17586C7.38453 2.79338 7.76597 3.647 7.76597 4.58978C7.76597 6.47534 9.28844 8.00426 11.166 8.00426C12.1049 8.00426 12.9549 8.38567 13.5698 9.00483C14.1847 9.62234 14.5661 10.476 14.5661 11.4187V11.4171Z" fill="#CBD5E1"/>
<path d="M9.78182 6.20487C9.11923 5.53947 8.78547 4.66439 8.78712 3.79095C8.78712 2.91752 9.11923 2.04243 9.78182 1.37703C11.1103 0.0429417 13.2608 0.0429417 14.5893 1.37703C15.2519 2.04243 15.5856 2.91752 15.584 3.79095C15.584 4.66439 15.2519 5.53947 14.5893 6.20487C13.9267 6.87026 13.0553 7.20543 12.1855 7.20378C11.3158 7.20378 10.4444 6.87026 9.78182 6.20487Z" fill="#38BDF8"/>
<path d="M0.99471 14.6809C0.332122 14.0155 -0.00163809 13.1405 6.04471e-06 12.267C6.04471e-06 11.3936 0.332122 10.5185 0.99471 9.85311C2.32317 8.51902 4.4737 8.51902 5.80217 9.85311C6.46475 10.5185 6.79852 11.3936 6.79687 12.267C6.79687 13.1405 6.46475 14.0155 5.80217 14.6809C5.13958 15.3463 4.26819 15.6815 3.39844 15.6799C2.52869 15.6799 1.6573 15.3463 0.99471 14.6809Z" fill="#38BDF8"/>
<path d="M6.798 12.2673C6.798 13.2101 6.4182 14.0637 5.80165 14.6812C5.51064 14.9735 5.16866 15.2129 4.7905 15.383C5.32649 14.7803 5.65204 13.9845 5.65204 13.1127C5.65204 12.1716 5.27224 11.3163 4.65569 10.6988C4.04078 10.0813 3.19076 9.69821 2.25196 9.69821C1.75707 9.69821 1.28521 9.80553 0.859375 9.99871C0.902123 9.94917 0.948157 9.90129 0.994193 9.85506C1.6091 9.23755 2.45912 8.85449 3.39792 8.85449C4.33673 8.85449 5.18674 9.23755 5.80165 9.85506C6.41656 10.4726 6.798 11.3278 6.798 12.269V12.2673Z" fill="#CBD5E1"/>
<path d="M15.7303 3.73431C15.7303 4.67544 15.3505 5.53071 14.7339 6.14657C14.4445 6.43717 14.1009 6.67658 13.7228 6.84664C14.2588 6.24399 14.5843 5.44815 14.5843 4.57637C14.5843 3.63689 14.2045 2.77997 13.5879 2.16411C12.9747 1.54825 12.123 1.16354 11.1859 1.16354C10.691 1.16354 10.2191 1.27086 9.79492 1.46404C9.83767 1.41451 9.88371 1.36662 9.92974 1.32039C10.543 0.704531 11.3947 0.319824 12.3318 0.319824C13.269 0.319824 14.1206 0.70288 14.7339 1.32039C15.3488 1.93626 15.7303 2.79318 15.7303 3.73266V3.73431Z" fill="#CBD5E1"/>
</svg>
