<svg width="284" height="284" viewBox="0 0 284 284" fill="none" xmlns="http://www.w3.org/2000/svg">
<path d="M134.111 136.686L109.903 161.584L118.553 170.48L142.761 145.583L134.111 136.686Z" fill="#CBD5E1"/>
<path d="M60.9668 208.903L36.7588 233.801L45.4085 242.697L69.6165 217.8L60.9668 208.903Z" fill="#CBD5E1"/>
<path d="M255.841 274.537C255.841 297.861 246.666 318.979 231.773 334.256C216.919 349.533 196.386 359.01 173.708 359.01C128.352 359.01 91.575 321.185 91.575 274.537C91.575 251.213 82.4006 230.095 67.507 214.818C52.6532 199.541 32.12 190.064 9.44215 190.064C-35.9136 190.064 -72.6907 152.239 -72.6907 105.591C-72.6907 82.2671 -63.5163 61.1488 -48.6227 45.8718C-33.7689 30.5948 -13.2357 21.1182 9.44215 21.1182C32.12 21.1182 52.6532 30.554 67.507 45.8718C82.3609 61.1488 91.575 82.2671 91.575 105.591C91.575 152.239 128.352 190.064 173.708 190.064C196.386 190.064 216.919 199.5 231.773 214.818C246.627 230.095 255.841 251.213 255.841 274.537Z" fill="#CBD5E1"/>
<path opacity="0.83" d="M255.84 274.543C255.84 297.867 246.665 318.985 231.772 334.262C229.349 336.794 226.728 339.163 223.987 341.328C230.461 329.278 234.155 315.39 234.155 300.685C234.155 277.361 224.98 256.243 210.087 240.966C195.233 225.689 174.7 216.212 152.022 216.212C106.666 216.212 69.8891 178.387 69.8891 131.739C69.8891 108.415 60.7147 87.2969 45.8212 72.0199C30.9674 56.7428 10.4342 47.2662 -12.2437 47.2662C-31.1882 47.2662 -48.6236 53.8835 -62.5243 64.9532C-58.7909 57.9274 -54.0647 51.5143 -48.6236 45.9182C-33.7698 30.6412 -13.2366 21.1646 9.44127 21.1646C32.1191 21.1646 52.6523 30.6003 67.5062 45.9182C82.36 61.1952 91.5741 82.3135 91.5741 105.638C91.5741 152.286 128.351 190.11 173.707 190.11C196.385 190.11 216.918 199.546 231.772 214.864C246.626 230.141 255.84 251.259 255.84 274.583V274.543Z" fill="#CBD5E1"/>
<path d="M140.271 145.584C124.265 129.122 116.203 107.473 116.243 85.8646C116.243 64.2562 124.265 42.6069 140.271 26.1453C172.361 -6.85962 224.31 -6.85962 256.401 26.1453C272.406 42.6069 280.469 64.2562 280.429 85.8646C280.429 107.473 272.406 129.122 256.401 145.584C240.395 162.045 219.345 170.337 198.336 170.297C177.326 170.297 156.276 162.045 140.271 145.584Z" fill="#CBD5E1"/>
<path d="M-71.9716 355.286C-87.9772 338.824 -96.0396 317.175 -95.9999 295.567C-95.9999 273.958 -87.9772 252.309 -71.9716 235.847C-39.881 202.843 12.0676 202.843 44.1582 235.847C60.1638 252.309 68.2262 273.958 68.1865 295.567C68.1865 317.175 60.1638 338.824 44.1582 355.286C28.1526 371.747 7.10314 380.04 -13.9067 379.999C-34.9165 379.999 -55.966 371.747 -71.9716 355.286Z" fill="#CBD5E1"/>
<path d="M68.2203 295.572C68.2203 318.896 59.0458 340.014 44.1522 355.292C37.1225 362.522 28.8616 368.444 19.7269 372.652C32.6743 357.742 40.5382 338.054 40.5382 316.486C40.5382 293.203 31.3637 272.044 16.4702 256.767C1.61638 241.49 -18.9168 232.013 -41.5947 232.013C-53.5492 232.013 -64.9477 234.668 -75.2342 239.448C-74.2016 238.222 -73.0896 237.038 -71.9775 235.894C-57.1237 220.617 -36.5905 211.14 -13.9126 211.14C8.7653 211.14 29.2984 220.617 44.1522 235.894C59.0061 251.171 68.2203 272.33 68.2203 295.613V295.572Z" fill="#CBD5E1"/>
<path d="M284.001 84.473C284.001 107.756 274.827 128.915 259.934 144.151C252.943 151.34 244.643 157.263 235.508 161.471C248.456 146.561 256.319 126.873 256.319 105.305C256.319 82.0629 247.145 60.863 232.251 45.6268C217.437 30.3906 196.864 20.8731 174.226 20.8731C162.272 20.8731 150.873 23.5282 140.626 28.3074C141.659 27.082 142.771 25.8974 143.883 24.7537C158.697 9.51749 179.27 0 201.908 0C224.546 0 245.119 9.47664 259.934 24.7537C274.787 39.9898 284.001 61.1898 284.001 84.4321V84.473Z" fill="#CBD5E1"/>
</svg>
