<svg width="40" height="40" viewBox="0 0 40 40" fill="none" xmlns="http://www.w3.org/2000/svg">
<circle cx="20" cy="20" r="20" fill="#334155"/>
<path d="M15.484 17.417H12.0424V28.3921H15.484V17.417Z" fill="white"/>
<path d="M24.7942 17.1792C24.6673 17.1633 24.5325 17.1554 24.3977 17.1475C22.4707 17.0682 21.3843 18.2101 21.0036 18.7018C20.9005 18.8366 20.853 18.9159 20.853 18.9159V17.4488H17.562V28.4239H20.853H21.0036C21.0036 27.3058 21.0036 26.1956 21.0036 25.0775C21.0036 24.4748 21.0036 23.8721 21.0036 23.2694C21.0036 22.524 20.9481 21.731 21.3208 21.049C21.638 20.4781 22.209 20.1926 22.8513 20.1926C24.7545 20.1926 24.7942 21.9134 24.7942 22.072C24.7942 22.0799 24.7942 22.0879 24.7942 22.0879V28.4715H28.2358V21.3107C28.2358 18.8604 26.9908 17.4171 24.7942 17.1792Z" fill="white"/>
<path d="M13.7632 15.9977C14.8669 15.9977 15.7616 15.103 15.7616 13.9993C15.7616 12.8957 14.8669 12.001 13.7632 12.001C12.6596 12.001 11.7649 12.8957 11.7649 13.9993C11.7649 15.103 12.6596 15.9977 13.7632 15.9977Z" fill="white"/>
</svg>
