<svg width="40" height="40" viewBox="0 0 40 40" fill="none" xmlns="http://www.w3.org/2000/svg">
<circle cx="20" cy="20" r="20" fill="#334155"/>
<path d="M24.6991 27.2944H15.3009C14.0022 27.2944 12.9412 26.2334 12.9412 24.9347V15.5365C12.9412 14.2378 14.0022 13.1768 15.3009 13.1768H24.6991C25.9978 13.1768 27.0588 14.2378 27.0588 15.5365V24.9347C27.0588 26.2392 26.0036 27.2944 24.6991 27.2944Z" fill="white"/>
<path d="M20.0028 23.8625C19.0345 23.8625 18.1243 23.4856 17.4401 22.8015C16.756 22.1173 16.3792 21.2071 16.3792 20.2389C16.3792 19.2706 16.756 18.3604 17.4401 17.6762C18.1243 16.9921 19.0345 16.6152 20.0028 16.6152C20.971 16.6152 21.8813 16.9921 22.5654 17.6762C23.2495 18.3604 23.6264 19.2706 23.6264 20.2389C23.6264 21.2071 23.2495 22.1173 22.5654 22.8015C21.8755 23.4856 20.971 23.8625 20.0028 23.8625ZM20.0028 17.3863C18.4316 17.3863 17.1503 18.6619 17.1503 20.2389C17.1503 21.8101 18.4258 23.0914 20.0028 23.0914C21.574 23.0914 22.8553 21.8159 22.8553 20.2389C22.8495 18.6677 21.574 17.3863 20.0028 17.3863Z" fill="#334155"/>
<path d="M24.3327 16.496C24.717 16.496 25.0285 16.1845 25.0285 15.8002C25.0285 15.416 24.717 15.1045 24.3327 15.1045C23.9485 15.1045 23.637 15.416 23.637 15.8002C23.637 16.1845 23.9485 16.496 24.3327 16.496Z" fill="#334155"/>
</svg>
